%TF.GenerationSoftware,KiCad,Pcbnew,9.0.7+1*%
%TF.CreationDate,Date%
%TF.ProjectId,Sensor-Node-2-Board,53656e73-6f72-42d4-9e6f-64652d322d42,+ (Unreleased)*%
%TF.SameCoordinates,Original*%
%TF.FileFunction,Copper,L1,Top*%
%TF.FilePolarity,Positive*%
%FSLAX46Y46*%
G04 Gerber Fmt 4.6, Leading zero omitted, Abs format (unit mm)*
G04 Created by KiCad*
%MOMM*%
%LPD*%
G01*
G04 APERTURE LIST*
G04 Aperture macros list*
%AMRoundRect*
0 Rectangle with rounded corners*
0 $1 Rounding radius*
0 $2 $3 $4 $5 $6 $7 $8 $9 X,Y pos of 4 corners*
0 Add a 4 corners polygon primitive as box body*
4,1,4,$2,$3,$4,$5,$6,$7,$8,$9,$2,$3,0*
0 Add four circle primitives for the rounded corners*
1,1,$1+$1,$2,$3*
1,1,$1+$1,$4,$5*
1,1,$1+$1,$6,$7*
1,1,$1+$1,$8,$9*
0 Add four rect primitives between the rounded corners*
20,1,$1+$1,$2,$3,$4,$5,0*
20,1,$1+$1,$4,$5,$6,$7,0*
20,1,$1+$1,$6,$7,$8,$9,0*
20,1,$1+$1,$8,$9,$2,$3,0*%
G04 Aperture macros list end*
%TA.AperFunction,NonConductor*%
%ADD10C,0.000000*%
%TD*%
%TA.AperFunction,NonConductor*%
%ADD11C,0.165463*%
%TD*%
%ADD12C,0.250000*%
%TA.AperFunction,NonConductor*%
%ADD13C,0.250000*%
%TD*%
%TA.AperFunction,EtchedComponent*%
%ADD14C,0.200000*%
%TD*%
%TA.AperFunction,ComponentPad*%
%ADD15C,1.600000*%
%TD*%
%TA.AperFunction,SMDPad,CuDef*%
%ADD16C,1.000000*%
%TD*%
%TA.AperFunction,ComponentPad*%
%ADD17RoundRect,0.250000X-0.550000X0.550000X-0.550000X-0.550000X0.550000X-0.550000X0.550000X0.550000X0*%
%TD*%
%TA.AperFunction,ComponentPad*%
%ADD18C,2.000000*%
%TD*%
%TA.AperFunction,ComponentPad*%
%ADD19RoundRect,0.250000X-0.250000X0.250000X-0.250000X-0.250000X0.250000X-0.250000X0.250000X0.250000X0*%
%TD*%
%TA.AperFunction,ComponentPad*%
%ADD20C,1.000000*%
%TD*%
%TA.AperFunction,ComponentPad*%
%ADD21RoundRect,0.250000X-0.550000X-0.550000X0.550000X-0.550000X0.550000X0.550000X-0.550000X0.550000X0*%
%TD*%
%TA.AperFunction,ComponentPad*%
%ADD22RoundRect,0.249999X-0.850001X0.850001X-0.850001X-0.850001X0.850001X-0.850001X0.850001X0.850001X0*%
%TD*%
%TA.AperFunction,ComponentPad*%
%ADD23C,2.200000*%
%TD*%
%TA.AperFunction,ComponentPad*%
%ADD24C,5.700000*%
%TD*%
%TA.AperFunction,ComponentPad*%
%ADD25R,1.500000X1.050000*%
%TD*%
%TA.AperFunction,ComponentPad*%
%ADD26O,1.500000X1.050000*%
%TD*%
%TA.AperFunction,ComponentPad*%
%ADD27RoundRect,0.250000X1.350000X-1.350000X1.350000X1.350000X-1.350000X1.350000X-1.350000X-1.350000X0*%
%TD*%
%TA.AperFunction,ComponentPad*%
%ADD28C,3.200000*%
%TD*%
%TA.AperFunction,ComponentPad*%
%ADD29C,1.778000*%
%TD*%
%TA.AperFunction,ComponentPad*%
%ADD30C,1.440000*%
%TD*%
%TA.AperFunction,ComponentPad*%
%ADD31RoundRect,0.250000X0.550000X0.550000X-0.550000X0.550000X-0.550000X-0.550000X0.550000X-0.550000X0*%
%TD*%
%TA.AperFunction,ComponentPad*%
%ADD32C,2.340000*%
%TD*%
%TA.AperFunction,ComponentPad*%
%ADD33O,2.900000X1.700000*%
%TD*%
%TA.AperFunction,ComponentPad*%
%ADD34RoundRect,0.250000X-1.050000X1.050000X-1.050000X-1.050000X1.050000X-1.050000X1.050000X1.050000X0*%
%TD*%
%TA.AperFunction,ComponentPad*%
%ADD35C,2.600000*%
%TD*%
%TA.AperFunction,SMDPad,CuDef*%
%ADD36RoundRect,0.150000X0.725000X0.150000X-0.725000X0.150000X-0.725000X-0.150000X0.725000X-0.150000X0*%
%TD*%
%TA.AperFunction,ComponentPad*%
%ADD37R,1.800000X1.800000*%
%TD*%
%TA.AperFunction,ComponentPad*%
%ADD38C,1.800000*%
%TD*%
%TA.AperFunction,ComponentPad*%
%ADD39RoundRect,0.250000X0.550000X-0.550000X0.550000X0.550000X-0.550000X0.550000X-0.550000X-0.550000X0*%
%TD*%
%TA.AperFunction,ComponentPad*%
%ADD40RoundRect,0.249999X0.850001X0.850001X-0.850001X0.850001X-0.850001X-0.850001X0.850001X-0.850001X0*%
%TD*%
%TA.AperFunction,ComponentPad*%
%ADD41RoundRect,0.675000X0.675000X-0.675000X0.675000X0.675000X-0.675000X0.675000X-0.675000X-0.675000X0*%
%TD*%
%TA.AperFunction,ComponentPad*%
%ADD42C,2.700000*%
%TD*%
%TA.AperFunction,ComponentPad*%
%ADD43R,1.905000X2.000000*%
%TD*%
%TA.AperFunction,ComponentPad*%
%ADD44O,1.905000X2.000000*%
%TD*%
%TA.AperFunction,ComponentPad*%
%ADD45R,1.700000X1.700000*%
%TD*%
%TA.AperFunction,ComponentPad*%
%ADD46C,1.700000*%
%TD*%
%TA.AperFunction,ComponentPad*%
%ADD47R,2.000000X4.500000*%
%TD*%
%TA.AperFunction,ComponentPad*%
%ADD48O,2.000000X4.000000*%
%TD*%
%TA.AperFunction,ComponentPad*%
%ADD49O,4.000000X2.000000*%
%TD*%
%TA.AperFunction,ViaPad*%
%ADD50C,0.600000*%
%TD*%
%TA.AperFunction,Conductor*%
%ADD51C,0.200000*%
%TD*%
%TA.AperFunction,Conductor*%
%ADD52C,0.500000*%
%TD*%
%TA.AperFunction,Conductor*%
%ADD53C,0.300000*%
%TD*%
%TA.AperFunction,Conductor*%
%ADD54C,1.000000*%
%TD*%
G04 APERTURE END LIST*
D10*
%TA.AperFunction,NonConductor*%
G36*
X228146040Y-151551945D02*
G01*
X228148936Y-151559176D01*
X228151851Y-151566969D01*
X228154802Y-151575304D01*
X228157808Y-151584163D01*
X228164054Y-151603383D01*
X228170734Y-151624485D01*
X228196972Y-151720176D01*
X228204785Y-151745401D01*
X228212020Y-151770336D01*
X228215420Y-151782786D01*
X228218676Y-151795272D01*
X228221787Y-151807830D01*
X228224753Y-151820496D01*
X228230082Y-151839687D01*
X228234013Y-151823583D01*
X228247904Y-151773230D01*
X228254849Y-151747836D01*
X228261795Y-151721719D01*
X228268740Y-151696566D01*
X228275685Y-151672137D01*
X228282630Y-151648576D01*
X228289576Y-151626028D01*
X228292533Y-151614742D01*
X228295580Y-151604035D01*
X228298664Y-151593906D01*
X228301730Y-151584356D01*
X228312727Y-151551945D01*
X228555041Y-150906803D01*
X228808159Y-150906803D01*
X228808159Y-152030399D01*
X228638385Y-152030399D01*
X228638385Y-151426929D01*
X228638385Y-151343586D01*
X228639928Y-151241721D01*
X228643015Y-151132140D01*
X228643907Y-151104648D01*
X228644365Y-151077735D01*
X228644379Y-151074146D01*
X228642050Y-151082172D01*
X228633489Y-151110942D01*
X228624494Y-151139857D01*
X228616150Y-151168530D01*
X228607517Y-151196770D01*
X228598883Y-151224720D01*
X228590539Y-151252525D01*
X228581568Y-151278811D01*
X228573176Y-151304229D01*
X228558128Y-151351303D01*
X228543273Y-151393168D01*
X228537075Y-151410989D01*
X228534347Y-151419185D01*
X228531890Y-151426929D01*
X228301923Y-152030399D01*
X228153756Y-152030399D01*
X227922246Y-151426929D01*
X227916193Y-151411013D01*
X227909706Y-151393361D01*
X227906345Y-151383883D01*
X227902929Y-151373972D01*
X227899478Y-151363626D01*
X227896008Y-151352846D01*
X227888774Y-151330274D01*
X227880960Y-151306544D01*
X227872568Y-151281657D01*
X227863597Y-151255612D01*
X227855229Y-151228458D01*
X227846426Y-151200435D01*
X227828099Y-151142944D01*
X227819730Y-151113981D01*
X227810928Y-151084873D01*
X227808842Y-151078131D01*
X227809578Y-151125966D01*
X227812664Y-151235548D01*
X227814208Y-151338956D01*
X227815100Y-151363554D01*
X227815558Y-151386415D01*
X227815727Y-151407540D01*
X227815751Y-151426929D01*
X227815751Y-152030399D01*
X227649064Y-152030399D01*
X227649064Y-150906803D01*
X227902182Y-150906803D01*
X228146040Y-151551945D01*
G37*
%TD.AperFunction*%
%TA.AperFunction,NonConductor*%
G36*
X224569004Y-151266416D02*
G01*
X224577544Y-151280813D01*
X224585812Y-151295065D01*
X224601608Y-151323136D01*
X224616536Y-151350628D01*
X224630740Y-151377541D01*
X224637179Y-151391796D01*
X224643762Y-151406793D01*
X224650491Y-151422550D01*
X224657364Y-151439084D01*
X224657678Y-151439860D01*
X224658521Y-151437733D01*
X224665466Y-151421088D01*
X224672412Y-151405274D01*
X224679357Y-151390256D01*
X224686302Y-151375998D01*
X224700265Y-151349108D01*
X224714662Y-151321785D01*
X224722159Y-151308006D01*
X224729928Y-151294173D01*
X224738021Y-151280303D01*
X224746495Y-151266416D01*
X224954854Y-150906803D01*
X225153953Y-150906803D01*
X224741865Y-151582813D01*
X224741865Y-152030399D01*
X224570547Y-152030399D01*
X224570547Y-151582813D01*
X224156915Y-150906803D01*
X224357558Y-150906803D01*
X224569004Y-151266416D01*
G37*
%TD.AperFunction*%
%TA.AperFunction,NonConductor*%
G36*
X229046964Y-150425000D02*
G01*
X228676546Y-150425000D01*
X228468746Y-149832332D01*
X227585117Y-149832332D01*
X227383170Y-150425000D01*
X227012753Y-150425000D01*
X227325738Y-149545259D01*
X227682934Y-149545259D01*
X228368093Y-149545259D01*
X228238218Y-149174841D01*
X228212173Y-149095452D01*
X228184971Y-149009697D01*
X228156610Y-148916996D01*
X228127093Y-148816771D01*
X228060726Y-148589505D01*
X228023781Y-148461257D01*
X228020985Y-148451255D01*
X227982013Y-148593749D01*
X227917189Y-148822945D01*
X227887720Y-148923073D01*
X227859697Y-149015099D01*
X227833411Y-149099021D01*
X227809151Y-149174841D01*
X227682934Y-149545259D01*
X227325738Y-149545259D01*
X227812238Y-148177801D01*
X228235131Y-148177801D01*
X229046964Y-150425000D01*
G37*
%TD.AperFunction*%
%TA.AperFunction,NonConductor*%
G36*
X227462347Y-152030399D02*
G01*
X227277139Y-152030399D01*
X227173239Y-151734066D01*
X226731426Y-151734066D01*
X226630453Y-152030399D01*
X226445244Y-152030399D01*
X226601736Y-151590530D01*
X226780334Y-151590530D01*
X227122913Y-151590530D01*
X227057975Y-151405322D01*
X227044953Y-151365628D01*
X227031352Y-151322750D01*
X227017172Y-151276400D01*
X227002413Y-151226287D01*
X226969230Y-151112655D01*
X226950757Y-151048531D01*
X226949359Y-151043530D01*
X226929873Y-151114777D01*
X226897461Y-151229374D01*
X226882726Y-151279438D01*
X226868715Y-151325451D01*
X226855572Y-151367412D01*
X226843442Y-151405322D01*
X226780334Y-151590530D01*
X226601736Y-151590530D01*
X226844986Y-150906803D01*
X227056432Y-150906803D01*
X227462347Y-152030399D01*
G37*
%TD.AperFunction*%
%TA.AperFunction,NonConductor*%
G36*
X225961603Y-151575096D02*
G01*
X225972311Y-151593062D01*
X225983597Y-151612330D01*
X225995462Y-151633046D01*
X226007905Y-151655353D01*
X226014854Y-151667076D01*
X226021820Y-151679107D01*
X226035879Y-151704163D01*
X226050228Y-151730666D01*
X226065011Y-151758761D01*
X226079143Y-151788278D01*
X226093564Y-151818953D01*
X226096504Y-151825442D01*
X226096072Y-151820497D01*
X226091249Y-151757217D01*
X226088934Y-151696253D01*
X226086619Y-151639918D01*
X226085727Y-151613271D01*
X226085268Y-151588794D01*
X226085100Y-151566342D01*
X226085075Y-151545771D01*
X226085075Y-150906803D01*
X226259480Y-150906803D01*
X226259480Y-152030399D01*
X226060381Y-152030399D01*
X225680704Y-151433103D01*
X225650801Y-151383136D01*
X225636211Y-151358658D01*
X225622055Y-151334326D01*
X225606934Y-151308232D01*
X225591379Y-151280692D01*
X225557232Y-151220114D01*
X225538976Y-151185074D01*
X225518840Y-151146995D01*
X225502331Y-151116258D01*
X225506300Y-151215483D01*
X225508349Y-151250475D01*
X225509965Y-151283586D01*
X225512473Y-151343586D01*
X225514595Y-151393361D01*
X225515295Y-151413907D01*
X225515560Y-151431560D01*
X225515560Y-152030399D01*
X225341155Y-152030399D01*
X225341155Y-150906803D01*
X225538711Y-150906803D01*
X225961603Y-151575096D01*
G37*
%TD.AperFunction*%
%TA.AperFunction,NonConductor*%
G36*
X225996914Y-148897028D02*
G01*
X226013994Y-148925822D01*
X226030531Y-148954327D01*
X226062123Y-149010468D01*
X226091978Y-149065452D01*
X226120386Y-149119278D01*
X226133264Y-149147789D01*
X226146431Y-149177783D01*
X226159888Y-149209297D01*
X226173634Y-149242365D01*
X226174262Y-149243917D01*
X226175949Y-149239664D01*
X226189839Y-149206373D01*
X226203730Y-149174745D01*
X226217621Y-149144708D01*
X226231511Y-149116191D01*
X226259437Y-149062414D01*
X226288232Y-149007767D01*
X226303226Y-148980209D01*
X226318762Y-148952543D01*
X226334950Y-148924804D01*
X226351897Y-148897028D01*
X226768617Y-148177801D01*
X227166816Y-148177801D01*
X226342637Y-149529824D01*
X226342637Y-150425000D01*
X226000000Y-150425000D01*
X226000000Y-149529824D01*
X225172734Y-148177801D01*
X225574020Y-148177801D01*
X225996914Y-148897028D01*
G37*
%TD.AperFunction*%
%TA.AperFunction,NonConductor*%
G36*
X231077866Y-150893058D02*
G01*
X231091772Y-150893497D01*
X231105493Y-150894235D01*
X231119026Y-150895276D01*
X231132369Y-150896624D01*
X231145520Y-150898284D01*
X231158476Y-150900261D01*
X231171236Y-150902559D01*
X231183797Y-150905182D01*
X231196156Y-150908136D01*
X231208313Y-150911424D01*
X231220263Y-150915051D01*
X231232005Y-150919022D01*
X231243538Y-150923341D01*
X231254857Y-150928012D01*
X231265962Y-150933041D01*
X231276814Y-150938087D01*
X231287374Y-150943384D01*
X231297640Y-150948929D01*
X231307610Y-150954721D01*
X231317282Y-150960757D01*
X231326652Y-150967035D01*
X231335720Y-150973553D01*
X231344483Y-150980308D01*
X231352938Y-150987298D01*
X231361083Y-150994521D01*
X231368917Y-151001975D01*
X231376436Y-151009657D01*
X231383639Y-151017565D01*
X231390523Y-151025697D01*
X231397085Y-151034050D01*
X231403325Y-151042623D01*
X231409510Y-151051649D01*
X231415331Y-151060788D01*
X231420786Y-151070044D01*
X231425873Y-151079423D01*
X231430589Y-151088929D01*
X231434931Y-151098565D01*
X231438899Y-151108337D01*
X231442488Y-151118249D01*
X231445698Y-151128306D01*
X231448526Y-151138513D01*
X231450970Y-151148873D01*
X231453027Y-151159391D01*
X231454695Y-151170072D01*
X231455972Y-151180920D01*
X231456856Y-151191940D01*
X231457344Y-151203136D01*
X231289113Y-151203136D01*
X231287756Y-151193714D01*
X231285999Y-151184546D01*
X231283839Y-151175637D01*
X231281275Y-151166987D01*
X231278304Y-151158600D01*
X231274924Y-151150477D01*
X231271132Y-151142621D01*
X231266927Y-151135034D01*
X231262305Y-151127718D01*
X231257265Y-151120676D01*
X231251805Y-151113910D01*
X231245922Y-151107422D01*
X231239614Y-151101214D01*
X231232879Y-151095288D01*
X231225714Y-151089648D01*
X231218117Y-151084295D01*
X231210159Y-151078977D01*
X231201917Y-151074019D01*
X231193394Y-151069417D01*
X231184596Y-151065171D01*
X231175526Y-151061278D01*
X231166190Y-151057734D01*
X231156591Y-151054540D01*
X231146734Y-151051691D01*
X231136625Y-151049185D01*
X231126266Y-151047021D01*
X231115663Y-151045196D01*
X231104821Y-151043708D01*
X231093744Y-151042555D01*
X231082435Y-151041734D01*
X231070901Y-151041243D01*
X231059145Y-151041080D01*
X231050808Y-151041170D01*
X231042584Y-151041438D01*
X231034478Y-151041883D01*
X231026493Y-151042502D01*
X231018635Y-151043293D01*
X231010909Y-151044254D01*
X231003318Y-151045382D01*
X230995867Y-151046674D01*
X230988560Y-151048130D01*
X230981403Y-151049746D01*
X230974400Y-151051520D01*
X230967555Y-151053451D01*
X230960872Y-151055535D01*
X230954357Y-151057770D01*
X230948014Y-151060155D01*
X230941847Y-151062687D01*
X230935572Y-151065363D01*
X230929479Y-151068182D01*
X230923572Y-151071141D01*
X230917852Y-151074238D01*
X230912323Y-151077471D01*
X230906985Y-151080837D01*
X230901842Y-151084334D01*
X230896896Y-151087960D01*
X230892149Y-151091713D01*
X230887602Y-151095590D01*
X230883260Y-151099589D01*
X230879123Y-151103708D01*
X230875194Y-151107944D01*
X230871475Y-151112296D01*
X230867969Y-151116761D01*
X230864677Y-151121336D01*
X230861313Y-151126003D01*
X230858166Y-151130744D01*
X230855236Y-151135563D01*
X230852523Y-151140460D01*
X230850027Y-151145439D01*
X230847748Y-151150501D01*
X230845686Y-151155649D01*
X230843841Y-151160886D01*
X230842213Y-151166213D01*
X230840803Y-151171632D01*
X230839609Y-151177147D01*
X230838632Y-151182759D01*
X230837872Y-151188470D01*
X230837330Y-151194283D01*
X230837004Y-151200200D01*
X230836896Y-151206223D01*
X230837022Y-151212789D01*
X230837402Y-151219179D01*
X230838035Y-151225397D01*
X230838922Y-151231448D01*
X230840061Y-151237336D01*
X230841454Y-151243066D01*
X230843100Y-151248642D01*
X230844999Y-151254069D01*
X230847151Y-151259351D01*
X230849557Y-151264493D01*
X230852216Y-151269499D01*
X230855128Y-151274374D01*
X230858293Y-151279122D01*
X230861711Y-151283749D01*
X230865383Y-151288258D01*
X230869308Y-151292654D01*
X230873414Y-151296651D01*
X230877631Y-151300539D01*
X230881961Y-151304320D01*
X230886406Y-151307991D01*
X230890969Y-151311554D01*
X230895651Y-151315009D01*
X230900456Y-151318355D01*
X230905385Y-151321592D01*
X230910440Y-151324722D01*
X230915625Y-151327742D01*
X230920940Y-151330654D01*
X230926389Y-151333457D01*
X230931974Y-151336152D01*
X230937697Y-151338739D01*
X230943559Y-151341217D01*
X230949564Y-151343586D01*
X230961134Y-151348584D01*
X230972667Y-151353184D01*
X230984128Y-151357422D01*
X230995481Y-151361335D01*
X231006689Y-151364959D01*
X231017715Y-151368329D01*
X231039082Y-151374454D01*
X231148664Y-151403779D01*
X231175552Y-151411062D01*
X231189169Y-151415011D01*
X231202875Y-151419213D01*
X231216654Y-151423704D01*
X231230488Y-151428521D01*
X231244357Y-151433700D01*
X231258245Y-151439277D01*
X231272503Y-151445282D01*
X231286364Y-151451720D01*
X231299863Y-151458593D01*
X231313036Y-151465900D01*
X231325920Y-151473641D01*
X231338550Y-151481817D01*
X231350963Y-151490426D01*
X231363196Y-151499469D01*
X231369201Y-151504155D01*
X231375061Y-151508953D01*
X231380776Y-151513869D01*
X231386347Y-151518907D01*
X231391773Y-151524071D01*
X231397054Y-151529367D01*
X231402191Y-151534798D01*
X231407183Y-151540370D01*
X231412030Y-151546086D01*
X231416733Y-151551951D01*
X231421291Y-151557970D01*
X231425704Y-151564148D01*
X231429972Y-151570488D01*
X231434096Y-151576995D01*
X231438075Y-151583674D01*
X231441910Y-151590530D01*
X231445546Y-151597276D01*
X231448930Y-151604204D01*
X231452067Y-151611312D01*
X231454956Y-151618601D01*
X231457602Y-151626070D01*
X231460006Y-151633721D01*
X231462170Y-151641553D01*
X231464096Y-151649565D01*
X231465788Y-151657758D01*
X231467247Y-151666133D01*
X231468475Y-151674688D01*
X231469474Y-151683424D01*
X231470248Y-151692340D01*
X231470798Y-151701438D01*
X231471126Y-151710717D01*
X231471235Y-151720176D01*
X231471054Y-151731968D01*
X231470508Y-151743613D01*
X231469597Y-151755109D01*
X231468317Y-151766454D01*
X231466666Y-151777644D01*
X231464642Y-151788679D01*
X231462243Y-151799556D01*
X231459466Y-151810272D01*
X231456309Y-151820825D01*
X231452771Y-151831213D01*
X231448848Y-151841434D01*
X231444538Y-151851485D01*
X231439840Y-151861365D01*
X231434750Y-151871070D01*
X231429267Y-151880599D01*
X231423389Y-151889950D01*
X231416877Y-151899084D01*
X231410071Y-151907967D01*
X231402967Y-151916602D01*
X231395559Y-151924990D01*
X231387845Y-151933134D01*
X231379818Y-151941036D01*
X231371475Y-151948698D01*
X231362810Y-151956123D01*
X231353821Y-151963313D01*
X231344501Y-151970270D01*
X231334846Y-151976996D01*
X231324853Y-151983494D01*
X231314515Y-151989766D01*
X231303830Y-151995814D01*
X231292792Y-152001641D01*
X231281396Y-152007248D01*
X231269404Y-152012294D01*
X231257154Y-152017015D01*
X231244642Y-152021410D01*
X231231863Y-152025479D01*
X231218812Y-152029223D01*
X231205486Y-152032642D01*
X231191880Y-152035735D01*
X231177988Y-152038502D01*
X231163807Y-152040944D01*
X231149333Y-152043060D01*
X231134560Y-152044851D01*
X231119483Y-152046316D01*
X231104100Y-152047455D01*
X231088404Y-152048269D01*
X231072392Y-152048758D01*
X231056059Y-152048920D01*
X231040287Y-152048758D01*
X231024802Y-152048272D01*
X231009602Y-152047465D01*
X230994685Y-152046340D01*
X230980048Y-152044898D01*
X230965689Y-152043141D01*
X230951606Y-152041073D01*
X230937796Y-152038695D01*
X230924258Y-152036009D01*
X230910988Y-152033019D01*
X230897986Y-152029725D01*
X230885248Y-152026130D01*
X230872772Y-152022238D01*
X230860556Y-152018049D01*
X230848598Y-152013566D01*
X230836896Y-152008791D01*
X230825483Y-152003727D01*
X230814393Y-151998376D01*
X230803624Y-151992741D01*
X230793174Y-151986822D01*
X230783041Y-151980623D01*
X230773222Y-151974146D01*
X230763714Y-151967394D01*
X230754517Y-151960367D01*
X230745627Y-151953070D01*
X230737042Y-151945503D01*
X230728760Y-151937670D01*
X230720779Y-151929572D01*
X230713097Y-151921211D01*
X230705710Y-151912591D01*
X230698618Y-151903713D01*
X230691817Y-151894579D01*
X230685614Y-151885210D01*
X230679741Y-151875625D01*
X230674202Y-151865822D01*
X230669003Y-151855802D01*
X230664147Y-151845565D01*
X230659640Y-151835111D01*
X230655485Y-151824439D01*
X230651688Y-151813551D01*
X230648252Y-151802446D01*
X230645182Y-151791124D01*
X230642484Y-151779585D01*
X230640160Y-151767828D01*
X230638217Y-151755855D01*
X230636657Y-151743664D01*
X230635487Y-151731257D01*
X230634710Y-151718632D01*
X230806028Y-151718632D01*
X230806987Y-151726084D01*
X230808132Y-151733388D01*
X230809467Y-151740543D01*
X230810996Y-151747547D01*
X230812724Y-151754397D01*
X230814655Y-151761091D01*
X230816795Y-151767627D01*
X230819147Y-151774002D01*
X230821716Y-151780214D01*
X230824507Y-151786261D01*
X230827523Y-151792141D01*
X230830771Y-151797852D01*
X230834253Y-151803391D01*
X230837975Y-151808755D01*
X230841941Y-151813943D01*
X230846156Y-151818953D01*
X230850570Y-151824072D01*
X230855130Y-151829009D01*
X230859840Y-151833766D01*
X230864701Y-151838342D01*
X230869716Y-151842737D01*
X230874887Y-151846951D01*
X230880216Y-151850985D01*
X230885706Y-151854837D01*
X230891359Y-151858509D01*
X230897176Y-151862000D01*
X230903161Y-151865309D01*
X230909315Y-151868438D01*
X230915641Y-151871387D01*
X230922142Y-151874154D01*
X230928818Y-151876740D01*
X230935674Y-151879146D01*
X230942638Y-151881660D01*
X230949642Y-151883996D01*
X230956693Y-151886155D01*
X230963792Y-151888141D01*
X230970946Y-151889954D01*
X230978159Y-151891598D01*
X230985436Y-151893075D01*
X230992780Y-151894386D01*
X231000196Y-151895535D01*
X231007689Y-151896524D01*
X231015264Y-151897354D01*
X231022924Y-151898028D01*
X231030675Y-151898548D01*
X231038521Y-151898917D01*
X231054516Y-151899210D01*
X231063415Y-151899119D01*
X231072172Y-151898848D01*
X231080788Y-151898396D01*
X231089267Y-151897763D01*
X231097610Y-151896949D01*
X231105819Y-151895954D01*
X231113898Y-151894778D01*
X231121847Y-151893422D01*
X231129670Y-151891884D01*
X231137368Y-151890166D01*
X231144945Y-151888267D01*
X231152401Y-151886187D01*
X231159740Y-151883926D01*
X231166964Y-151881485D01*
X231174075Y-151878862D01*
X231181075Y-151876059D01*
X231188201Y-151873110D01*
X231195110Y-151870048D01*
X231201802Y-151866869D01*
X231208277Y-151863567D01*
X231214535Y-151860139D01*
X231220576Y-151856579D01*
X231226400Y-151852884D01*
X231232007Y-151849049D01*
X231237397Y-151845070D01*
X231242570Y-151840940D01*
X231247526Y-151836658D01*
X231252264Y-151832217D01*
X231256786Y-151827613D01*
X231261091Y-151822842D01*
X231265178Y-151817899D01*
X231269049Y-151812779D01*
X231272974Y-151807534D01*
X231276645Y-151802214D01*
X231280064Y-151796817D01*
X231283229Y-151791341D01*
X231286141Y-151785783D01*
X231288800Y-151780142D01*
X231291205Y-151774415D01*
X231293357Y-151768600D01*
X231295256Y-151762694D01*
X231296902Y-151756696D01*
X231298295Y-151750602D01*
X231299435Y-151744412D01*
X231300321Y-151738122D01*
X231300954Y-151731730D01*
X231301334Y-151725234D01*
X231301460Y-151718632D01*
X231301352Y-151712356D01*
X231301026Y-151706255D01*
X231300484Y-151700326D01*
X231299724Y-151694565D01*
X231298747Y-151688966D01*
X231297553Y-151683526D01*
X231296143Y-151678239D01*
X231294515Y-151673102D01*
X231292670Y-151668109D01*
X231290608Y-151663256D01*
X231288329Y-151658540D01*
X231285833Y-151653954D01*
X231283120Y-151649495D01*
X231280190Y-151645158D01*
X231277043Y-151640938D01*
X231273679Y-151636832D01*
X231270133Y-151633106D01*
X231266441Y-151629453D01*
X231262600Y-151625871D01*
X231258607Y-151622362D01*
X231254460Y-151618926D01*
X231250157Y-151615562D01*
X231245696Y-151612270D01*
X231241074Y-151609051D01*
X231236290Y-151605903D01*
X231231341Y-151602829D01*
X231226224Y-151599826D01*
X231220938Y-151596896D01*
X231215480Y-151594039D01*
X231209848Y-151591253D01*
X231204039Y-151588540D01*
X231198052Y-151585900D01*
X231185747Y-151580763D01*
X231173117Y-151575771D01*
X231160125Y-151570924D01*
X231146734Y-151566221D01*
X231132910Y-151561664D01*
X231118615Y-151557250D01*
X231103814Y-151552982D01*
X231088470Y-151548858D01*
X230957281Y-151513360D01*
X230940425Y-151508585D01*
X230924008Y-151503524D01*
X230908034Y-151498177D01*
X230892507Y-151492548D01*
X230877432Y-151486639D01*
X230862814Y-151480451D01*
X230848658Y-151473988D01*
X230834967Y-151467251D01*
X230821746Y-151460243D01*
X230809000Y-151452965D01*
X230796734Y-151445421D01*
X230784951Y-151437613D01*
X230773657Y-151429542D01*
X230762855Y-151421211D01*
X230752551Y-151412623D01*
X230742749Y-151403779D01*
X230733235Y-151394373D01*
X230724367Y-151384673D01*
X230716141Y-151374675D01*
X230708553Y-151364374D01*
X230701597Y-151353765D01*
X230695271Y-151342844D01*
X230689568Y-151331607D01*
X230684485Y-151320049D01*
X230680017Y-151308165D01*
X230676159Y-151295951D01*
X230672907Y-151283403D01*
X230670257Y-151270515D01*
X230668203Y-151257284D01*
X230666742Y-151243705D01*
X230665869Y-151229773D01*
X230665578Y-151215483D01*
X230665778Y-151203420D01*
X230666377Y-151191540D01*
X230667379Y-151179845D01*
X230668786Y-151168337D01*
X230670599Y-151157020D01*
X230672822Y-151145895D01*
X230675456Y-151134964D01*
X230678504Y-151124230D01*
X230681968Y-151113695D01*
X230685851Y-151103361D01*
X230690153Y-151093231D01*
X230694879Y-151083306D01*
X230700029Y-151073589D01*
X230705607Y-151064083D01*
X230711614Y-151054789D01*
X230718053Y-151045710D01*
X230724583Y-151036848D01*
X230731435Y-151028208D01*
X230738608Y-151019794D01*
X230746101Y-151011610D01*
X230753909Y-151003662D01*
X230762032Y-150995953D01*
X230770467Y-150988489D01*
X230779212Y-150981273D01*
X230788264Y-150974310D01*
X230797621Y-150967605D01*
X230807281Y-150961162D01*
X230817242Y-150954986D01*
X230827501Y-150949082D01*
X230838057Y-150943453D01*
X230848906Y-150938105D01*
X230860047Y-150933041D01*
X230871424Y-150928012D01*
X230882981Y-150923341D01*
X230894719Y-150919022D01*
X230906638Y-150915051D01*
X230918738Y-150911424D01*
X230931019Y-150908136D01*
X230943481Y-150905182D01*
X230956124Y-150902559D01*
X230968947Y-150900261D01*
X230981952Y-150898284D01*
X230995137Y-150896624D01*
X231008503Y-150895276D01*
X231022050Y-150894235D01*
X231035778Y-150893497D01*
X231049687Y-150893058D01*
X231063776Y-150892913D01*
X231077866Y-150893058D01*
G37*
%TD.AperFunction*%
%TA.AperFunction,NonConductor*%
G36*
X229253585Y-152030399D02*
G01*
X229080724Y-152030399D01*
X229080724Y-150906803D01*
X229253585Y-150906803D01*
X229253585Y-152030399D01*
G37*
%TD.AperFunction*%
%TA.AperFunction,NonConductor*%
G36*
X223558569Y-150907074D02*
G01*
X223578811Y-150907886D01*
X223598659Y-150909235D01*
X223618116Y-150911120D01*
X223637185Y-150913539D01*
X223655866Y-150916489D01*
X223674164Y-150919968D01*
X223692079Y-150923974D01*
X223709615Y-150928504D01*
X223726772Y-150933557D01*
X223743555Y-150939130D01*
X223759965Y-150945220D01*
X223776003Y-150951826D01*
X223791674Y-150958945D01*
X223806978Y-150966575D01*
X223821918Y-150974713D01*
X223836460Y-150983340D01*
X223850570Y-150992435D01*
X223864251Y-151001996D01*
X223877504Y-151012020D01*
X223890333Y-151022506D01*
X223902738Y-151033450D01*
X223914724Y-151044851D01*
X223926290Y-151056706D01*
X223937441Y-151069014D01*
X223948178Y-151081772D01*
X223958504Y-151094977D01*
X223968420Y-151108627D01*
X223977930Y-151122721D01*
X223987035Y-151137256D01*
X223995737Y-151152229D01*
X224004039Y-151167638D01*
X224011617Y-151183464D01*
X224018723Y-151199685D01*
X224025353Y-151216300D01*
X224031507Y-151233305D01*
X224037181Y-151250700D01*
X224042374Y-151268481D01*
X224047083Y-151286646D01*
X224051306Y-151305194D01*
X224055041Y-151324121D01*
X224058285Y-151343426D01*
X224061036Y-151363106D01*
X224063292Y-151383160D01*
X224065050Y-151403584D01*
X224066309Y-151424376D01*
X224067066Y-151445535D01*
X224067319Y-151467058D01*
X224067066Y-151488853D01*
X224066309Y-151510252D01*
X224065050Y-151531258D01*
X224063292Y-151551872D01*
X224061036Y-151572098D01*
X224058285Y-151591938D01*
X224055041Y-151611392D01*
X224051306Y-151630465D01*
X224047083Y-151649158D01*
X224042374Y-151667474D01*
X224037181Y-151685414D01*
X224031507Y-151702981D01*
X224025353Y-151720177D01*
X224018723Y-151737005D01*
X224011617Y-151753466D01*
X224004039Y-151769564D01*
X223995719Y-151784974D01*
X223986965Y-151799947D01*
X223977777Y-151814481D01*
X223968155Y-151828575D01*
X223958099Y-151842226D01*
X223947609Y-151855431D01*
X223936684Y-151868188D01*
X223925326Y-151880496D01*
X223913533Y-151892351D01*
X223901307Y-151903753D01*
X223888646Y-151914697D01*
X223875551Y-151925182D01*
X223862022Y-151935207D01*
X223848059Y-151944767D01*
X223833662Y-151953862D01*
X223818831Y-151962489D01*
X223803584Y-151970628D01*
X223787939Y-151978258D01*
X223771896Y-151985377D01*
X223755455Y-151991983D01*
X223738616Y-151998073D01*
X223721380Y-152003646D01*
X223703745Y-152008698D01*
X223685713Y-152013229D01*
X223667282Y-152017235D01*
X223648454Y-152020714D01*
X223629228Y-152023664D01*
X223609604Y-152026083D01*
X223589582Y-152027968D01*
X223569162Y-152029317D01*
X223548344Y-152030128D01*
X223527128Y-152030399D01*
X223249316Y-152030399D01*
X223162885Y-152030399D01*
X223162885Y-151880689D01*
X223162885Y-151058057D01*
X223334203Y-151058057D01*
X223334203Y-151880689D01*
X223517868Y-151880689D01*
X223533621Y-151880491D01*
X223549046Y-151879899D01*
X223564141Y-151878919D01*
X223578904Y-151877554D01*
X223593333Y-151875810D01*
X223607424Y-151873690D01*
X223621176Y-151871199D01*
X223634587Y-151868342D01*
X223647655Y-151865123D01*
X223660376Y-151861547D01*
X223672749Y-151857619D01*
X223684772Y-151853342D01*
X223696442Y-151848722D01*
X223707757Y-151843762D01*
X223718715Y-151838468D01*
X223729314Y-151832844D01*
X223739841Y-151826603D01*
X223750008Y-151820035D01*
X223759818Y-151813137D01*
X223769273Y-151805907D01*
X223778376Y-151798342D01*
X223787128Y-151790440D01*
X223795532Y-151782198D01*
X223803590Y-151773616D01*
X223811304Y-151764690D01*
X223818677Y-151755418D01*
X223825711Y-151745797D01*
X223832408Y-151735827D01*
X223838771Y-151725503D01*
X223844801Y-151714825D01*
X223850501Y-151703789D01*
X223855873Y-151692394D01*
X223860936Y-151680673D01*
X223865706Y-151668658D01*
X223870177Y-151656345D01*
X223874345Y-151643729D01*
X223878206Y-151630805D01*
X223881755Y-151617569D01*
X223884987Y-151604017D01*
X223887898Y-151590144D01*
X223890484Y-151575945D01*
X223892740Y-151561416D01*
X223894660Y-151546553D01*
X223896242Y-151531350D01*
X223897481Y-151515804D01*
X223898371Y-151499909D01*
X223898908Y-151483662D01*
X223899088Y-151467058D01*
X223898908Y-151450726D01*
X223898371Y-151434719D01*
X223897481Y-151419038D01*
X223896242Y-151403682D01*
X223894660Y-151388652D01*
X223892740Y-151373947D01*
X223890484Y-151359569D01*
X223887898Y-151345515D01*
X223884987Y-151331787D01*
X223881755Y-151318385D01*
X223878206Y-151305308D01*
X223874345Y-151292557D01*
X223870177Y-151280132D01*
X223865706Y-151268031D01*
X223860936Y-151256257D01*
X223855873Y-151244808D01*
X223850501Y-151233414D01*
X223844807Y-151222381D01*
X223838791Y-151211710D01*
X223832456Y-151201400D01*
X223825805Y-151191452D01*
X223818840Y-151181866D01*
X223811563Y-151172642D01*
X223803976Y-151163780D01*
X223796081Y-151155279D01*
X223787882Y-151147140D01*
X223779379Y-151139363D01*
X223770576Y-151131947D01*
X223761474Y-151124893D01*
X223752076Y-151118201D01*
X223742384Y-151111871D01*
X223732401Y-151105902D01*
X223721837Y-151100024D01*
X223710983Y-151094541D01*
X223699834Y-151089451D01*
X223688389Y-151084753D01*
X223676646Y-151080443D01*
X223664602Y-151076520D01*
X223652256Y-151072982D01*
X223639603Y-151069825D01*
X223626644Y-151067049D01*
X223613375Y-151064650D01*
X223599793Y-151062626D01*
X223585898Y-151060975D01*
X223571686Y-151059695D01*
X223557155Y-151058783D01*
X223542303Y-151058238D01*
X223527128Y-151058057D01*
X223334203Y-151058057D01*
X223162885Y-151058057D01*
X223162885Y-150906803D01*
X223334203Y-150906803D01*
X223537932Y-150906803D01*
X223558569Y-150907074D01*
G37*
%TD.AperFunction*%
%TA.AperFunction,NonConductor*%
G36*
X230537863Y-149514390D02*
G01*
X230559278Y-149550323D01*
X230581850Y-149588860D01*
X230605580Y-149630290D01*
X230630467Y-149674905D01*
X230644364Y-149698351D01*
X230658297Y-149722412D01*
X230686416Y-149772525D01*
X230715113Y-149825531D01*
X230744679Y-149881721D01*
X230772943Y-149940756D01*
X230801785Y-150002107D01*
X230807664Y-150015085D01*
X230806801Y-150005193D01*
X230797155Y-149878634D01*
X230792525Y-149756705D01*
X230787894Y-149644036D01*
X230786110Y-149590741D01*
X230785194Y-149541786D01*
X230784857Y-149496882D01*
X230784808Y-149455741D01*
X230784808Y-148177801D01*
X231133618Y-148177801D01*
X231133618Y-150425000D01*
X230735419Y-150425000D01*
X229976063Y-149230404D01*
X229916255Y-149130468D01*
X229887076Y-149081513D01*
X229858764Y-149032848D01*
X229828522Y-148980661D01*
X229797412Y-148925581D01*
X229729117Y-148804424D01*
X229692606Y-148734344D01*
X229652333Y-148658186D01*
X229619314Y-148596712D01*
X229627252Y-148795163D01*
X229631352Y-148865147D01*
X229634583Y-148931369D01*
X229639600Y-149051369D01*
X229643844Y-149150918D01*
X229645242Y-149192012D01*
X229645773Y-149227317D01*
X229645773Y-150425000D01*
X229296963Y-150425000D01*
X229296963Y-148177801D01*
X229692075Y-148177801D01*
X230537863Y-149514390D01*
G37*
%TD.AperFunction*%
%TA.AperFunction,NonConductor*%
G36*
X224337215Y-148178163D02*
G01*
X224368644Y-148179248D01*
X224399414Y-148181057D01*
X224429519Y-148183589D01*
X224458954Y-148186844D01*
X224487716Y-148190824D01*
X224515799Y-148195526D01*
X224543200Y-148200952D01*
X224569914Y-148207102D01*
X224595935Y-148213975D01*
X224621261Y-148221571D01*
X224645885Y-148229891D01*
X224669804Y-148238934D01*
X224693013Y-148248701D01*
X224715508Y-148259192D01*
X224737284Y-148270405D01*
X224758916Y-148281691D01*
X224779824Y-148293550D01*
X224800009Y-148305980D01*
X224819470Y-148318974D01*
X224838208Y-148332530D01*
X224856222Y-148346641D01*
X224873513Y-148361304D01*
X224890081Y-148376515D01*
X224905925Y-148392267D01*
X224921046Y-148408558D01*
X224935443Y-148425383D01*
X224949116Y-148442736D01*
X224962066Y-148460615D01*
X224974293Y-148479013D01*
X224985796Y-148497926D01*
X224996576Y-148517351D01*
X225007212Y-148537754D01*
X225017129Y-148558456D01*
X225026331Y-148579465D01*
X225034824Y-148600791D01*
X225042611Y-148622442D01*
X225049697Y-148644428D01*
X225056087Y-148666758D01*
X225061785Y-148689440D01*
X225066796Y-148712484D01*
X225071124Y-148735899D01*
X225074774Y-148759694D01*
X225077750Y-148783877D01*
X225080057Y-148808459D01*
X225081699Y-148833447D01*
X225082681Y-148858851D01*
X225083007Y-148884681D01*
X225082681Y-148910510D01*
X225081699Y-148935909D01*
X225080057Y-148960883D01*
X225077750Y-148985436D01*
X225074774Y-149009574D01*
X225071124Y-149033300D01*
X225066796Y-149056619D01*
X225061785Y-149079536D01*
X225056087Y-149102055D01*
X225049697Y-149124180D01*
X225042611Y-149145917D01*
X225034824Y-149167269D01*
X225026331Y-149188241D01*
X225017129Y-149208838D01*
X225007212Y-149229065D01*
X224996576Y-149248925D01*
X224985254Y-149268314D01*
X224973280Y-149287124D01*
X224960656Y-149305355D01*
X224947380Y-149323008D01*
X224933453Y-149340082D01*
X224918875Y-149356577D01*
X224903646Y-149372493D01*
X224887766Y-149387831D01*
X224871235Y-149402590D01*
X224854052Y-149416770D01*
X224836218Y-149430371D01*
X224817734Y-149443394D01*
X224798598Y-149455837D01*
X224778811Y-149467702D01*
X224758373Y-149478988D01*
X224737284Y-149489696D01*
X224715507Y-149500332D01*
X224693007Y-149510248D01*
X224673249Y-149518078D01*
X225169438Y-150425000D01*
X224777412Y-150425000D01*
X224323190Y-149575915D01*
X224302043Y-149576127D01*
X223845194Y-149576127D01*
X223845194Y-150425000D01*
X223502558Y-150425000D01*
X223502558Y-149282880D01*
X223502558Y-148474135D01*
X223845194Y-148474135D01*
X223845194Y-149282880D01*
X224268088Y-149282880D01*
X224308747Y-149282156D01*
X224347380Y-149279986D01*
X224365937Y-149278358D01*
X224383988Y-149276368D01*
X224401532Y-149274017D01*
X224418570Y-149271304D01*
X224435101Y-149268229D01*
X224451126Y-149264793D01*
X224466645Y-149260995D01*
X224481657Y-149256835D01*
X224496162Y-149252313D01*
X224510162Y-149247430D01*
X224523654Y-149242184D01*
X224536641Y-149236578D01*
X224549158Y-149230100D01*
X224561245Y-149223392D01*
X224572907Y-149216440D01*
X224584149Y-149209230D01*
X224594974Y-149201749D01*
X224605389Y-149193983D01*
X224615396Y-149185919D01*
X224625001Y-149177542D01*
X224634208Y-149168840D01*
X224643021Y-149159799D01*
X224651446Y-149150405D01*
X224659486Y-149140645D01*
X224667147Y-149130505D01*
X224674432Y-149119972D01*
X224681346Y-149109031D01*
X224687894Y-149097671D01*
X224693501Y-149086529D01*
X224698747Y-149075099D01*
X224703630Y-149063378D01*
X224708152Y-149051369D01*
X224712312Y-149039070D01*
X224716110Y-149026481D01*
X224719546Y-149013604D01*
X224722621Y-149000436D01*
X224725334Y-148986980D01*
X224727686Y-148973234D01*
X224729675Y-148959198D01*
X224731303Y-148944874D01*
X224732569Y-148930260D01*
X224733473Y-148915356D01*
X224734016Y-148900163D01*
X224734197Y-148884681D01*
X224734016Y-148869163D01*
X224733473Y-148853867D01*
X224732569Y-148838797D01*
X224731303Y-148823957D01*
X224729675Y-148809353D01*
X224727686Y-148794988D01*
X224725334Y-148780868D01*
X224722621Y-148766996D01*
X224719546Y-148753378D01*
X224716110Y-148740017D01*
X224712312Y-148726918D01*
X224708152Y-148714086D01*
X224703630Y-148701526D01*
X224698747Y-148689241D01*
X224693501Y-148677237D01*
X224687894Y-148665517D01*
X224681346Y-148654122D01*
X224674432Y-148643084D01*
X224667147Y-148632398D01*
X224659486Y-148622061D01*
X224651446Y-148612067D01*
X224643021Y-148602413D01*
X224634208Y-148593093D01*
X224625001Y-148584103D01*
X224615396Y-148575438D01*
X224605389Y-148567095D01*
X224594974Y-148559068D01*
X224584149Y-148551354D01*
X224572907Y-148543946D01*
X224561245Y-148536842D01*
X224549158Y-148530036D01*
X224536641Y-148523524D01*
X224523654Y-148517374D01*
X224510162Y-148511653D01*
X224496162Y-148506357D01*
X224481657Y-148501482D01*
X224466645Y-148497023D01*
X224451126Y-148492975D01*
X224435101Y-148489335D01*
X224418570Y-148486096D01*
X224401532Y-148483256D01*
X224383988Y-148480809D01*
X224365937Y-148478751D01*
X224347380Y-148477077D01*
X224328317Y-148475783D01*
X224308747Y-148474864D01*
X224288671Y-148474316D01*
X224268088Y-148474135D01*
X223845194Y-148474135D01*
X223502558Y-148474135D01*
X223502558Y-148177801D01*
X224305129Y-148177801D01*
X224337215Y-148178163D01*
G37*
%TD.AperFunction*%
%TA.AperFunction,NonConductor*%
G36*
X230012335Y-150893277D02*
G01*
X230033894Y-150894384D01*
X230055164Y-150896250D01*
X230076145Y-150898893D01*
X230096836Y-150902333D01*
X230117238Y-150906586D01*
X230137350Y-150911672D01*
X230157173Y-150917607D01*
X230166940Y-150920881D01*
X230176562Y-150924336D01*
X230186040Y-150927971D01*
X230195372Y-150931787D01*
X230204560Y-150935785D01*
X230213604Y-150939963D01*
X230222503Y-150944322D01*
X230231256Y-150948861D01*
X230239866Y-150953582D01*
X230248330Y-150958484D01*
X230256650Y-150963566D01*
X230264825Y-150968829D01*
X230272856Y-150974273D01*
X230280742Y-150979898D01*
X230288483Y-150985704D01*
X230296079Y-150991691D01*
X230303802Y-150998113D01*
X230311345Y-151004650D01*
X230318706Y-151011309D01*
X230325887Y-151018097D01*
X230332886Y-151025021D01*
X230339705Y-151032087D01*
X230346343Y-151039303D01*
X230352800Y-151046674D01*
X230359076Y-151054209D01*
X230365171Y-151061912D01*
X230371085Y-151069793D01*
X230376819Y-151077856D01*
X230382371Y-151086109D01*
X230387743Y-151094559D01*
X230392934Y-151103212D01*
X230397944Y-151112076D01*
X230403044Y-151120830D01*
X230407928Y-151129731D01*
X230412594Y-151138782D01*
X230417044Y-151147984D01*
X230421276Y-151157340D01*
X230425291Y-151166851D01*
X230429089Y-151176521D01*
X230432671Y-151186352D01*
X230436035Y-151196345D01*
X230439182Y-151206503D01*
X230442112Y-151216829D01*
X230444825Y-151227324D01*
X230447321Y-151237991D01*
X230449600Y-151248832D01*
X230451662Y-151259850D01*
X230453506Y-151271046D01*
X230280646Y-151271046D01*
X230277535Y-151257882D01*
X230273990Y-151245025D01*
X230270011Y-151232494D01*
X230265598Y-151220307D01*
X230260751Y-151208481D01*
X230258164Y-151202709D01*
X230255469Y-151197035D01*
X230252666Y-151191460D01*
X230249754Y-151185987D01*
X230246733Y-151180618D01*
X230243604Y-151175355D01*
X230240095Y-151170472D01*
X230236511Y-151165661D01*
X230232850Y-151160922D01*
X230229111Y-151156256D01*
X230225289Y-151151661D01*
X230221385Y-151147140D01*
X230217394Y-151142690D01*
X230213315Y-151138313D01*
X230209146Y-151134009D01*
X230204883Y-151129777D01*
X230200526Y-151125617D01*
X230196072Y-151121529D01*
X230191518Y-151117514D01*
X230186863Y-151113571D01*
X230182103Y-151109700D01*
X230177238Y-151105902D01*
X230172554Y-151102483D01*
X230167766Y-151099171D01*
X230162879Y-151095962D01*
X230157897Y-151092856D01*
X230152825Y-151089848D01*
X230147666Y-151086938D01*
X230142426Y-151084123D01*
X230137109Y-151081401D01*
X230131720Y-151078769D01*
X230126263Y-151076225D01*
X230115164Y-151071393D01*
X230103848Y-151066886D01*
X230092351Y-151062687D01*
X230080190Y-151059431D01*
X230067994Y-151056610D01*
X230055725Y-151054222D01*
X230043347Y-151052269D01*
X230030825Y-151050750D01*
X230018123Y-151049665D01*
X230005203Y-151049013D01*
X229992030Y-151048796D01*
X229979965Y-151048995D01*
X229968080Y-151049589D01*
X229956370Y-151050577D01*
X229944835Y-151051956D01*
X229933472Y-151053723D01*
X229922278Y-151055877D01*
X229911252Y-151058416D01*
X229900390Y-151061337D01*
X229889691Y-151064637D01*
X229879153Y-151068315D01*
X229868773Y-151072368D01*
X229858549Y-151076795D01*
X229848479Y-151081592D01*
X229838560Y-151086757D01*
X229828791Y-151092289D01*
X229819168Y-151098185D01*
X229809745Y-151104443D01*
X229800575Y-151111060D01*
X229791658Y-151118034D01*
X229782995Y-151125364D01*
X229774585Y-151133045D01*
X229766428Y-151141078D01*
X229758524Y-151149458D01*
X229750873Y-151158185D01*
X229743475Y-151167255D01*
X229736331Y-151176666D01*
X229729440Y-151186417D01*
X229722802Y-151196505D01*
X229716418Y-151206927D01*
X229710286Y-151217681D01*
X229704408Y-151228766D01*
X229698783Y-151240178D01*
X229693465Y-151252188D01*
X229688507Y-151264492D01*
X229683905Y-151277095D01*
X229679659Y-151290001D01*
X229675766Y-151303214D01*
X229672223Y-151316739D01*
X229669028Y-151330581D01*
X229666179Y-151344743D01*
X229663673Y-151359232D01*
X229661509Y-151374050D01*
X229659684Y-151389203D01*
X229658196Y-151404695D01*
X229657043Y-151420531D01*
X229656222Y-151436714D01*
X229655731Y-151453251D01*
X229655568Y-151470145D01*
X229655731Y-151486784D01*
X229656222Y-151503129D01*
X229657043Y-151519175D01*
X229658196Y-151534919D01*
X229659684Y-151550356D01*
X229661509Y-151565480D01*
X229663673Y-151580288D01*
X229666179Y-151594774D01*
X229669028Y-151608935D01*
X229672223Y-151622767D01*
X229675766Y-151636263D01*
X229679659Y-151649420D01*
X229683905Y-151662234D01*
X229688507Y-151674700D01*
X229693465Y-151686812D01*
X229698783Y-151698568D01*
X229704408Y-151710252D01*
X229710286Y-151721571D01*
X229716418Y-151732525D01*
X229722802Y-151743110D01*
X229729440Y-151753324D01*
X229736331Y-151763165D01*
X229743475Y-151772630D01*
X229750873Y-151781719D01*
X229758524Y-151790427D01*
X229766428Y-151798753D01*
X229774585Y-151806695D01*
X229782995Y-151814251D01*
X229791658Y-151821417D01*
X229800575Y-151828192D01*
X229809745Y-151834574D01*
X229819168Y-151840561D01*
X229828791Y-151846439D01*
X229838560Y-151851922D01*
X229848479Y-151857012D01*
X229858549Y-151861710D01*
X229868773Y-151866020D01*
X229879153Y-151869943D01*
X229889691Y-151873481D01*
X229900390Y-151876638D01*
X229911252Y-151879415D01*
X229922278Y-151881814D01*
X229933472Y-151883838D01*
X229944835Y-151885488D01*
X229956370Y-151886768D01*
X229968080Y-151887680D01*
X229979965Y-151888225D01*
X229992030Y-151888406D01*
X230004757Y-151888189D01*
X230017447Y-151887538D01*
X230030066Y-151886453D01*
X230042576Y-151884934D01*
X230054941Y-151882980D01*
X230067125Y-151880593D01*
X230079093Y-151877771D01*
X230090807Y-151874516D01*
X230102813Y-151870316D01*
X230114513Y-151865810D01*
X230125886Y-151860978D01*
X230136916Y-151855802D01*
X230142297Y-151853079D01*
X230147585Y-151850264D01*
X230152777Y-151847354D01*
X230157873Y-151844347D01*
X230162869Y-151841240D01*
X230167763Y-151838032D01*
X230172554Y-151834719D01*
X230177238Y-151831300D01*
X230182103Y-151827773D01*
X230186863Y-151824138D01*
X230191518Y-151820394D01*
X230196072Y-151816541D01*
X230200526Y-151812580D01*
X230204883Y-151808511D01*
X230209146Y-151804333D01*
X230213315Y-151800046D01*
X230217394Y-151795651D01*
X230221385Y-151791148D01*
X230225289Y-151786536D01*
X230229111Y-151781815D01*
X230232850Y-151776986D01*
X230236511Y-151772048D01*
X230240095Y-151767002D01*
X230243604Y-151761848D01*
X230246733Y-151756602D01*
X230249754Y-151751279D01*
X230252666Y-151745875D01*
X230255469Y-151740385D01*
X230258164Y-151734804D01*
X230260751Y-151729129D01*
X230263228Y-151723354D01*
X230265598Y-151717475D01*
X230267859Y-151711487D01*
X230270011Y-151705387D01*
X230272055Y-151699169D01*
X230273990Y-151692829D01*
X230275817Y-151686362D01*
X230277535Y-151679764D01*
X230279145Y-151673030D01*
X230280646Y-151666157D01*
X230453506Y-151666157D01*
X230451934Y-151676520D01*
X230450112Y-151686775D01*
X230448047Y-151696922D01*
X230445742Y-151706960D01*
X230443201Y-151716890D01*
X230440430Y-151726711D01*
X230437433Y-151736423D01*
X230434214Y-151746027D01*
X230430779Y-151755523D01*
X230427130Y-151764910D01*
X230423274Y-151774188D01*
X230419214Y-151783358D01*
X230414955Y-151792420D01*
X230410502Y-151801373D01*
X230405859Y-151810217D01*
X230401031Y-151818953D01*
X230396038Y-151827562D01*
X230390896Y-151836027D01*
X230385601Y-151844347D01*
X230380147Y-151852522D01*
X230374530Y-151860552D01*
X230368746Y-151868438D01*
X230362790Y-151876179D01*
X230356658Y-151883776D01*
X230350345Y-151891228D01*
X230343847Y-151898535D01*
X230337158Y-151905697D01*
X230330276Y-151912715D01*
X230323194Y-151919588D01*
X230315909Y-151926316D01*
X230308416Y-151932900D01*
X230300710Y-151939339D01*
X230293114Y-151945615D01*
X230285373Y-151951710D01*
X230277487Y-151957624D01*
X230269456Y-151963358D01*
X230261281Y-151968910D01*
X230252961Y-151974282D01*
X230244497Y-151979473D01*
X230235888Y-151984483D01*
X230227134Y-151989312D01*
X230218235Y-151993960D01*
X230209192Y-151998428D01*
X230200003Y-152002714D01*
X230190671Y-152006820D01*
X230181193Y-152010745D01*
X230171571Y-152014489D01*
X230161804Y-152018052D01*
X230151911Y-152021416D01*
X230141909Y-152024563D01*
X230131798Y-152027493D01*
X230121579Y-152030206D01*
X230111251Y-152032702D01*
X230100815Y-152034981D01*
X230090271Y-152037043D01*
X230079618Y-152038888D01*
X230068856Y-152040516D01*
X230057986Y-152041927D01*
X230047007Y-152043121D01*
X230035920Y-152044097D01*
X230024724Y-152044857D01*
X230013420Y-152045399D01*
X229990486Y-152045834D01*
X229972381Y-152045562D01*
X229954527Y-152044748D01*
X229936921Y-152043392D01*
X229919562Y-152041493D01*
X229902447Y-152039051D01*
X229885574Y-152036067D01*
X229868941Y-152032540D01*
X229852545Y-152028470D01*
X229836384Y-152023858D01*
X229820456Y-152018703D01*
X229804758Y-152013006D01*
X229789289Y-152006766D01*
X229774046Y-151999983D01*
X229759027Y-151992658D01*
X229744229Y-151984790D01*
X229729651Y-151976380D01*
X229715652Y-151967464D01*
X229702017Y-151958079D01*
X229688749Y-151948229D01*
X229675849Y-151937916D01*
X229663319Y-151927141D01*
X229651163Y-151915907D01*
X229639382Y-151904217D01*
X229627979Y-151892072D01*
X229616956Y-151879475D01*
X229606314Y-151866428D01*
X229596057Y-151852933D01*
X229586187Y-151838993D01*
X229576705Y-151824610D01*
X229567615Y-151809786D01*
X229558918Y-151794523D01*
X229550616Y-151778825D01*
X229542495Y-151762420D01*
X229534914Y-151745620D01*
X229527871Y-151728427D01*
X229521364Y-151710843D01*
X229515391Y-151692869D01*
X229509948Y-151674510D01*
X229505035Y-151655765D01*
X229500649Y-151636639D01*
X229496787Y-151617133D01*
X229493447Y-151597249D01*
X229490627Y-151576990D01*
X229488325Y-151556358D01*
X229486539Y-151535355D01*
X229485266Y-151513984D01*
X229484503Y-151492246D01*
X229484250Y-151470145D01*
X229484503Y-151447771D01*
X229485266Y-151425796D01*
X229486539Y-151404219D01*
X229488325Y-151383039D01*
X229490627Y-151362257D01*
X229493447Y-151341874D01*
X229496787Y-151321888D01*
X229500649Y-151302300D01*
X229505035Y-151283110D01*
X229509948Y-151264318D01*
X229515391Y-151245924D01*
X229521364Y-151227927D01*
X229527871Y-151210329D01*
X229534914Y-151193128D01*
X229542495Y-151176326D01*
X229550616Y-151159921D01*
X229558918Y-151143968D01*
X229567618Y-151128517D01*
X229576716Y-151113563D01*
X229586211Y-151099102D01*
X229596104Y-151085129D01*
X229606396Y-151071640D01*
X229617085Y-151058630D01*
X229628172Y-151046096D01*
X229639657Y-151034031D01*
X229651540Y-151022432D01*
X229663821Y-151011294D01*
X229676500Y-151000613D01*
X229689577Y-150990385D01*
X229703051Y-150980604D01*
X229716924Y-150971265D01*
X229731194Y-150962366D01*
X229745501Y-150953956D01*
X229760061Y-150946088D01*
X229774874Y-150938763D01*
X229789940Y-150931980D01*
X229805260Y-150925740D01*
X229820832Y-150920043D01*
X229836658Y-150914888D01*
X229852738Y-150910276D01*
X229869070Y-150906206D01*
X229885655Y-150902680D01*
X229902494Y-150899695D01*
X229919586Y-150897253D01*
X229936931Y-150895354D01*
X229954530Y-150893998D01*
X229972381Y-150893184D01*
X229990486Y-150892913D01*
X230012335Y-150893277D01*
G37*
%TD.AperFunction*%
D11*
X231415954Y-150705321D02*
X223233650Y-150705321D01*
X223233650Y-147888188D01*
X231415954Y-147888188D01*
X231415954Y-150705321D01*
D12*
D13*
X232854949Y-148742000D02*
X232997806Y-148789619D01*
X232997806Y-148789619D02*
X233235901Y-148789619D01*
X233235901Y-148789619D02*
X233331139Y-148742000D01*
X233331139Y-148742000D02*
X233378758Y-148694380D01*
X233378758Y-148694380D02*
X233426377Y-148599142D01*
X233426377Y-148599142D02*
X233426377Y-148503904D01*
X233426377Y-148503904D02*
X233378758Y-148408666D01*
X233378758Y-148408666D02*
X233331139Y-148361047D01*
X233331139Y-148361047D02*
X233235901Y-148313428D01*
X233235901Y-148313428D02*
X233045425Y-148265809D01*
X233045425Y-148265809D02*
X232950187Y-148218190D01*
X232950187Y-148218190D02*
X232902568Y-148170571D01*
X232902568Y-148170571D02*
X232854949Y-148075333D01*
X232854949Y-148075333D02*
X232854949Y-147980095D01*
X232854949Y-147980095D02*
X232902568Y-147884857D01*
X232902568Y-147884857D02*
X232950187Y-147837238D01*
X232950187Y-147837238D02*
X233045425Y-147789619D01*
X233045425Y-147789619D02*
X233283520Y-147789619D01*
X233283520Y-147789619D02*
X233426377Y-147837238D01*
X233854949Y-148789619D02*
X233854949Y-147789619D01*
X233854949Y-147789619D02*
X234426377Y-148789619D01*
X234426377Y-148789619D02*
X234426377Y-147789619D01*
X234854949Y-147884857D02*
X234902568Y-147837238D01*
X234902568Y-147837238D02*
X234997806Y-147789619D01*
X234997806Y-147789619D02*
X235235901Y-147789619D01*
X235235901Y-147789619D02*
X235331139Y-147837238D01*
X235331139Y-147837238D02*
X235378758Y-147884857D01*
X235378758Y-147884857D02*
X235426377Y-147980095D01*
X235426377Y-147980095D02*
X235426377Y-148075333D01*
X235426377Y-148075333D02*
X235378758Y-148218190D01*
X235378758Y-148218190D02*
X234807330Y-148789619D01*
X234807330Y-148789619D02*
X235426377Y-148789619D01*
X236950187Y-148265809D02*
X237093044Y-148313428D01*
X237093044Y-148313428D02*
X237140663Y-148361047D01*
X237140663Y-148361047D02*
X237188282Y-148456285D01*
X237188282Y-148456285D02*
X237188282Y-148599142D01*
X237188282Y-148599142D02*
X237140663Y-148694380D01*
X237140663Y-148694380D02*
X237093044Y-148742000D01*
X237093044Y-148742000D02*
X236997806Y-148789619D01*
X236997806Y-148789619D02*
X236616854Y-148789619D01*
X236616854Y-148789619D02*
X236616854Y-147789619D01*
X236616854Y-147789619D02*
X236950187Y-147789619D01*
X236950187Y-147789619D02*
X237045425Y-147837238D01*
X237045425Y-147837238D02*
X237093044Y-147884857D01*
X237093044Y-147884857D02*
X237140663Y-147980095D01*
X237140663Y-147980095D02*
X237140663Y-148075333D01*
X237140663Y-148075333D02*
X237093044Y-148170571D01*
X237093044Y-148170571D02*
X237045425Y-148218190D01*
X237045425Y-148218190D02*
X236950187Y-148265809D01*
X236950187Y-148265809D02*
X236616854Y-148265809D01*
X238188282Y-148789619D02*
X237854949Y-148313428D01*
X237616854Y-148789619D02*
X237616854Y-147789619D01*
X237616854Y-147789619D02*
X237997806Y-147789619D01*
X237997806Y-147789619D02*
X238093044Y-147837238D01*
X238093044Y-147837238D02*
X238140663Y-147884857D01*
X238140663Y-147884857D02*
X238188282Y-147980095D01*
X238188282Y-147980095D02*
X238188282Y-148122952D01*
X238188282Y-148122952D02*
X238140663Y-148218190D01*
X238140663Y-148218190D02*
X238093044Y-148265809D01*
X238093044Y-148265809D02*
X237997806Y-148313428D01*
X237997806Y-148313428D02*
X237616854Y-148313428D01*
X238616854Y-148265809D02*
X238950187Y-148265809D01*
X239093044Y-148789619D02*
X238616854Y-148789619D01*
X238616854Y-148789619D02*
X238616854Y-147789619D01*
X238616854Y-147789619D02*
X239093044Y-147789619D01*
X239473997Y-148503904D02*
X239950187Y-148503904D01*
X239378759Y-148789619D02*
X239712092Y-147789619D01*
X239712092Y-147789619D02*
X240045425Y-148789619D01*
X240378759Y-148789619D02*
X240378759Y-147789619D01*
X240950187Y-148789619D02*
X240521616Y-148218190D01*
X240950187Y-147789619D02*
X240378759Y-148361047D01*
X241569235Y-147789619D02*
X241759711Y-147789619D01*
X241759711Y-147789619D02*
X241854949Y-147837238D01*
X241854949Y-147837238D02*
X241950187Y-147932476D01*
X241950187Y-147932476D02*
X241997806Y-148122952D01*
X241997806Y-148122952D02*
X241997806Y-148456285D01*
X241997806Y-148456285D02*
X241950187Y-148646761D01*
X241950187Y-148646761D02*
X241854949Y-148742000D01*
X241854949Y-148742000D02*
X241759711Y-148789619D01*
X241759711Y-148789619D02*
X241569235Y-148789619D01*
X241569235Y-148789619D02*
X241473997Y-148742000D01*
X241473997Y-148742000D02*
X241378759Y-148646761D01*
X241378759Y-148646761D02*
X241331140Y-148456285D01*
X241331140Y-148456285D02*
X241331140Y-148122952D01*
X241331140Y-148122952D02*
X241378759Y-147932476D01*
X241378759Y-147932476D02*
X241473997Y-147837238D01*
X241473997Y-147837238D02*
X241569235Y-147789619D01*
X242426378Y-147789619D02*
X242426378Y-148599142D01*
X242426378Y-148599142D02*
X242473997Y-148694380D01*
X242473997Y-148694380D02*
X242521616Y-148742000D01*
X242521616Y-148742000D02*
X242616854Y-148789619D01*
X242616854Y-148789619D02*
X242807330Y-148789619D01*
X242807330Y-148789619D02*
X242902568Y-148742000D01*
X242902568Y-148742000D02*
X242950187Y-148694380D01*
X242950187Y-148694380D02*
X242997806Y-148599142D01*
X242997806Y-148599142D02*
X242997806Y-147789619D01*
X243331140Y-147789619D02*
X243902568Y-147789619D01*
X243616854Y-148789619D02*
X243616854Y-147789619D01*
X245331140Y-148265809D02*
X245473997Y-148313428D01*
X245473997Y-148313428D02*
X245521616Y-148361047D01*
X245521616Y-148361047D02*
X245569235Y-148456285D01*
X245569235Y-148456285D02*
X245569235Y-148599142D01*
X245569235Y-148599142D02*
X245521616Y-148694380D01*
X245521616Y-148694380D02*
X245473997Y-148742000D01*
X245473997Y-148742000D02*
X245378759Y-148789619D01*
X245378759Y-148789619D02*
X244997807Y-148789619D01*
X244997807Y-148789619D02*
X244997807Y-147789619D01*
X244997807Y-147789619D02*
X245331140Y-147789619D01*
X245331140Y-147789619D02*
X245426378Y-147837238D01*
X245426378Y-147837238D02*
X245473997Y-147884857D01*
X245473997Y-147884857D02*
X245521616Y-147980095D01*
X245521616Y-147980095D02*
X245521616Y-148075333D01*
X245521616Y-148075333D02*
X245473997Y-148170571D01*
X245473997Y-148170571D02*
X245426378Y-148218190D01*
X245426378Y-148218190D02*
X245331140Y-148265809D01*
X245331140Y-148265809D02*
X244997807Y-148265809D01*
X246188283Y-147789619D02*
X246378759Y-147789619D01*
X246378759Y-147789619D02*
X246473997Y-147837238D01*
X246473997Y-147837238D02*
X246569235Y-147932476D01*
X246569235Y-147932476D02*
X246616854Y-148122952D01*
X246616854Y-148122952D02*
X246616854Y-148456285D01*
X246616854Y-148456285D02*
X246569235Y-148646761D01*
X246569235Y-148646761D02*
X246473997Y-148742000D01*
X246473997Y-148742000D02*
X246378759Y-148789619D01*
X246378759Y-148789619D02*
X246188283Y-148789619D01*
X246188283Y-148789619D02*
X246093045Y-148742000D01*
X246093045Y-148742000D02*
X245997807Y-148646761D01*
X245997807Y-148646761D02*
X245950188Y-148456285D01*
X245950188Y-148456285D02*
X245950188Y-148122952D01*
X245950188Y-148122952D02*
X245997807Y-147932476D01*
X245997807Y-147932476D02*
X246093045Y-147837238D01*
X246093045Y-147837238D02*
X246188283Y-147789619D01*
X246997807Y-148503904D02*
X247473997Y-148503904D01*
X246902569Y-148789619D02*
X247235902Y-147789619D01*
X247235902Y-147789619D02*
X247569235Y-148789619D01*
X248473997Y-148789619D02*
X248140664Y-148313428D01*
X247902569Y-148789619D02*
X247902569Y-147789619D01*
X247902569Y-147789619D02*
X248283521Y-147789619D01*
X248283521Y-147789619D02*
X248378759Y-147837238D01*
X248378759Y-147837238D02*
X248426378Y-147884857D01*
X248426378Y-147884857D02*
X248473997Y-147980095D01*
X248473997Y-147980095D02*
X248473997Y-148122952D01*
X248473997Y-148122952D02*
X248426378Y-148218190D01*
X248426378Y-148218190D02*
X248378759Y-148265809D01*
X248378759Y-148265809D02*
X248283521Y-148313428D01*
X248283521Y-148313428D02*
X247902569Y-148313428D01*
X248902569Y-148789619D02*
X248902569Y-147789619D01*
X248902569Y-147789619D02*
X249140664Y-147789619D01*
X249140664Y-147789619D02*
X249283521Y-147837238D01*
X249283521Y-147837238D02*
X249378759Y-147932476D01*
X249378759Y-147932476D02*
X249426378Y-148027714D01*
X249426378Y-148027714D02*
X249473997Y-148218190D01*
X249473997Y-148218190D02*
X249473997Y-148361047D01*
X249473997Y-148361047D02*
X249426378Y-148551523D01*
X249426378Y-148551523D02*
X249378759Y-148646761D01*
X249378759Y-148646761D02*
X249283521Y-148742000D01*
X249283521Y-148742000D02*
X249140664Y-148789619D01*
X249140664Y-148789619D02*
X248902569Y-148789619D01*
D12*
G36*
X236657711Y-149878904D02*
G01*
X236528377Y-149878904D01*
X236593043Y-149684903D01*
X236657711Y-149878904D01*
G37*
G36*
X237175395Y-150538637D02*
G01*
X236010693Y-150538637D01*
X236010693Y-150273985D01*
X236135693Y-150273985D01*
X236139150Y-150322634D01*
X236160962Y-150366259D01*
X236197808Y-150398214D01*
X236244077Y-150413637D01*
X236292726Y-150410180D01*
X236336351Y-150388368D01*
X236368306Y-150351522D01*
X236378296Y-150329147D01*
X236445044Y-150128904D01*
X236741044Y-150128904D01*
X236807791Y-150329147D01*
X236817782Y-150351522D01*
X236849737Y-150388368D01*
X236893361Y-150410180D01*
X236942011Y-150413637D01*
X236988280Y-150398214D01*
X237025126Y-150366258D01*
X237046938Y-150322634D01*
X237050395Y-150273984D01*
X237044962Y-150250090D01*
X236711629Y-149250091D01*
X236701639Y-149227716D01*
X236695787Y-149220968D01*
X236691793Y-149212980D01*
X236679955Y-149202713D01*
X236669684Y-149190870D01*
X236661692Y-149186874D01*
X236654947Y-149181024D01*
X236640079Y-149176068D01*
X236626059Y-149169058D01*
X236617149Y-149168424D01*
X236608678Y-149165601D01*
X236593043Y-149166711D01*
X236577410Y-149165601D01*
X236568938Y-149168424D01*
X236560028Y-149169058D01*
X236546006Y-149176069D01*
X236531141Y-149181024D01*
X236524395Y-149186874D01*
X236516404Y-149190870D01*
X236506135Y-149202710D01*
X236494295Y-149212979D01*
X236490299Y-149220969D01*
X236484449Y-149227716D01*
X236474458Y-149250091D01*
X236141126Y-150250091D01*
X236135693Y-150273985D01*
X236010693Y-150273985D01*
X236010693Y-149040601D01*
X237175395Y-149040601D01*
X237175395Y-150538637D01*
G37*
D13*
X233473996Y-150289619D02*
X233140663Y-149813428D01*
X232902568Y-150289619D02*
X232902568Y-149289619D01*
X232902568Y-149289619D02*
X233283520Y-149289619D01*
X233283520Y-149289619D02*
X233378758Y-149337238D01*
X233378758Y-149337238D02*
X233426377Y-149384857D01*
X233426377Y-149384857D02*
X233473996Y-149480095D01*
X233473996Y-149480095D02*
X233473996Y-149622952D01*
X233473996Y-149622952D02*
X233426377Y-149718190D01*
X233426377Y-149718190D02*
X233378758Y-149765809D01*
X233378758Y-149765809D02*
X233283520Y-149813428D01*
X233283520Y-149813428D02*
X232902568Y-149813428D01*
X233902568Y-149765809D02*
X234235901Y-149765809D01*
X234378758Y-150289619D02*
X233902568Y-150289619D01*
X233902568Y-150289619D02*
X233902568Y-149289619D01*
X233902568Y-149289619D02*
X234378758Y-149289619D01*
X234664473Y-149289619D02*
X234997806Y-150289619D01*
X234997806Y-150289619D02*
X235331139Y-149289619D01*
D12*
D13*
X232854949Y-150884857D02*
X232902568Y-150837238D01*
X232902568Y-150837238D02*
X232997806Y-150789619D01*
X232997806Y-150789619D02*
X233235901Y-150789619D01*
X233235901Y-150789619D02*
X233331139Y-150837238D01*
X233331139Y-150837238D02*
X233378758Y-150884857D01*
X233378758Y-150884857D02*
X233426377Y-150980095D01*
X233426377Y-150980095D02*
X233426377Y-151075333D01*
X233426377Y-151075333D02*
X233378758Y-151218190D01*
X233378758Y-151218190D02*
X232807330Y-151789619D01*
X232807330Y-151789619D02*
X233426377Y-151789619D01*
X234045425Y-150789619D02*
X234140663Y-150789619D01*
X234140663Y-150789619D02*
X234235901Y-150837238D01*
X234235901Y-150837238D02*
X234283520Y-150884857D01*
X234283520Y-150884857D02*
X234331139Y-150980095D01*
X234331139Y-150980095D02*
X234378758Y-151170571D01*
X234378758Y-151170571D02*
X234378758Y-151408666D01*
X234378758Y-151408666D02*
X234331139Y-151599142D01*
X234331139Y-151599142D02*
X234283520Y-151694380D01*
X234283520Y-151694380D02*
X234235901Y-151742000D01*
X234235901Y-151742000D02*
X234140663Y-151789619D01*
X234140663Y-151789619D02*
X234045425Y-151789619D01*
X234045425Y-151789619D02*
X233950187Y-151742000D01*
X233950187Y-151742000D02*
X233902568Y-151694380D01*
X233902568Y-151694380D02*
X233854949Y-151599142D01*
X233854949Y-151599142D02*
X233807330Y-151408666D01*
X233807330Y-151408666D02*
X233807330Y-151170571D01*
X233807330Y-151170571D02*
X233854949Y-150980095D01*
X233854949Y-150980095D02*
X233902568Y-150884857D01*
X233902568Y-150884857D02*
X233950187Y-150837238D01*
X233950187Y-150837238D02*
X234045425Y-150789619D01*
X234759711Y-150884857D02*
X234807330Y-150837238D01*
X234807330Y-150837238D02*
X234902568Y-150789619D01*
X234902568Y-150789619D02*
X235140663Y-150789619D01*
X235140663Y-150789619D02*
X235235901Y-150837238D01*
X235235901Y-150837238D02*
X235283520Y-150884857D01*
X235283520Y-150884857D02*
X235331139Y-150980095D01*
X235331139Y-150980095D02*
X235331139Y-151075333D01*
X235331139Y-151075333D02*
X235283520Y-151218190D01*
X235283520Y-151218190D02*
X234712092Y-151789619D01*
X234712092Y-151789619D02*
X235331139Y-151789619D01*
X236188282Y-150789619D02*
X235997806Y-150789619D01*
X235997806Y-150789619D02*
X235902568Y-150837238D01*
X235902568Y-150837238D02*
X235854949Y-150884857D01*
X235854949Y-150884857D02*
X235759711Y-151027714D01*
X235759711Y-151027714D02*
X235712092Y-151218190D01*
X235712092Y-151218190D02*
X235712092Y-151599142D01*
X235712092Y-151599142D02*
X235759711Y-151694380D01*
X235759711Y-151694380D02*
X235807330Y-151742000D01*
X235807330Y-151742000D02*
X235902568Y-151789619D01*
X235902568Y-151789619D02*
X236093044Y-151789619D01*
X236093044Y-151789619D02*
X236188282Y-151742000D01*
X236188282Y-151742000D02*
X236235901Y-151694380D01*
X236235901Y-151694380D02*
X236283520Y-151599142D01*
X236283520Y-151599142D02*
X236283520Y-151361047D01*
X236283520Y-151361047D02*
X236235901Y-151265809D01*
X236235901Y-151265809D02*
X236188282Y-151218190D01*
X236188282Y-151218190D02*
X236093044Y-151170571D01*
X236093044Y-151170571D02*
X235902568Y-151170571D01*
X235902568Y-151170571D02*
X235807330Y-151218190D01*
X235807330Y-151218190D02*
X235759711Y-151265809D01*
X235759711Y-151265809D02*
X235712092Y-151361047D01*
D12*
D13*
X245285714Y-167874619D02*
X244714286Y-167874619D01*
X245000000Y-167874619D02*
X245000000Y-166874619D01*
X245000000Y-166874619D02*
X244904762Y-167017476D01*
X244904762Y-167017476D02*
X244809524Y-167112714D01*
X244809524Y-167112714D02*
X244714286Y-167160333D01*
%TO.C,ID901*%
D14*
X244000000Y-166425000D02*
X246000000Y-166425000D01*
X246000000Y-168425000D01*
X244000000Y-168425000D01*
X244000000Y-166425000D01*
%TD*%
D15*
%TO.P,C301,1*%
%TO.N,/SCHEMATIC/NTC_DIV*%
X218700000Y-112425000D03*
%TO.P,C301,2*%
%TO.N,GND*%
X223700000Y-112425000D03*
%TD*%
D16*
%TO.P,FID902,*%
%TO.N,*%
X255000000Y-77425000D03*
%TD*%
D17*
%TO.P,D101,1,K*%
%TO.N,/SCHEMATIC/ENV*%
X252500000Y-107425000D03*
D15*
%TO.P,D101,2,A*%
%TO.N,/SCHEMATIC/AMP_OUT*%
X252500000Y-112505000D03*
%TD*%
D18*
%TO.P,TP401,1,1*%
%TO.N,/SCHEMATIC/PWM_FAN*%
X214000000Y-117425000D03*
%TD*%
D19*
%TO.P,MK101,1,-*%
%TO.N,GND*%
X260000000Y-101425000D03*
D20*
%TO.P,MK101,2,+*%
%TO.N,/SCHEMATIC/MIC*%
X260000000Y-103325000D03*
%TD*%
D18*
%TO.P,TP701,1,1*%
%TO.N,+VUSB*%
X237500000Y-167425000D03*
%TD*%
D21*
%TO.P,C702,1*%
%TO.N,+12V*%
X199000000Y-148425000D03*
D15*
%TO.P,C702,2*%
%TO.N,GND*%
X202500000Y-148425000D03*
%TD*%
D22*
%TO.P,D401,1,K*%
%TO.N,+12V*%
X180000000Y-118615000D03*
D23*
%TO.P,D401,2,A*%
%TO.N,/SCHEMATIC/FAN-*%
X180000000Y-126235000D03*
%TD*%
D15*
%TO.P,C502,1*%
%TO.N,GND*%
X205000000Y-112425000D03*
%TO.P,C502,2*%
%TO.N,/SCHEMATIC/POT_DIV*%
X210000000Y-112425000D03*
%TD*%
D24*
%TO.P,H904,1,1*%
%TO.N,GND*%
X260000000Y-167425000D03*
%TD*%
D15*
%TO.P,R302,1*%
%TO.N,/SCHEMATIC/NTC_DIV*%
X218650000Y-107425000D03*
%TO.P,R302,2*%
%TO.N,/SCHEMATIC/ADC_NTC*%
X231350000Y-107425000D03*
%TD*%
%TO.P,C703,1*%
%TO.N,GND*%
X212500000Y-167425000D03*
%TO.P,C703,2*%
%TO.N,+12V*%
X207500000Y-167425000D03*
%TD*%
%TO.P,R503,1*%
%TO.N,/SCHEMATIC/ADC_POT*%
X201150000Y-107425000D03*
%TO.P,R503,2*%
%TO.N,/SCHEMATIC/POT_DIV*%
X213850000Y-107425000D03*
%TD*%
D24*
%TO.P,H901,1,1*%
%TO.N,GND*%
X170000000Y-77425000D03*
%TD*%
D18*
%TO.P,TP902,1,1*%
%TO.N,GND*%
X211000000Y-135425000D03*
%TD*%
D15*
%TO.P,R201,1*%
%TO.N,/SCHEMATIC/ENV*%
X235000000Y-82505000D03*
%TO.P,R201,2*%
%TO.N,/SCHEMATIC/GPIO_SOUND*%
X235000000Y-77425000D03*
%TD*%
%TO.P,C704,1*%
%TO.N,GND*%
X187500000Y-162425000D03*
%TO.P,C704,2*%
%TO.N,/SCHEMATIC/+5V*%
X192500000Y-162425000D03*
%TD*%
%TO.P,R102,1*%
%TO.N,+3V3*%
X236150001Y-127425000D03*
%TO.P,R102,2*%
%TO.N,/SCHEMATIC/AMP_BASE*%
X248850001Y-127425000D03*
%TD*%
D25*
%TO.P,Q101,1,C*%
%TO.N,/SCHEMATIC/AMP_OUT*%
X252500000Y-121154999D03*
D26*
%TO.P,Q101,2,B*%
%TO.N,/SCHEMATIC/AMP_BASE*%
X252500000Y-122425000D03*
%TO.P,Q101,3,E*%
%TO.N,/SCHEMATIC/AMP_EMITTER*%
X252500000Y-123694999D03*
%TD*%
D22*
%TO.P,D701,1,A1*%
%TO.N,/SCHEMATIC/+12V_IN*%
X178950000Y-154925000D03*
D23*
%TO.P,D701,2,A2*%
%TO.N,GND*%
X178950000Y-162545000D03*
%TD*%
D16*
%TO.P,FID901,*%
%TO.N,*%
X177500000Y-77425000D03*
%TD*%
D27*
%TO.P,D702,1,K*%
%TO.N,+12V*%
X192500000Y-156165000D03*
D28*
%TO.P,D702,2,A*%
%TO.N,/SCHEMATIC/+12V_FUSED*%
X192500000Y-140925000D03*
%TD*%
D29*
%TO.P,U601,1,RST*%
%TO.N,unconnected-(U601-RST-Pad1)*%
X255120000Y-139925000D03*
%TO.P,U601,2,3V3*%
%TO.N,+3V3*%
X252580000Y-139925000D03*
%TO.P,U601,3,MODE*%
%TO.N,unconnected-(U601-MODE-Pad3)*%
X250040000Y-139925001D03*
%TO.P,U601,4,GND*%
%TO.N,GND*%
X247500000Y-139925000D03*
%TO.P,U601,5,A0*%
%TO.N,unconnected-(U601-A0-Pad5)*%
X244960000Y-139925000D03*
%TO.P,U601,6,ADC_5*%
%TO.N,/SCHEMATIC/ADC_POT*%
X242420000Y-139925000D03*
%TO.P,U601,7,A2~*%
%TO.N,/SCHEMATIC/PWM_FAN*%
X239880000Y-139925001D03*
%TO.P,U601,8,ADC_0*%
%TO.N,/SCHEMATIC/ADC_NTC*%
X237339999Y-139925000D03*
%TO.P,U601,9,D19*%
%TO.N,/SCHEMATIC/GPIO_BTN*%
X234800000Y-139925000D03*
%TO.P,U601,10,S3*%
%TO.N,unconnected-(U601-S3-Pad10)*%
X232260000Y-139925000D03*
%TO.P,U601,11,SCK*%
%TO.N,unconnected-(U601-SCK-Pad11)*%
X229720000Y-139925000D03*
%TO.P,U601,12,MO*%
%TO.N,unconnected-(U601-MO-Pad12)*%
X227180000Y-139925001D03*
%TO.P,U601,13,MI*%
%TO.N,unconnected-(U601-MI-Pad13)*%
X224640000Y-139925000D03*
%TO.P,U601,14,D9*%
%TO.N,/SCHEMATIC/LED_RED*%
X222100000Y-139925000D03*
%TO.P,U601,15,D8*%
%TO.N,/SCHEMATIC/LED_GRN*%
X219560000Y-139925000D03*
%TO.P,U601,16,NC*%
%TO.N,unconnected-(U601-NC-Pad16)*%
X217020000Y-139925001D03*
%TO.P,U601,17,SDA*%
%TO.N,unconnected-(U601-SDA-Pad17)*%
X217020000Y-160244999D03*
%TO.P,U601,18,SCL~*%
%TO.N,unconnected-(U601-SCL~-Pad18)*%
X219560000Y-160245000D03*
%TO.P,U601,19,D2*%
%TO.N,/SCHEMATIC/GPIO_SOUND*%
X222100000Y-160245000D03*
%TO.P,U601,20,D3*%
%TO.N,unconnected-(U601-D3-Pad20)*%
X224640000Y-160245000D03*
%TO.P,U601,21,D4*%
%TO.N,unconnected-(U601-D4-Pad21)*%
X227180000Y-160244999D03*
%TO.P,U601,22,D5*%
%TO.N,unconnected-(U601-D5-Pad22)*%
X229720000Y-160245000D03*
%TO.P,U601,23,D6*%
%TO.N,unconnected-(U601-D6-Pad23)*%
X232260000Y-160245000D03*
%TO.P,U601,24,D7*%
%TO.N,unconnected-(U601-D7-Pad24)*%
X234800000Y-160245000D03*
%TO.P,U601,25,D10*%
%TO.N,unconnected-(U601-D10-Pad25)*%
X237339999Y-160245000D03*
%TO.P,U601,26,VUSB*%
%TO.N,+VUSB*%
X239880000Y-160244999D03*
%TO.P,U601,27,EN*%
%TO.N,unconnected-(U601-EN-Pad27)*%
X242420000Y-160245000D03*
%TO.P,U601,28,LI+*%
%TO.N,unconnected-(U601-LI+-Pad28)*%
X244960000Y-160245000D03*
%TD*%
D30*
%TO.P,RV201,1,1*%
%TO.N,+3V3*%
X260000000Y-92465000D03*
%TO.P,RV201,2,2*%
%TO.N,/SCHEMATIC/THRES_REF*%
X260000000Y-89925000D03*
%TO.P,RV201,3,3*%
%TO.N,GND*%
X260000000Y-87385001D03*
%TD*%
D31*
%TO.P,C705,1*%
%TO.N,/SCHEMATIC/+5V*%
X192500000Y-167425000D03*
D15*
%TO.P,C705,2*%
%TO.N,GND*%
X190499999Y-167425000D03*
%TD*%
D18*
%TO.P,TP101,1,1*%
%TO.N,/SCHEMATIC/AMP_OUT*%
X252500000Y-117425000D03*
%TD*%
D15*
%TO.P,R101,1*%
%TO.N,+3V3*%
X236150001Y-112425000D03*
%TO.P,R101,2*%
%TO.N,/SCHEMATIC/MIC*%
X248850001Y-112425000D03*
%TD*%
D18*
%TO.P,TP702,1,1*%
%TO.N,+12V*%
X200500000Y-139925000D03*
%TD*%
D15*
%TO.P,R402,1*%
%TO.N,/SCHEMATIC/GATE*%
X201150000Y-127425000D03*
%TO.P,R402,2*%
%TO.N,GND*%
X213850000Y-127425000D03*
%TD*%
D32*
%TO.P,RV501,1,1*%
%TO.N,+3V3*%
X211000000Y-102425000D03*
%TO.P,RV501,2,2*%
%TO.N,/SCHEMATIC/POT_DIV*%
X206000000Y-102425000D03*
%TO.P,RV501,3,3*%
%TO.N,GND*%
X201000000Y-102425000D03*
%TD*%
D15*
%TO.P,R301,1*%
%TO.N,+3V3*%
X231350000Y-102425000D03*
%TO.P,R301,2*%
%TO.N,/SCHEMATIC/NTC_DIV*%
X218650000Y-102425000D03*
%TD*%
D16*
%TO.P,FID903,*%
%TO.N,*%
X252500000Y-167425000D03*
%TD*%
D15*
%TO.P,R202,1*%
%TO.N,+3V3*%
X218650001Y-77425000D03*
%TO.P,R202,2*%
%TO.N,/SCHEMATIC/GPIO_SOUND*%
X231350001Y-77425000D03*
%TD*%
D33*
%TO.P,SW501,1,1*%
%TO.N,/SCHEMATIC/GPIO_BTN*%
X193750000Y-92425000D03*
X181250000Y-92425000D03*
%TO.P,SW501,2,2*%
%TO.N,GND*%
X193750000Y-87425000D03*
X181250000Y-87425000D03*
%TD*%
D34*
%TO.P,J401,1,Pin_1*%
%TO.N,+12V*%
X171000000Y-119925000D03*
D35*
%TO.P,J401,2,Pin_2*%
%TO.N,/SCHEMATIC/FAN-*%
X171000000Y-124925000D03*
%TD*%
D15*
%TO.P,R502,1*%
%TO.N,Net-(D501-A2)*%
X170000000Y-93575000D03*
%TO.P,R502,2*%
%TO.N,/SCHEMATIC/LED_GRN*%
X170000000Y-106275000D03*
%TD*%
%TO.P,C701,1*%
%TO.N,GND*%
X203000000Y-156165000D03*
%TO.P,C701,2*%
%TO.N,+12V*%
X198000000Y-156165000D03*
%TD*%
D36*
%TO.P,Q401,1,S1*%
%TO.N,GND*%
X190075000Y-126829999D03*
%TO.P,Q401,2,G1*%
%TO.N,/SCHEMATIC/GATE*%
X190075000Y-125560000D03*
%TO.P,Q401,3,S2*%
%TO.N,/SCHEMATIC/UNUSED*%
X190075000Y-124290000D03*
%TO.P,Q401,4,G2*%
X190075000Y-123020001D03*
%TO.P,Q401,5,D2*%
%TO.N,unconnected-(Q401-D2-Pad5)*%
X184925000Y-123020001D03*
%TO.P,Q401,6,D2*%
%TO.N,unconnected-(Q401-D2-Pad6)*%
X184925000Y-124290000D03*
%TO.P,Q401,7,D1*%
%TO.N,/SCHEMATIC/FAN-*%
X184925000Y-125560000D03*
%TO.P,Q401,8,D1*%
X184925000Y-126829999D03*
%TD*%
D15*
%TO.P,R501,1*%
%TO.N,/SCHEMATIC/LED_RED*%
X175000000Y-106275000D03*
%TO.P,R501,2*%
%TO.N,Net-(D501-A1)*%
X175000000Y-93575000D03*
%TD*%
D31*
%TO.P,C102,1*%
%TO.N,/SCHEMATIC/EMITTER_BYPASS*%
X232500000Y-127425000D03*
D15*
%TO.P,C102,2*%
%TO.N,GND*%
X230499999Y-127425000D03*
%TD*%
%TO.P,R107,1*%
%TO.N,/SCHEMATIC/ENV*%
X248850000Y-107425000D03*
%TO.P,R107,2*%
%TO.N,GND*%
X236150000Y-107425000D03*
%TD*%
D37*
%TO.P,D501,1,A1*%
%TO.N,Net-(D501-A1)*%
X175040000Y-87425000D03*
D38*
%TO.P,D501,2,K*%
%TO.N,GND*%
X172500000Y-87425000D03*
%TO.P,D501,3,A2*%
%TO.N,Net-(D501-A2)*%
X169960001Y-87425000D03*
%TD*%
D15*
%TO.P,R103,1*%
%TO.N,/SCHEMATIC/AMP_BASE*%
X248850000Y-132425000D03*
%TO.P,R103,2*%
%TO.N,GND*%
X236150000Y-132425000D03*
%TD*%
D39*
%TO.P,C401,1*%
%TO.N,+12V*%
X180000000Y-114925000D03*
D15*
%TO.P,C401,2*%
%TO.N,GND*%
X180000000Y-112924999D03*
%TD*%
D40*
%TO.P,D704,1,K*%
%TO.N,+VUSB*%
X228850000Y-167425000D03*
D23*
%TO.P,D704,2,A*%
%TO.N,/SCHEMATIC/+5V*%
X216150000Y-167425000D03*
%TD*%
D41*
%TO.P,F701,1*%
%TO.N,/SCHEMATIC/+12V_IN*%
X185000000Y-158425000D03*
X185000000Y-151665000D03*
D42*
%TO.P,F701,2*%
%TO.N,/SCHEMATIC/+12V_FUSED*%
X185000000Y-144385000D03*
X185000000Y-137625000D03*
%TD*%
D15*
%TO.P,C402,1*%
%TO.N,+12V*%
X185000000Y-118615000D03*
%TO.P,C402,2*%
%TO.N,GND*%
X190000000Y-118615000D03*
%TD*%
D40*
%TO.P,D703,1,K*%
%TO.N,+12V*%
X203810000Y-162425000D03*
D23*
%TO.P,D703,2,A*%
%TO.N,/SCHEMATIC/+5V*%
X196190000Y-162425000D03*
%TD*%
D15*
%TO.P,R105,1*%
%TO.N,/SCHEMATIC/AMP_EMITTER*%
X248850000Y-122425000D03*
%TO.P,R105,2*%
%TO.N,/SCHEMATIC/EMITTER_BYPASS*%
X236150000Y-122425000D03*
%TD*%
D18*
%TO.P,TP201,1,1*%
%TO.N,/SCHEMATIC/ENV*%
X240000000Y-91425000D03*
%TD*%
D23*
%TO.P,C101,1*%
%TO.N,/SCHEMATIC/MIC*%
X260000000Y-112425000D03*
%TO.P,C101,2*%
%TO.N,/SCHEMATIC/AMP_BASE*%
X260000000Y-127425000D03*
%TD*%
D15*
%TO.P,C201,1*%
%TO.N,+3V3*%
X250000000Y-77425000D03*
%TO.P,C201,2*%
%TO.N,GND*%
X250000000Y-82425000D03*
%TD*%
D21*
%TO.P,U201,1*%
%TO.N,/SCHEMATIC/GPIO_SOUND*%
X238690000Y-77425000D03*
D15*
%TO.P,U201,2,-*%
%TO.N,/SCHEMATIC/THRES_REF*%
X238690000Y-79965000D03*
%TO.P,U201,3,+*%
%TO.N,/SCHEMATIC/ENV*%
X238690000Y-82504999D03*
%TO.P,U201,4,V-*%
%TO.N,GND*%
X238690000Y-85045000D03*
%TO.P,U201,5,+*%
X246310000Y-85045000D03*
%TO.P,U201,6,-*%
X246310000Y-82505000D03*
%TO.P,U201,7*%
%TO.N,unconnected-(U201-Pad7)*%
X246310000Y-79965000D03*
%TO.P,U201,8,V+*%
%TO.N,+3V3*%
X246310000Y-77425000D03*
%TD*%
D24*
%TO.P,H902,1,1*%
%TO.N,GND*%
X260000000Y-77425000D03*
%TD*%
D43*
%TO.P,U701,1,IN*%
%TO.N,+12V*%
X203290000Y-167425000D03*
D44*
%TO.P,U701,2,GND*%
%TO.N,GND*%
X200750000Y-167425000D03*
%TO.P,U701,3,OUT*%
%TO.N,/SCHEMATIC/+5V*%
X198210001Y-167425000D03*
%TD*%
D15*
%TO.P,R401,1*%
%TO.N,/SCHEMATIC/GATE*%
X201150001Y-122425000D03*
%TO.P,R401,2*%
%TO.N,/SCHEMATIC/PWM_FAN*%
X213850001Y-122425000D03*
%TD*%
D45*
%TO.P,TH301,1*%
%TO.N,/SCHEMATIC/NTC_DIV*%
X222540000Y-92425000D03*
D46*
%TO.P,TH301,2*%
%TO.N,GND*%
X220000000Y-92425000D03*
%TD*%
D15*
%TO.P,C202,1*%
%TO.N,/SCHEMATIC/GPIO_SOUND*%
X231350000Y-81235000D03*
%TO.P,C202,2*%
%TO.N,GND*%
X231350000Y-86235000D03*
%TD*%
D47*
%TO.P,J701,1*%
%TO.N,/SCHEMATIC/+12V_IN*%
X179700000Y-139925000D03*
D48*
%TO.P,J701,2*%
%TO.N,GND*%
X173500000Y-139925000D03*
D49*
%TO.P,J701,3*%
%TO.N,unconnected-(J701-Pad3)*%
X176500000Y-144625000D03*
%TD*%
D39*
%TO.P,C103,1*%
%TO.N,/SCHEMATIC/ENV*%
X248850000Y-102425000D03*
D15*
%TO.P,C103,2*%
%TO.N,GND*%
X248850000Y-100424999D03*
%TD*%
D34*
%TO.P,J702,1,Pin_1*%
%TO.N,/SCHEMATIC/+12V_IN*%
X171000000Y-154925000D03*
D35*
%TO.P,J702,2,Pin_2*%
%TO.N,GND*%
X171000000Y-159925000D03*
%TD*%
D15*
%TO.P,R104,1*%
%TO.N,+3V3*%
X236150001Y-117425000D03*
%TO.P,R104,2*%
%TO.N,/SCHEMATIC/AMP_OUT*%
X248850001Y-117425000D03*
%TD*%
%TO.P,R106,1*%
%TO.N,/SCHEMATIC/EMITTER_BYPASS*%
X231350000Y-122425000D03*
%TO.P,R106,2*%
%TO.N,GND*%
X218650000Y-122425000D03*
%TD*%
%TO.P,C501,1*%
%TO.N,/SCHEMATIC/GPIO_BTN*%
X181250000Y-98675000D03*
%TO.P,C501,2*%
%TO.N,GND*%
X186250000Y-98675000D03*
%TD*%
D24*
%TO.P,H903,1,1*%
%TO.N,GND*%
X170000000Y-167425000D03*
%TD*%
D18*
%TO.P,TP901,1,1*%
%TO.N,GND*%
X237500000Y-102425000D03*
%TD*%
D50*
%TO.N,GND*%
X191500000Y-126829999D03*
X190075000Y-127675000D03*
%TO.N,+3V3*%
X242500000Y-99925000D03*
X242500000Y-104925000D03*
X225000000Y-87425000D03*
X227000000Y-89425000D03*
%TO.N,/SCHEMATIC/GPIO_SOUND*%
X225990000Y-135435000D03*
X225990000Y-138415000D03*
%TO.N,/SCHEMATIC/ADC_NTC*%
X237000000Y-135425000D03*
X237000000Y-138425000D03*
%TD*%
D51*
%TO.N,/SCHEMATIC/AMP_BASE*%
X260000000Y-127425000D02*
X257500000Y-129925000D01*
X248850001Y-129925000D02*
X248850000Y-132425000D01*
X255000000Y-124425000D02*
X255000000Y-129925000D01*
X255000000Y-129925000D02*
X248850001Y-129925000D01*
X257500000Y-129925000D02*
X255000000Y-129925000D01*
X248850001Y-127425000D02*
X248850001Y-129925000D01*
X253000000Y-122425000D02*
X255000000Y-124425000D01*
X252500000Y-122425000D02*
X253000000Y-122425000D01*
%TO.N,/SCHEMATIC/MIC*%
X260000000Y-103325000D02*
X260000000Y-107425000D01*
X260000000Y-107425000D02*
X260000000Y-112425000D01*
X250567100Y-112425000D02*
X255567100Y-107425000D01*
X255567100Y-107425000D02*
X260000000Y-107425000D01*
X248850001Y-112425000D02*
X250567100Y-112425000D01*
%TO.N,/SCHEMATIC/EMITTER_BYPASS*%
X232500000Y-127425000D02*
X233750000Y-126175000D01*
X231350000Y-122425000D02*
X233750000Y-122425000D01*
X233750000Y-122425000D02*
X236150000Y-122425000D01*
X233750000Y-126175000D02*
X233750000Y-122425000D01*
D52*
%TO.N,GND*%
X190075000Y-127675000D02*
X190075000Y-126829999D01*
X190920001Y-126829999D02*
X191500000Y-126829999D01*
D51*
%TO.N,/SCHEMATIC/ENV*%
X240000000Y-94925000D02*
X240000000Y-83814999D01*
X252500000Y-107425000D02*
X248850000Y-107425000D01*
X250500000Y-104075000D02*
X248850000Y-102425000D01*
X240000000Y-83814999D02*
X238690000Y-82504999D01*
X238690000Y-82504999D02*
X235000000Y-82505000D01*
X242500000Y-102425000D02*
X240000000Y-99925000D01*
X250500000Y-107425000D02*
X250500000Y-104075000D01*
X248850000Y-107425000D02*
X250500000Y-107425000D01*
X248850000Y-102425000D02*
X242500000Y-102425000D01*
X240000000Y-99925000D02*
X240000000Y-94925000D01*
D53*
%TO.N,+3V3*%
X232500000Y-102425000D02*
X236250000Y-98675000D01*
X250000000Y-77425000D02*
X246310000Y-77425000D01*
X236150001Y-127425000D02*
X242500000Y-127425000D01*
X218650001Y-81075001D02*
X218650001Y-77425000D01*
X242500000Y-112425000D02*
X242500000Y-104925000D01*
X225000000Y-87425000D02*
X222500000Y-84925000D01*
X222500000Y-84925000D02*
X221250000Y-83675000D01*
X242500000Y-77925000D02*
X243000000Y-77425000D01*
X242500000Y-117425000D02*
X242500000Y-112425000D01*
X242540000Y-92465000D02*
X242500000Y-92425000D01*
X211000000Y-102425000D02*
X211000000Y-93925000D01*
X242500000Y-104925000D02*
X236250000Y-98675000D01*
X242500000Y-92425000D02*
X242500000Y-77925000D01*
X233750000Y-96175000D02*
X227500000Y-89925000D01*
X242500000Y-99925000D02*
X242500000Y-92425000D01*
X242500000Y-127425000D02*
X242500000Y-129845000D01*
X221250000Y-83675000D02*
X218650001Y-81075001D01*
X242500000Y-127425000D02*
X242500000Y-117425000D01*
X236250000Y-98675000D02*
X233750000Y-96175000D01*
X243000000Y-77425000D02*
X246310000Y-77425000D01*
X231350000Y-102425000D02*
X232500000Y-102425000D01*
X242500000Y-129845000D02*
X252580000Y-139925000D01*
X242500000Y-112425000D02*
X236150001Y-112425000D01*
X260000000Y-92465000D02*
X242540000Y-92465000D01*
X236150001Y-117425000D02*
X242500000Y-117425000D01*
X227500000Y-89925000D02*
X227000000Y-89425000D01*
X211000000Y-93925000D02*
X221250000Y-83675000D01*
D51*
%TO.N,/SCHEMATIC/GPIO_SOUND*%
X231350001Y-77425000D02*
X231350000Y-81235000D01*
X222100000Y-144325000D02*
X222100000Y-160245000D01*
X225990000Y-138415000D02*
X225990000Y-140415000D01*
X225990000Y-135435000D02*
X225990000Y-86595000D01*
X225990000Y-140415000D02*
X226000000Y-140425000D01*
X238690000Y-77425000D02*
X235000000Y-77425000D01*
X226000000Y-140425000D02*
X222100000Y-144325000D01*
X225990000Y-135435000D02*
X226000000Y-135425000D01*
X235000000Y-77425000D02*
X231350001Y-77425000D01*
X225990000Y-86595000D02*
X231350000Y-81235000D01*
%TO.N,/SCHEMATIC/NTC_DIV*%
X218650000Y-102425000D02*
X222540000Y-102425000D01*
X222540000Y-102425000D02*
X222540000Y-92425000D01*
X220000000Y-112425000D02*
X218650000Y-112425000D01*
X222540000Y-102425000D02*
X222540000Y-107425000D01*
X222540000Y-107425000D02*
X222540000Y-109885000D01*
X222540000Y-109885000D02*
X220000000Y-112425000D01*
X218650000Y-107425000D02*
X222540000Y-107425000D01*
D54*
%TO.N,+12V*%
X185000000Y-118615000D02*
X180000000Y-118615000D01*
X187500000Y-121115000D02*
X187500000Y-129925000D01*
X182250000Y-135175000D02*
X182250000Y-146675000D01*
X199000000Y-148425000D02*
X192500000Y-148425000D01*
X178690000Y-119925000D02*
X180000000Y-118615000D01*
X199000000Y-141425000D02*
X200500000Y-139925000D01*
X171000000Y-119925000D02*
X178690000Y-119925000D01*
X185000000Y-118615000D02*
X187500000Y-121115000D01*
X207500000Y-167425000D02*
X203290000Y-167425000D01*
X198000000Y-156165000D02*
X199740000Y-156165000D01*
X203810000Y-160235000D02*
X203810000Y-162425000D01*
X180000000Y-114925000D02*
X180000000Y-118615000D01*
X184000000Y-148425000D02*
X192500000Y-148425000D01*
X203290000Y-162945000D02*
X203810000Y-162425000D01*
X198000000Y-156165000D02*
X192500000Y-156165000D01*
X192500000Y-156165000D02*
X192500000Y-148425000D01*
X187500000Y-129925000D02*
X182250000Y-135175000D01*
X203290000Y-167425000D02*
X203290000Y-162945000D01*
X199000000Y-148425000D02*
X199000000Y-141425000D01*
X199740000Y-156165000D02*
X203810000Y-160235000D01*
X182250000Y-146675000D02*
X184000000Y-148425000D01*
D51*
%TO.N,/SCHEMATIC/GPIO_BTN*%
X181250000Y-98675000D02*
X220000000Y-137425000D01*
X232300000Y-137425000D02*
X234800000Y-139925000D01*
X181250000Y-92425000D02*
X181250000Y-98675000D01*
X181250000Y-92425000D02*
X193750000Y-92425000D01*
X220000000Y-137425000D02*
X232300000Y-137425000D01*
%TO.N,/SCHEMATIC/POT_DIV*%
X210000000Y-112425000D02*
X206000000Y-108425000D01*
X206000000Y-102425000D02*
X206000000Y-107425000D01*
X206000000Y-108425000D02*
X206000000Y-107425000D01*
X213850000Y-107425000D02*
X206000000Y-107425000D01*
%TO.N,/SCHEMATIC/AMP_OUT*%
X248850001Y-117425000D02*
X252500000Y-117425000D01*
X252500000Y-112505000D02*
X252500000Y-117425000D01*
X252500000Y-117425000D02*
X252500000Y-121154999D01*
X252500000Y-121154999D02*
X252479999Y-121154999D01*
D54*
%TO.N,/SCHEMATIC/FAN-*%
X184330001Y-126235000D02*
X184925000Y-126829999D01*
X184250000Y-126235000D02*
X184925000Y-125560000D01*
X178690000Y-124925000D02*
X180000000Y-126235000D01*
X171000000Y-124925000D02*
X178690000Y-124925000D01*
X180000000Y-126235000D02*
X184330001Y-126235000D01*
X180000000Y-126235000D02*
X184250000Y-126235000D01*
D51*
%TO.N,Net-(D501-A1)*%
X175040000Y-87425000D02*
X175040000Y-93535000D01*
X175040000Y-93535000D02*
X175000000Y-93575000D01*
%TO.N,Net-(D501-A2)*%
X169960001Y-87425000D02*
X169960001Y-93535001D01*
X169960001Y-93535001D02*
X170000000Y-93575000D01*
%TO.N,/SCHEMATIC/AMP_EMITTER*%
X250119999Y-123694999D02*
X248850000Y-122425000D01*
X252500000Y-123694999D02*
X250119999Y-123694999D01*
%TO.N,/SCHEMATIC/GATE*%
X201150001Y-122425000D02*
X201150001Y-124925000D01*
X190075000Y-125560000D02*
X201150001Y-125560000D01*
X201150001Y-124925000D02*
X201150000Y-127425000D01*
%TO.N,/SCHEMATIC/ADC_NTC*%
X227500000Y-111275000D02*
X231350000Y-107425000D01*
X237000000Y-139585001D02*
X237339999Y-139925000D01*
X230043949Y-128526000D02*
X229398999Y-127881050D01*
X237000000Y-138425000D02*
X237000000Y-139585001D01*
X230101000Y-128526000D02*
X230043949Y-128526000D01*
X237000000Y-135425000D02*
X230101000Y-128526000D01*
X227500000Y-125925000D02*
X227500000Y-111275000D01*
X229398999Y-127881050D02*
X229398999Y-127823999D01*
X229398999Y-127823999D02*
X227500000Y-125925000D01*
%TO.N,/SCHEMATIC/PWM_FAN*%
X213850001Y-117574999D02*
X214000000Y-117425000D01*
X213850001Y-122425000D02*
X215067100Y-123642099D01*
X215067100Y-131357900D02*
X220332200Y-136623000D01*
X220332200Y-136623000D02*
X240800915Y-136623000D01*
X215067100Y-123642099D02*
X215067100Y-131357900D01*
X243610000Y-140417915D02*
X242602915Y-141425000D01*
X213850001Y-122425000D02*
X213850001Y-117574999D01*
X241379999Y-141425000D02*
X239880000Y-139925001D01*
X240800915Y-136623000D02*
X243610000Y-139432085D01*
X242602915Y-141425000D02*
X241379999Y-141425000D01*
X243610000Y-139432085D02*
X243610000Y-140417915D01*
%TO.N,/SCHEMATIC/LED_RED*%
X175000000Y-106275000D02*
X188282900Y-106275000D01*
X188282900Y-106275000D02*
X221932900Y-139925000D01*
X221932900Y-139925000D02*
X222100000Y-139925000D01*
%TO.N,/SCHEMATIC/LED_GRN*%
X170000000Y-106275000D02*
X171150000Y-107425000D01*
X188865800Y-107425000D02*
X219560000Y-138119200D01*
X171150000Y-107425000D02*
X188865800Y-107425000D01*
X219560000Y-138119200D02*
X219560000Y-139925000D01*
%TO.N,/SCHEMATIC/ADC_POT*%
X239519000Y-137024000D02*
X242420000Y-139925000D01*
X201150000Y-107425000D02*
X201150000Y-118007900D01*
X220166100Y-137024000D02*
X239519000Y-137024000D01*
X201150000Y-118007900D02*
X220166100Y-137024000D01*
%TO.N,/SCHEMATIC/THRES_REF*%
X240000000Y-77425000D02*
X240000000Y-78655000D01*
X242500000Y-74925000D02*
X240000000Y-77425000D01*
X250000000Y-74925000D02*
X242500000Y-74925000D01*
X260000000Y-89925000D02*
X252500000Y-82425000D01*
X240000000Y-78655000D02*
X238690000Y-79965000D01*
X252500000Y-77425000D02*
X250000000Y-74925000D01*
X252500000Y-82425000D02*
X252500000Y-77425000D01*
D53*
%TO.N,+VUSB*%
X238000000Y-167425000D02*
X239880000Y-165545000D01*
X239880000Y-165545000D02*
X239880000Y-160244999D01*
X228850000Y-167425000D02*
X238000000Y-167425000D01*
D51*
%TO.N,/SCHEMATIC/+5V*%
X193210001Y-162425000D02*
X192500000Y-162425000D01*
X198250000Y-164485000D02*
X198250000Y-167385001D01*
X200710001Y-169925000D02*
X213650000Y-169925000D01*
X198250000Y-167385001D02*
X198210001Y-167425000D01*
X196190000Y-162425000D02*
X198250000Y-164485000D01*
X198210001Y-167425000D02*
X200710001Y-169925000D01*
X213650000Y-169925000D02*
X216150000Y-167425000D01*
X198210001Y-167425000D02*
X193210001Y-162425000D01*
X198210001Y-167425000D02*
X192500000Y-167425000D01*
%TO.N,/SCHEMATIC/UNUSED*%
X190075000Y-124290000D02*
X190075000Y-123020001D01*
%TD*%
%TA.AperFunction,Conductor*%
%TO.N,/SCHEMATIC/+12V_IN*%
G36*
X180693534Y-137744685D02*
G01*
X180739289Y-137797489D01*
X180750494Y-137848504D01*
X180795599Y-149125009D01*
X181899998Y-150224999D01*
X181899999Y-150224999D01*
X181900000Y-150225000D01*
X185148638Y-150225000D01*
X185215677Y-150244685D01*
X185236319Y-150261319D01*
X186363681Y-151388681D01*
X186397166Y-151450004D01*
X186400000Y-151476362D01*
X186400000Y-159073638D01*
X186380315Y-159140677D01*
X186363681Y-159161319D01*
X185736319Y-159788681D01*
X185674996Y-159822166D01*
X185648638Y-159825000D01*
X184176362Y-159825000D01*
X184109323Y-159805315D01*
X184088681Y-159788681D01*
X183636319Y-159336319D01*
X183602834Y-159274996D01*
X183600000Y-159248638D01*
X183600000Y-156993750D01*
X182831250Y-156225000D01*
X169874000Y-156225000D01*
X169806961Y-156205315D01*
X169761206Y-156152511D01*
X169750000Y-156101000D01*
X169750000Y-153749000D01*
X169769685Y-153681961D01*
X169822489Y-153636206D01*
X169874000Y-153625000D01*
X176237500Y-153625000D01*
X178750000Y-151112500D01*
X178750000Y-137849000D01*
X178769685Y-137781961D01*
X178822489Y-137736206D01*
X178874000Y-137725000D01*
X180626495Y-137725000D01*
X180693534Y-137744685D01*
G37*
%TD.AperFunction*%
%TD*%
%TA.AperFunction,Conductor*%
%TO.N,/SCHEMATIC/+12V_FUSED*%
G36*
X186524335Y-136185990D02*
G01*
X193789483Y-139467025D01*
X193842479Y-139512558D01*
X193842620Y-139512776D01*
X194230174Y-140113042D01*
X194250000Y-140180040D01*
X194250000Y-141514339D01*
X194231055Y-141580213D01*
X193706345Y-142417012D01*
X193655300Y-142462758D01*
X186525585Y-145912620D01*
X186471575Y-145925000D01*
X184301362Y-145925000D01*
X184234323Y-145905315D01*
X184213681Y-145888681D01*
X183536319Y-145211319D01*
X183502834Y-145149996D01*
X183500000Y-145123638D01*
X183500000Y-136976362D01*
X183519685Y-136909323D01*
X183536319Y-136888681D01*
X184213681Y-136211319D01*
X184275004Y-136177834D01*
X184301362Y-136175000D01*
X186473298Y-136175000D01*
X186524335Y-136185990D01*
G37*
%TD.AperFunction*%
%TD*%
M02*
