%TF.GenerationSoftware,KiCad,Pcbnew,9.0.7+1*%
%TF.CreationDate,Date%
%TF.ProjectId,Sensor-Node-2-Board,53656e73-6f72-42d4-9e6f-64652d322d42,1.1.0*%
%TF.SameCoordinates,Original*%
%TF.FileFunction,Soldermask,Bot*%
%TF.FilePolarity,Negative*%
%FSLAX46Y46*%
G04 Gerber Fmt 4.6, Leading zero omitted, Abs format (unit mm)*
G04 Created by KiCad*
%MOMM*%
%LPD*%
G01*
G04 APERTURE LIST*
G04 Aperture macros list*
%AMRoundRect*
0 Rectangle with rounded corners*
0 $1 Rounding radius*
0 $2 $3 $4 $5 $6 $7 $8 $9 X,Y pos of 4 corners*
0 Add a 4 corners polygon primitive as box body*
4,1,4,$2,$3,$4,$5,$6,$7,$8,$9,$2,$3,0*
0 Add four circle primitives for the rounded corners*
1,1,$1+$1,$2,$3*
1,1,$1+$1,$4,$5*
1,1,$1+$1,$6,$7*
1,1,$1+$1,$8,$9*
0 Add four rect primitives between the rounded corners*
20,1,$1+$1,$2,$3,$4,$5,0*
20,1,$1+$1,$4,$5,$6,$7,0*
20,1,$1+$1,$6,$7,$8,$9,0*
20,1,$1+$1,$8,$9,$2,$3,0*%
G04 Aperture macros list end*
%ADD10C,1.700000*%
%ADD11RoundRect,0.265625X-0.584375X0.584375X-0.584375X-0.584375X0.584375X-0.584375X0.584375X0.584375X0*%
%ADD12C,2.100000*%
%ADD13RoundRect,0.275000X-0.275000X0.275000X-0.275000X-0.275000X0.275000X-0.275000X0.275000X0.275000X0*%
%ADD14C,1.100000*%
%ADD15RoundRect,0.265625X-0.584375X-0.584375X0.584375X-0.584375X0.584375X0.584375X-0.584375X0.584375X0*%
%ADD16RoundRect,0.261363X-0.888637X0.888637X-0.888637X-0.888637X0.888637X-0.888637X0.888637X0.888637X0*%
%ADD17C,2.300000*%
%ADD18C,5.800000*%
%ADD19RoundRect,0.050000X-0.750000X0.525000X-0.750000X-0.525000X0.750000X-0.525000X0.750000X0.525000X0*%
%ADD20O,1.600000X1.150000*%
%ADD21RoundRect,0.261363X-0.888637X-0.888637X0.888637X-0.888637X0.888637X0.888637X-0.888637X0.888637X0*%
%ADD22RoundRect,0.257813X1.392187X-1.392187X1.392187X1.392187X-1.392187X1.392187X-1.392187X-1.392187X0*%
%ADD23C,3.300000*%
%ADD24C,1.982000*%
%ADD25C,1.540000*%
%ADD26RoundRect,0.265625X0.584375X0.584375X-0.584375X0.584375X-0.584375X-0.584375X0.584375X-0.584375X0*%
%ADD27C,2.440000*%
%ADD28C,1.900000*%
%ADD29O,3.000000X1.800000*%
%ADD30RoundRect,0.259616X-1.090384X1.090384X-1.090384X-1.090384X1.090384X-1.090384X1.090384X1.090384X0*%
%ADD31C,2.700000*%
%ADD32RoundRect,0.050000X0.900000X0.900000X-0.900000X0.900000X-0.900000X-0.900000X0.900000X-0.900000X0*%
%ADD33RoundRect,0.265625X0.584375X-0.584375X0.584375X0.584375X-0.584375X0.584375X-0.584375X-0.584375X0*%
%ADD34RoundRect,0.261363X0.888637X0.888637X-0.888637X0.888637X-0.888637X-0.888637X0.888637X-0.888637X0*%
%ADD35RoundRect,0.700000X0.700000X-0.700000X0.700000X0.700000X-0.700000X0.700000X-0.700000X-0.700000X0*%
%ADD36C,2.800000*%
%ADD37RoundRect,0.050000X0.952500X1.000000X-0.952500X1.000000X-0.952500X-1.000000X0.952500X-1.000000X0*%
%ADD38O,2.005000X2.100000*%
%ADD39RoundRect,0.050000X-0.850000X0.850000X-0.850000X-0.850000X0.850000X-0.850000X0.850000X0.850000X0*%
%ADD40C,1.800000*%
%ADD41RoundRect,0.050000X-1.000000X-2.250000X1.000000X-2.250000X1.000000X2.250000X-1.000000X2.250000X0*%
%ADD42O,2.100000X4.100000*%
%ADD43O,4.100000X2.100000*%
G04 APERTURE END LIST*
D10*
%TO.C,C301*%
X218700000Y-125000000D03*
X223700000Y-125000000D03*
%TD*%
D11*
%TO.C,D101*%
X252500000Y-120000000D03*
D10*
X252500000Y-125080000D03*
%TD*%
D12*
%TO.C,TP401*%
X214000000Y-130000000D03*
%TD*%
D13*
%TO.C,MK101*%
X260000000Y-114000000D03*
D14*
X260000000Y-115900000D03*
%TD*%
D12*
%TO.C,TP701*%
X242000000Y-179750000D03*
%TD*%
D15*
%TO.C,C702*%
X199000000Y-161000000D03*
D10*
X202500000Y-161000000D03*
%TD*%
D16*
%TO.C,D401*%
X180000000Y-131190000D03*
D17*
X180000000Y-138810000D03*
%TD*%
D10*
%TO.C,C502*%
X205000000Y-125000000D03*
X210000000Y-125000000D03*
%TD*%
D18*
%TO.C,H904*%
X260000000Y-180000000D03*
%TD*%
D10*
%TO.C,R302*%
X218650000Y-120000000D03*
X231350000Y-120000000D03*
%TD*%
%TO.C,C703*%
X217500000Y-179750000D03*
X212500000Y-179750000D03*
%TD*%
%TO.C,R503*%
X201150000Y-120000000D03*
X213850000Y-120000000D03*
%TD*%
D18*
%TO.C,H901*%
X170000000Y-90000000D03*
%TD*%
D12*
%TO.C,TP902*%
X211000000Y-148000000D03*
%TD*%
D10*
%TO.C,R201*%
X235000000Y-95080000D03*
X235000000Y-90000000D03*
%TD*%
%TO.C,C704*%
X184000000Y-175000000D03*
X189000000Y-175000000D03*
%TD*%
%TO.C,R102*%
X236150001Y-140000000D03*
X248850001Y-140000000D03*
%TD*%
D19*
%TO.C,Q101*%
X252500000Y-133729999D03*
D20*
X252500000Y-135000000D03*
X252500000Y-136269999D03*
%TD*%
D21*
%TO.C,D701*%
X192500000Y-149000000D03*
D17*
X202660000Y-149000000D03*
%TD*%
D22*
%TO.C,D702*%
X192500000Y-168740000D03*
D23*
X192500000Y-153500000D03*
%TD*%
D24*
%TO.C,U601*%
X255120000Y-152500000D03*
X252580000Y-152500000D03*
X250040000Y-152500001D03*
X247500000Y-152500000D03*
X244960000Y-152500000D03*
X242420000Y-152500000D03*
X239880000Y-152500001D03*
X237339999Y-152500000D03*
X234800000Y-152500000D03*
X232260000Y-152500000D03*
X229720000Y-152500000D03*
X227180000Y-152500001D03*
X224640000Y-152500000D03*
X222100000Y-152500000D03*
X219560000Y-152500000D03*
X217020000Y-152500001D03*
X217020000Y-172819999D03*
X219560000Y-172820000D03*
X222100000Y-172820000D03*
X224640000Y-172820000D03*
X227180000Y-172819999D03*
X229720000Y-172820000D03*
X232260000Y-172820000D03*
X234800000Y-172820000D03*
X237339999Y-172820000D03*
X239880000Y-172819999D03*
X242420000Y-172820000D03*
X244960000Y-172820000D03*
%TD*%
D25*
%TO.C,RV201*%
X260000000Y-105040000D03*
X260000000Y-102500000D03*
X260000000Y-99960001D03*
%TD*%
D26*
%TO.C,C705*%
X187455112Y-179750000D03*
D10*
X185455111Y-179750000D03*
%TD*%
D12*
%TO.C,TP101*%
X252500000Y-130000000D03*
%TD*%
D10*
%TO.C,R101*%
X236150001Y-125000000D03*
X248850001Y-125000000D03*
%TD*%
D12*
%TO.C,TP702*%
X200500000Y-153000000D03*
%TD*%
D10*
%TO.C,R402*%
X201150000Y-140000000D03*
X213850000Y-140000000D03*
%TD*%
D27*
%TO.C,RV501*%
X211000000Y-115000000D03*
X206000000Y-115000000D03*
X201000000Y-115000000D03*
%TD*%
D10*
%TO.C,R301*%
X231350000Y-115000000D03*
X218650000Y-115000000D03*
%TD*%
%TO.C,R202*%
X218650001Y-90000000D03*
X231350001Y-90000000D03*
%TD*%
D28*
%TO.C,SW501*%
X187500000Y-107000000D03*
X187500000Y-98000000D03*
D29*
X193750000Y-105000000D03*
X181250000Y-105000000D03*
X193750000Y-100000000D03*
X181250000Y-100000000D03*
%TD*%
D30*
%TO.C,J401*%
X171000000Y-132500000D03*
D31*
X171000000Y-137500000D03*
%TD*%
D10*
%TO.C,R502*%
X170000000Y-106150000D03*
X170000000Y-118850000D03*
%TD*%
%TO.C,C701*%
X203000000Y-168740000D03*
X198000000Y-168740000D03*
%TD*%
%TO.C,R501*%
X175000000Y-118850000D03*
X175000000Y-106150000D03*
%TD*%
D26*
%TO.C,C102*%
X232500000Y-140000000D03*
D10*
X230499999Y-140000000D03*
%TD*%
%TO.C,R107*%
X248850000Y-120000000D03*
X236150000Y-120000000D03*
%TD*%
D32*
%TO.C,D501*%
X175040000Y-100000000D03*
D28*
X172500000Y-100000000D03*
X169960001Y-100000000D03*
%TD*%
D10*
%TO.C,R103*%
X248850000Y-145000000D03*
X236150000Y-145000000D03*
%TD*%
D33*
%TO.C,C401*%
X180000000Y-127500000D03*
D10*
X180000000Y-125499999D03*
%TD*%
D34*
%TO.C,D704*%
X236350000Y-179750000D03*
D17*
X223650000Y-179750000D03*
%TD*%
D35*
%TO.C,F701*%
X185000000Y-171000000D03*
X185000000Y-164240000D03*
D36*
X185000000Y-156960000D03*
X185000000Y-150200000D03*
%TD*%
D10*
%TO.C,C402*%
X185000000Y-131190000D03*
X190000000Y-131190000D03*
%TD*%
D34*
%TO.C,D703*%
X204560000Y-174000000D03*
D17*
X196940000Y-174000000D03*
%TD*%
D10*
%TO.C,R105*%
X248850000Y-135000000D03*
X236150000Y-135000000D03*
%TD*%
D12*
%TO.C,TP201*%
X240000000Y-104000000D03*
%TD*%
D17*
%TO.C,C101*%
X260000000Y-125000000D03*
X260000000Y-140000000D03*
%TD*%
D10*
%TO.C,C201*%
X250000000Y-90000000D03*
X250000000Y-95000000D03*
%TD*%
D15*
%TO.C,U201*%
X238690000Y-90000000D03*
D10*
X238690000Y-92540000D03*
X238690000Y-95079999D03*
X238690000Y-97620000D03*
X246310000Y-97620000D03*
X246310000Y-95080000D03*
X246310000Y-92540000D03*
X246310000Y-90000000D03*
%TD*%
D18*
%TO.C,H902*%
X260000000Y-90000000D03*
%TD*%
D37*
%TO.C,U701*%
X203290000Y-179750000D03*
D38*
X200750000Y-179750000D03*
X198210001Y-179750000D03*
%TD*%
D10*
%TO.C,R401*%
X201150001Y-135000000D03*
X213850001Y-135000000D03*
%TD*%
D39*
%TO.C,TH301*%
X222540000Y-105000000D03*
D40*
X220000000Y-105000000D03*
%TD*%
D10*
%TO.C,C202*%
X231350000Y-93810000D03*
X231350000Y-98810000D03*
%TD*%
D41*
%TO.C,J701*%
X179700000Y-152500000D03*
D42*
X173500000Y-152500000D03*
D43*
X176500000Y-157200000D03*
%TD*%
D33*
%TO.C,C103*%
X248850000Y-115000000D03*
D10*
X248850000Y-112999999D03*
%TD*%
D30*
%TO.C,J702*%
X171000000Y-167500000D03*
D31*
X171000000Y-172500000D03*
%TD*%
D10*
%TO.C,R104*%
X236150001Y-130000000D03*
X248850001Y-130000000D03*
%TD*%
%TO.C,R106*%
X231350000Y-135000000D03*
X218650000Y-135000000D03*
%TD*%
%TO.C,C501*%
X181250000Y-111250000D03*
X186250000Y-111250000D03*
%TD*%
D18*
%TO.C,H903*%
X170000000Y-180000000D03*
%TD*%
D12*
%TO.C,TP901*%
X237500000Y-115000000D03*
%TD*%
M02*
