%TF.GenerationSoftware,KiCad,Pcbnew,9.0.7+1*%
%TF.CreationDate,Date%
%TF.ProjectId,Sensor-Node-2-Board,53656e73-6f72-42d4-9e6f-64652d322d42,1.0.0+ (Unreleased)*%
%TF.SameCoordinates,Original*%
%TF.FileFunction,Copper,L1,Top*%
%TF.FilePolarity,Positive*%
%FSLAX46Y46*%
G04 Gerber Fmt 4.6, Leading zero omitted, Abs format (unit mm)*
G04 Created by KiCad*
%MOMM*%
%LPD*%
G01*
G04 APERTURE LIST*
G04 Aperture macros list*
%AMRoundRect*
0 Rectangle with rounded corners*
0 $1 Rounding radius*
0 $2 $3 $4 $5 $6 $7 $8 $9 X,Y pos of 4 corners*
0 Add a 4 corners polygon primitive as box body*
4,1,4,$2,$3,$4,$5,$6,$7,$8,$9,$2,$3,0*
0 Add four circle primitives for the rounded corners*
1,1,$1+$1,$2,$3*
1,1,$1+$1,$4,$5*
1,1,$1+$1,$6,$7*
1,1,$1+$1,$8,$9*
0 Add four rect primitives between the rounded corners*
20,1,$1+$1,$2,$3,$4,$5,0*
20,1,$1+$1,$4,$5,$6,$7,0*
20,1,$1+$1,$6,$7,$8,$9,0*
20,1,$1+$1,$8,$9,$2,$3,0*%
G04 Aperture macros list end*
%TA.AperFunction,NonConductor*%
%ADD10C,0.000000*%
%TD*%
%TA.AperFunction,NonConductor*%
%ADD11C,0.165463*%
%TD*%
%ADD12C,0.250000*%
%TA.AperFunction,NonConductor*%
%ADD13C,0.250000*%
%TD*%
%TA.AperFunction,EtchedComponent*%
%ADD14C,0.200000*%
%TD*%
%TA.AperFunction,ComponentPad*%
%ADD15C,1.600000*%
%TD*%
%TA.AperFunction,SMDPad,CuDef*%
%ADD16C,1.000000*%
%TD*%
%TA.AperFunction,ComponentPad*%
%ADD17RoundRect,0.250000X-0.550000X0.550000X-0.550000X-0.550000X0.550000X-0.550000X0.550000X0.550000X0*%
%TD*%
%TA.AperFunction,ComponentPad*%
%ADD18C,2.000000*%
%TD*%
%TA.AperFunction,ComponentPad*%
%ADD19RoundRect,0.250000X-0.250000X0.250000X-0.250000X-0.250000X0.250000X-0.250000X0.250000X0.250000X0*%
%TD*%
%TA.AperFunction,ComponentPad*%
%ADD20C,1.000000*%
%TD*%
%TA.AperFunction,ComponentPad*%
%ADD21RoundRect,0.250000X-0.550000X-0.550000X0.550000X-0.550000X0.550000X0.550000X-0.550000X0.550000X0*%
%TD*%
%TA.AperFunction,ComponentPad*%
%ADD22RoundRect,0.249999X-0.850001X0.850001X-0.850001X-0.850001X0.850001X-0.850001X0.850001X0.850001X0*%
%TD*%
%TA.AperFunction,ComponentPad*%
%ADD23C,2.200000*%
%TD*%
%TA.AperFunction,ComponentPad*%
%ADD24C,5.700000*%
%TD*%
%TA.AperFunction,ComponentPad*%
%ADD25R,1.500000X1.050000*%
%TD*%
%TA.AperFunction,ComponentPad*%
%ADD26O,1.500000X1.050000*%
%TD*%
%TA.AperFunction,ComponentPad*%
%ADD27RoundRect,0.250000X1.350000X-1.350000X1.350000X1.350000X-1.350000X1.350000X-1.350000X-1.350000X0*%
%TD*%
%TA.AperFunction,ComponentPad*%
%ADD28C,3.200000*%
%TD*%
%TA.AperFunction,ComponentPad*%
%ADD29C,1.778000*%
%TD*%
%TA.AperFunction,ComponentPad*%
%ADD30C,1.440000*%
%TD*%
%TA.AperFunction,ComponentPad*%
%ADD31RoundRect,0.250000X0.550000X0.550000X-0.550000X0.550000X-0.550000X-0.550000X0.550000X-0.550000X0*%
%TD*%
%TA.AperFunction,ComponentPad*%
%ADD32C,2.340000*%
%TD*%
%TA.AperFunction,ComponentPad*%
%ADD33O,2.900000X1.700000*%
%TD*%
%TA.AperFunction,ComponentPad*%
%ADD34RoundRect,0.250000X-1.050000X1.050000X-1.050000X-1.050000X1.050000X-1.050000X1.050000X1.050000X0*%
%TD*%
%TA.AperFunction,ComponentPad*%
%ADD35C,2.600000*%
%TD*%
%TA.AperFunction,SMDPad,CuDef*%
%ADD36RoundRect,0.150000X0.725000X0.150000X-0.725000X0.150000X-0.725000X-0.150000X0.725000X-0.150000X0*%
%TD*%
%TA.AperFunction,ComponentPad*%
%ADD37R,1.800000X1.800000*%
%TD*%
%TA.AperFunction,ComponentPad*%
%ADD38C,1.800000*%
%TD*%
%TA.AperFunction,ComponentPad*%
%ADD39RoundRect,0.250000X0.550000X-0.550000X0.550000X0.550000X-0.550000X0.550000X-0.550000X-0.550000X0*%
%TD*%
%TA.AperFunction,ComponentPad*%
%ADD40RoundRect,0.249999X0.850001X0.850001X-0.850001X0.850001X-0.850001X-0.850001X0.850001X-0.850001X0*%
%TD*%
%TA.AperFunction,ComponentPad*%
%ADD41RoundRect,0.675000X0.675000X-0.675000X0.675000X0.675000X-0.675000X0.675000X-0.675000X-0.675000X0*%
%TD*%
%TA.AperFunction,ComponentPad*%
%ADD42C,2.700000*%
%TD*%
%TA.AperFunction,ComponentPad*%
%ADD43R,1.905000X2.000000*%
%TD*%
%TA.AperFunction,ComponentPad*%
%ADD44O,1.905000X2.000000*%
%TD*%
%TA.AperFunction,ComponentPad*%
%ADD45R,1.700000X1.700000*%
%TD*%
%TA.AperFunction,ComponentPad*%
%ADD46C,1.700000*%
%TD*%
%TA.AperFunction,ComponentPad*%
%ADD47R,2.000000X4.500000*%
%TD*%
%TA.AperFunction,ComponentPad*%
%ADD48O,2.000000X4.000000*%
%TD*%
%TA.AperFunction,ComponentPad*%
%ADD49O,4.000000X2.000000*%
%TD*%
%TA.AperFunction,ViaPad*%
%ADD50C,0.600000*%
%TD*%
%TA.AperFunction,Conductor*%
%ADD51C,0.200000*%
%TD*%
%TA.AperFunction,Conductor*%
%ADD52C,0.500000*%
%TD*%
%TA.AperFunction,Conductor*%
%ADD53C,0.300000*%
%TD*%
%TA.AperFunction,Conductor*%
%ADD54C,1.000000*%
%TD*%
G04 APERTURE END LIST*
D10*
%TA.AperFunction,NonConductor*%
G36*
X228146040Y-164126945D02*
G01*
X228148936Y-164134176D01*
X228151851Y-164141969D01*
X228154802Y-164150304D01*
X228157808Y-164159163D01*
X228164054Y-164178383D01*
X228170734Y-164199485D01*
X228196972Y-164295176D01*
X228204785Y-164320401D01*
X228212020Y-164345336D01*
X228215420Y-164357786D01*
X228218676Y-164370272D01*
X228221787Y-164382830D01*
X228224753Y-164395496D01*
X228230082Y-164414687D01*
X228234013Y-164398583D01*
X228247904Y-164348230D01*
X228254849Y-164322836D01*
X228261795Y-164296719D01*
X228268740Y-164271566D01*
X228275685Y-164247137D01*
X228282630Y-164223576D01*
X228289576Y-164201028D01*
X228292533Y-164189742D01*
X228295580Y-164179035D01*
X228298664Y-164168906D01*
X228301730Y-164159356D01*
X228312727Y-164126945D01*
X228555041Y-163481803D01*
X228808159Y-163481803D01*
X228808159Y-164605399D01*
X228638385Y-164605399D01*
X228638385Y-164001929D01*
X228638385Y-163918586D01*
X228639928Y-163816721D01*
X228643015Y-163707140D01*
X228643907Y-163679648D01*
X228644365Y-163652735D01*
X228644379Y-163649146D01*
X228642050Y-163657172D01*
X228633489Y-163685942D01*
X228624494Y-163714857D01*
X228616150Y-163743530D01*
X228607517Y-163771770D01*
X228598883Y-163799720D01*
X228590539Y-163827525D01*
X228581568Y-163853811D01*
X228573176Y-163879229D01*
X228558128Y-163926303D01*
X228543273Y-163968168D01*
X228537075Y-163985989D01*
X228534347Y-163994185D01*
X228531890Y-164001929D01*
X228301923Y-164605399D01*
X228153756Y-164605399D01*
X227922246Y-164001929D01*
X227916193Y-163986013D01*
X227909706Y-163968361D01*
X227906345Y-163958883D01*
X227902929Y-163948972D01*
X227899478Y-163938626D01*
X227896008Y-163927846D01*
X227888774Y-163905274D01*
X227880960Y-163881544D01*
X227872568Y-163856657D01*
X227863597Y-163830612D01*
X227855229Y-163803458D01*
X227846426Y-163775435D01*
X227828099Y-163717944D01*
X227819730Y-163688981D01*
X227810928Y-163659873D01*
X227808842Y-163653131D01*
X227809578Y-163700966D01*
X227812664Y-163810548D01*
X227814208Y-163913956D01*
X227815100Y-163938554D01*
X227815558Y-163961415D01*
X227815727Y-163982540D01*
X227815751Y-164001929D01*
X227815751Y-164605399D01*
X227649064Y-164605399D01*
X227649064Y-163481803D01*
X227902182Y-163481803D01*
X228146040Y-164126945D01*
G37*
%TD.AperFunction*%
%TA.AperFunction,NonConductor*%
G36*
X224569004Y-163841416D02*
G01*
X224577544Y-163855813D01*
X224585812Y-163870065D01*
X224601608Y-163898136D01*
X224616536Y-163925628D01*
X224630740Y-163952541D01*
X224637179Y-163966796D01*
X224643762Y-163981793D01*
X224650491Y-163997550D01*
X224657364Y-164014084D01*
X224657678Y-164014860D01*
X224658521Y-164012733D01*
X224665466Y-163996088D01*
X224672412Y-163980274D01*
X224679357Y-163965256D01*
X224686302Y-163950998D01*
X224700265Y-163924108D01*
X224714662Y-163896785D01*
X224722159Y-163883006D01*
X224729928Y-163869173D01*
X224738021Y-163855303D01*
X224746495Y-163841416D01*
X224954854Y-163481803D01*
X225153953Y-163481803D01*
X224741865Y-164157813D01*
X224741865Y-164605399D01*
X224570547Y-164605399D01*
X224570547Y-164157813D01*
X224156915Y-163481803D01*
X224357558Y-163481803D01*
X224569004Y-163841416D01*
G37*
%TD.AperFunction*%
%TA.AperFunction,NonConductor*%
G36*
X229046964Y-163000000D02*
G01*
X228676546Y-163000000D01*
X228468746Y-162407332D01*
X227585117Y-162407332D01*
X227383170Y-163000000D01*
X227012753Y-163000000D01*
X227325738Y-162120259D01*
X227682934Y-162120259D01*
X228368093Y-162120259D01*
X228238218Y-161749841D01*
X228212173Y-161670452D01*
X228184971Y-161584697D01*
X228156610Y-161491996D01*
X228127093Y-161391771D01*
X228060726Y-161164505D01*
X228023781Y-161036257D01*
X228020985Y-161026255D01*
X227982013Y-161168749D01*
X227917189Y-161397945D01*
X227887720Y-161498073D01*
X227859697Y-161590099D01*
X227833411Y-161674021D01*
X227809151Y-161749841D01*
X227682934Y-162120259D01*
X227325738Y-162120259D01*
X227812238Y-160752801D01*
X228235131Y-160752801D01*
X229046964Y-163000000D01*
G37*
%TD.AperFunction*%
%TA.AperFunction,NonConductor*%
G36*
X227462347Y-164605399D02*
G01*
X227277139Y-164605399D01*
X227173239Y-164309066D01*
X226731426Y-164309066D01*
X226630453Y-164605399D01*
X226445244Y-164605399D01*
X226601736Y-164165530D01*
X226780334Y-164165530D01*
X227122913Y-164165530D01*
X227057975Y-163980322D01*
X227044953Y-163940628D01*
X227031352Y-163897750D01*
X227017172Y-163851400D01*
X227002413Y-163801287D01*
X226969230Y-163687655D01*
X226950757Y-163623531D01*
X226949359Y-163618530D01*
X226929873Y-163689777D01*
X226897461Y-163804374D01*
X226882726Y-163854438D01*
X226868715Y-163900451D01*
X226855572Y-163942412D01*
X226843442Y-163980322D01*
X226780334Y-164165530D01*
X226601736Y-164165530D01*
X226844986Y-163481803D01*
X227056432Y-163481803D01*
X227462347Y-164605399D01*
G37*
%TD.AperFunction*%
%TA.AperFunction,NonConductor*%
G36*
X225961603Y-164150096D02*
G01*
X225972311Y-164168062D01*
X225983597Y-164187330D01*
X225995462Y-164208046D01*
X226007905Y-164230353D01*
X226014854Y-164242076D01*
X226021820Y-164254107D01*
X226035879Y-164279163D01*
X226050228Y-164305666D01*
X226065011Y-164333761D01*
X226079143Y-164363278D01*
X226093564Y-164393953D01*
X226096504Y-164400442D01*
X226096072Y-164395497D01*
X226091249Y-164332217D01*
X226088934Y-164271253D01*
X226086619Y-164214918D01*
X226085727Y-164188271D01*
X226085268Y-164163794D01*
X226085100Y-164141342D01*
X226085075Y-164120771D01*
X226085075Y-163481803D01*
X226259480Y-163481803D01*
X226259480Y-164605399D01*
X226060381Y-164605399D01*
X225680704Y-164008103D01*
X225650801Y-163958136D01*
X225636211Y-163933658D01*
X225622055Y-163909326D01*
X225606934Y-163883232D01*
X225591379Y-163855692D01*
X225557232Y-163795114D01*
X225538976Y-163760074D01*
X225518840Y-163721995D01*
X225502331Y-163691258D01*
X225506300Y-163790483D01*
X225508349Y-163825475D01*
X225509965Y-163858586D01*
X225512473Y-163918586D01*
X225514595Y-163968361D01*
X225515295Y-163988907D01*
X225515560Y-164006560D01*
X225515560Y-164605399D01*
X225341155Y-164605399D01*
X225341155Y-163481803D01*
X225538711Y-163481803D01*
X225961603Y-164150096D01*
G37*
%TD.AperFunction*%
%TA.AperFunction,NonConductor*%
G36*
X225996914Y-161472028D02*
G01*
X226013994Y-161500822D01*
X226030531Y-161529327D01*
X226062123Y-161585468D01*
X226091978Y-161640452D01*
X226120386Y-161694278D01*
X226133264Y-161722789D01*
X226146431Y-161752783D01*
X226159888Y-161784297D01*
X226173634Y-161817365D01*
X226174262Y-161818917D01*
X226175949Y-161814664D01*
X226189839Y-161781373D01*
X226203730Y-161749745D01*
X226217621Y-161719708D01*
X226231511Y-161691191D01*
X226259437Y-161637414D01*
X226288232Y-161582767D01*
X226303226Y-161555209D01*
X226318762Y-161527543D01*
X226334950Y-161499804D01*
X226351897Y-161472028D01*
X226768617Y-160752801D01*
X227166816Y-160752801D01*
X226342637Y-162104824D01*
X226342637Y-163000000D01*
X226000000Y-163000000D01*
X226000000Y-162104824D01*
X225172734Y-160752801D01*
X225574020Y-160752801D01*
X225996914Y-161472028D01*
G37*
%TD.AperFunction*%
%TA.AperFunction,NonConductor*%
G36*
X231077866Y-163468058D02*
G01*
X231091772Y-163468497D01*
X231105493Y-163469235D01*
X231119026Y-163470276D01*
X231132369Y-163471624D01*
X231145520Y-163473284D01*
X231158476Y-163475261D01*
X231171236Y-163477559D01*
X231183797Y-163480182D01*
X231196156Y-163483136D01*
X231208313Y-163486424D01*
X231220263Y-163490051D01*
X231232005Y-163494022D01*
X231243538Y-163498341D01*
X231254857Y-163503012D01*
X231265962Y-163508041D01*
X231276814Y-163513087D01*
X231287374Y-163518384D01*
X231297640Y-163523929D01*
X231307610Y-163529721D01*
X231317282Y-163535757D01*
X231326652Y-163542035D01*
X231335720Y-163548553D01*
X231344483Y-163555308D01*
X231352938Y-163562298D01*
X231361083Y-163569521D01*
X231368917Y-163576975D01*
X231376436Y-163584657D01*
X231383639Y-163592565D01*
X231390523Y-163600697D01*
X231397085Y-163609050D01*
X231403325Y-163617623D01*
X231409510Y-163626649D01*
X231415331Y-163635788D01*
X231420786Y-163645044D01*
X231425873Y-163654423D01*
X231430589Y-163663929D01*
X231434931Y-163673565D01*
X231438899Y-163683337D01*
X231442488Y-163693249D01*
X231445698Y-163703306D01*
X231448526Y-163713513D01*
X231450970Y-163723873D01*
X231453027Y-163734391D01*
X231454695Y-163745072D01*
X231455972Y-163755920D01*
X231456856Y-163766940D01*
X231457344Y-163778136D01*
X231289113Y-163778136D01*
X231287756Y-163768714D01*
X231285999Y-163759546D01*
X231283839Y-163750637D01*
X231281275Y-163741987D01*
X231278304Y-163733600D01*
X231274924Y-163725477D01*
X231271132Y-163717621D01*
X231266927Y-163710034D01*
X231262305Y-163702718D01*
X231257265Y-163695676D01*
X231251805Y-163688910D01*
X231245922Y-163682422D01*
X231239614Y-163676214D01*
X231232879Y-163670288D01*
X231225714Y-163664648D01*
X231218117Y-163659295D01*
X231210159Y-163653977D01*
X231201917Y-163649019D01*
X231193394Y-163644417D01*
X231184596Y-163640171D01*
X231175526Y-163636278D01*
X231166190Y-163632734D01*
X231156591Y-163629540D01*
X231146734Y-163626691D01*
X231136625Y-163624185D01*
X231126266Y-163622021D01*
X231115663Y-163620196D01*
X231104821Y-163618708D01*
X231093744Y-163617555D01*
X231082435Y-163616734D01*
X231070901Y-163616243D01*
X231059145Y-163616080D01*
X231050808Y-163616170D01*
X231042584Y-163616438D01*
X231034478Y-163616883D01*
X231026493Y-163617502D01*
X231018635Y-163618293D01*
X231010909Y-163619254D01*
X231003318Y-163620382D01*
X230995867Y-163621674D01*
X230988560Y-163623130D01*
X230981403Y-163624746D01*
X230974400Y-163626520D01*
X230967555Y-163628451D01*
X230960872Y-163630535D01*
X230954357Y-163632770D01*
X230948014Y-163635155D01*
X230941847Y-163637687D01*
X230935572Y-163640363D01*
X230929479Y-163643182D01*
X230923572Y-163646141D01*
X230917852Y-163649238D01*
X230912323Y-163652471D01*
X230906985Y-163655837D01*
X230901842Y-163659334D01*
X230896896Y-163662960D01*
X230892149Y-163666713D01*
X230887602Y-163670590D01*
X230883260Y-163674589D01*
X230879123Y-163678708D01*
X230875194Y-163682944D01*
X230871475Y-163687296D01*
X230867969Y-163691761D01*
X230864677Y-163696336D01*
X230861313Y-163701003D01*
X230858166Y-163705744D01*
X230855236Y-163710563D01*
X230852523Y-163715460D01*
X230850027Y-163720439D01*
X230847748Y-163725501D01*
X230845686Y-163730649D01*
X230843841Y-163735886D01*
X230842213Y-163741213D01*
X230840803Y-163746632D01*
X230839609Y-163752147D01*
X230838632Y-163757759D01*
X230837872Y-163763470D01*
X230837330Y-163769283D01*
X230837004Y-163775200D01*
X230836896Y-163781223D01*
X230837022Y-163787789D01*
X230837402Y-163794179D01*
X230838035Y-163800397D01*
X230838922Y-163806448D01*
X230840061Y-163812336D01*
X230841454Y-163818066D01*
X230843100Y-163823642D01*
X230844999Y-163829069D01*
X230847151Y-163834351D01*
X230849557Y-163839493D01*
X230852216Y-163844499D01*
X230855128Y-163849374D01*
X230858293Y-163854122D01*
X230861711Y-163858749D01*
X230865383Y-163863258D01*
X230869308Y-163867654D01*
X230873414Y-163871651D01*
X230877631Y-163875539D01*
X230881961Y-163879320D01*
X230886406Y-163882991D01*
X230890969Y-163886554D01*
X230895651Y-163890009D01*
X230900456Y-163893355D01*
X230905385Y-163896592D01*
X230910440Y-163899722D01*
X230915625Y-163902742D01*
X230920940Y-163905654D01*
X230926389Y-163908457D01*
X230931974Y-163911152D01*
X230937697Y-163913739D01*
X230943559Y-163916217D01*
X230949564Y-163918586D01*
X230961134Y-163923584D01*
X230972667Y-163928184D01*
X230984128Y-163932422D01*
X230995481Y-163936335D01*
X231006689Y-163939959D01*
X231017715Y-163943329D01*
X231039082Y-163949454D01*
X231148664Y-163978779D01*
X231175552Y-163986062D01*
X231189169Y-163990011D01*
X231202875Y-163994213D01*
X231216654Y-163998704D01*
X231230488Y-164003521D01*
X231244357Y-164008700D01*
X231258245Y-164014277D01*
X231272503Y-164020282D01*
X231286364Y-164026720D01*
X231299863Y-164033593D01*
X231313036Y-164040900D01*
X231325920Y-164048641D01*
X231338550Y-164056817D01*
X231350963Y-164065426D01*
X231363196Y-164074469D01*
X231369201Y-164079155D01*
X231375061Y-164083953D01*
X231380776Y-164088869D01*
X231386347Y-164093907D01*
X231391773Y-164099071D01*
X231397054Y-164104367D01*
X231402191Y-164109798D01*
X231407183Y-164115370D01*
X231412030Y-164121086D01*
X231416733Y-164126951D01*
X231421291Y-164132970D01*
X231425704Y-164139148D01*
X231429972Y-164145488D01*
X231434096Y-164151995D01*
X231438075Y-164158674D01*
X231441910Y-164165530D01*
X231445546Y-164172276D01*
X231448930Y-164179204D01*
X231452067Y-164186312D01*
X231454956Y-164193601D01*
X231457602Y-164201070D01*
X231460006Y-164208721D01*
X231462170Y-164216553D01*
X231464096Y-164224565D01*
X231465788Y-164232758D01*
X231467247Y-164241133D01*
X231468475Y-164249688D01*
X231469474Y-164258424D01*
X231470248Y-164267340D01*
X231470798Y-164276438D01*
X231471126Y-164285717D01*
X231471235Y-164295176D01*
X231471054Y-164306968D01*
X231470508Y-164318613D01*
X231469597Y-164330109D01*
X231468317Y-164341454D01*
X231466666Y-164352644D01*
X231464642Y-164363679D01*
X231462243Y-164374556D01*
X231459466Y-164385272D01*
X231456309Y-164395825D01*
X231452771Y-164406213D01*
X231448848Y-164416434D01*
X231444538Y-164426485D01*
X231439840Y-164436365D01*
X231434750Y-164446070D01*
X231429267Y-164455599D01*
X231423389Y-164464950D01*
X231416877Y-164474084D01*
X231410071Y-164482967D01*
X231402967Y-164491602D01*
X231395559Y-164499990D01*
X231387845Y-164508134D01*
X231379818Y-164516036D01*
X231371475Y-164523698D01*
X231362810Y-164531123D01*
X231353821Y-164538313D01*
X231344501Y-164545270D01*
X231334846Y-164551996D01*
X231324853Y-164558494D01*
X231314515Y-164564766D01*
X231303830Y-164570814D01*
X231292792Y-164576641D01*
X231281396Y-164582248D01*
X231269404Y-164587294D01*
X231257154Y-164592015D01*
X231244642Y-164596410D01*
X231231863Y-164600479D01*
X231218812Y-164604223D01*
X231205486Y-164607642D01*
X231191880Y-164610735D01*
X231177988Y-164613502D01*
X231163807Y-164615944D01*
X231149333Y-164618060D01*
X231134560Y-164619851D01*
X231119483Y-164621316D01*
X231104100Y-164622455D01*
X231088404Y-164623269D01*
X231072392Y-164623758D01*
X231056059Y-164623920D01*
X231040287Y-164623758D01*
X231024802Y-164623272D01*
X231009602Y-164622465D01*
X230994685Y-164621340D01*
X230980048Y-164619898D01*
X230965689Y-164618141D01*
X230951606Y-164616073D01*
X230937796Y-164613695D01*
X230924258Y-164611009D01*
X230910988Y-164608019D01*
X230897986Y-164604725D01*
X230885248Y-164601130D01*
X230872772Y-164597238D01*
X230860556Y-164593049D01*
X230848598Y-164588566D01*
X230836896Y-164583791D01*
X230825483Y-164578727D01*
X230814393Y-164573376D01*
X230803624Y-164567741D01*
X230793174Y-164561822D01*
X230783041Y-164555623D01*
X230773222Y-164549146D01*
X230763714Y-164542394D01*
X230754517Y-164535367D01*
X230745627Y-164528070D01*
X230737042Y-164520503D01*
X230728760Y-164512670D01*
X230720779Y-164504572D01*
X230713097Y-164496211D01*
X230705710Y-164487591D01*
X230698618Y-164478713D01*
X230691817Y-164469579D01*
X230685614Y-164460210D01*
X230679741Y-164450625D01*
X230674202Y-164440822D01*
X230669003Y-164430802D01*
X230664147Y-164420565D01*
X230659640Y-164410111D01*
X230655485Y-164399439D01*
X230651688Y-164388551D01*
X230648252Y-164377446D01*
X230645182Y-164366124D01*
X230642484Y-164354585D01*
X230640160Y-164342828D01*
X230638217Y-164330855D01*
X230636657Y-164318664D01*
X230635487Y-164306257D01*
X230634710Y-164293632D01*
X230806028Y-164293632D01*
X230806987Y-164301084D01*
X230808132Y-164308388D01*
X230809467Y-164315543D01*
X230810996Y-164322547D01*
X230812724Y-164329397D01*
X230814655Y-164336091D01*
X230816795Y-164342627D01*
X230819147Y-164349002D01*
X230821716Y-164355214D01*
X230824507Y-164361261D01*
X230827523Y-164367141D01*
X230830771Y-164372852D01*
X230834253Y-164378391D01*
X230837975Y-164383755D01*
X230841941Y-164388943D01*
X230846156Y-164393953D01*
X230850570Y-164399072D01*
X230855130Y-164404009D01*
X230859840Y-164408766D01*
X230864701Y-164413342D01*
X230869716Y-164417737D01*
X230874887Y-164421951D01*
X230880216Y-164425985D01*
X230885706Y-164429837D01*
X230891359Y-164433509D01*
X230897176Y-164437000D01*
X230903161Y-164440309D01*
X230909315Y-164443438D01*
X230915641Y-164446387D01*
X230922142Y-164449154D01*
X230928818Y-164451740D01*
X230935674Y-164454146D01*
X230942638Y-164456660D01*
X230949642Y-164458996D01*
X230956693Y-164461155D01*
X230963792Y-164463141D01*
X230970946Y-164464954D01*
X230978159Y-164466598D01*
X230985436Y-164468075D01*
X230992780Y-164469386D01*
X231000196Y-164470535D01*
X231007689Y-164471524D01*
X231015264Y-164472354D01*
X231022924Y-164473028D01*
X231030675Y-164473548D01*
X231038521Y-164473917D01*
X231054516Y-164474210D01*
X231063415Y-164474119D01*
X231072172Y-164473848D01*
X231080788Y-164473396D01*
X231089267Y-164472763D01*
X231097610Y-164471949D01*
X231105819Y-164470954D01*
X231113898Y-164469778D01*
X231121847Y-164468422D01*
X231129670Y-164466884D01*
X231137368Y-164465166D01*
X231144945Y-164463267D01*
X231152401Y-164461187D01*
X231159740Y-164458926D01*
X231166964Y-164456485D01*
X231174075Y-164453862D01*
X231181075Y-164451059D01*
X231188201Y-164448110D01*
X231195110Y-164445048D01*
X231201802Y-164441869D01*
X231208277Y-164438567D01*
X231214535Y-164435139D01*
X231220576Y-164431579D01*
X231226400Y-164427884D01*
X231232007Y-164424049D01*
X231237397Y-164420070D01*
X231242570Y-164415940D01*
X231247526Y-164411658D01*
X231252264Y-164407217D01*
X231256786Y-164402613D01*
X231261091Y-164397842D01*
X231265178Y-164392899D01*
X231269049Y-164387779D01*
X231272974Y-164382534D01*
X231276645Y-164377214D01*
X231280064Y-164371817D01*
X231283229Y-164366341D01*
X231286141Y-164360783D01*
X231288800Y-164355142D01*
X231291205Y-164349415D01*
X231293357Y-164343600D01*
X231295256Y-164337694D01*
X231296902Y-164331696D01*
X231298295Y-164325602D01*
X231299435Y-164319412D01*
X231300321Y-164313122D01*
X231300954Y-164306730D01*
X231301334Y-164300234D01*
X231301460Y-164293632D01*
X231301352Y-164287356D01*
X231301026Y-164281255D01*
X231300484Y-164275326D01*
X231299724Y-164269565D01*
X231298747Y-164263966D01*
X231297553Y-164258526D01*
X231296143Y-164253239D01*
X231294515Y-164248102D01*
X231292670Y-164243109D01*
X231290608Y-164238256D01*
X231288329Y-164233540D01*
X231285833Y-164228954D01*
X231283120Y-164224495D01*
X231280190Y-164220158D01*
X231277043Y-164215938D01*
X231273679Y-164211832D01*
X231270133Y-164208106D01*
X231266441Y-164204453D01*
X231262600Y-164200871D01*
X231258607Y-164197362D01*
X231254460Y-164193926D01*
X231250157Y-164190562D01*
X231245696Y-164187270D01*
X231241074Y-164184051D01*
X231236290Y-164180903D01*
X231231341Y-164177829D01*
X231226224Y-164174826D01*
X231220938Y-164171896D01*
X231215480Y-164169039D01*
X231209848Y-164166253D01*
X231204039Y-164163540D01*
X231198052Y-164160900D01*
X231185747Y-164155763D01*
X231173117Y-164150771D01*
X231160125Y-164145924D01*
X231146734Y-164141221D01*
X231132910Y-164136664D01*
X231118615Y-164132250D01*
X231103814Y-164127982D01*
X231088470Y-164123858D01*
X230957281Y-164088360D01*
X230940425Y-164083585D01*
X230924008Y-164078524D01*
X230908034Y-164073177D01*
X230892507Y-164067548D01*
X230877432Y-164061639D01*
X230862814Y-164055451D01*
X230848658Y-164048988D01*
X230834967Y-164042251D01*
X230821746Y-164035243D01*
X230809000Y-164027965D01*
X230796734Y-164020421D01*
X230784951Y-164012613D01*
X230773657Y-164004542D01*
X230762855Y-163996211D01*
X230752551Y-163987623D01*
X230742749Y-163978779D01*
X230733235Y-163969373D01*
X230724367Y-163959673D01*
X230716141Y-163949675D01*
X230708553Y-163939374D01*
X230701597Y-163928765D01*
X230695271Y-163917844D01*
X230689568Y-163906607D01*
X230684485Y-163895049D01*
X230680017Y-163883165D01*
X230676159Y-163870951D01*
X230672907Y-163858403D01*
X230670257Y-163845515D01*
X230668203Y-163832284D01*
X230666742Y-163818705D01*
X230665869Y-163804773D01*
X230665578Y-163790483D01*
X230665778Y-163778420D01*
X230666377Y-163766540D01*
X230667379Y-163754845D01*
X230668786Y-163743337D01*
X230670599Y-163732020D01*
X230672822Y-163720895D01*
X230675456Y-163709964D01*
X230678504Y-163699230D01*
X230681968Y-163688695D01*
X230685851Y-163678361D01*
X230690153Y-163668231D01*
X230694879Y-163658306D01*
X230700029Y-163648589D01*
X230705607Y-163639083D01*
X230711614Y-163629789D01*
X230718053Y-163620710D01*
X230724583Y-163611848D01*
X230731435Y-163603208D01*
X230738608Y-163594794D01*
X230746101Y-163586610D01*
X230753909Y-163578662D01*
X230762032Y-163570953D01*
X230770467Y-163563489D01*
X230779212Y-163556273D01*
X230788264Y-163549310D01*
X230797621Y-163542605D01*
X230807281Y-163536162D01*
X230817242Y-163529986D01*
X230827501Y-163524082D01*
X230838057Y-163518453D01*
X230848906Y-163513105D01*
X230860047Y-163508041D01*
X230871424Y-163503012D01*
X230882981Y-163498341D01*
X230894719Y-163494022D01*
X230906638Y-163490051D01*
X230918738Y-163486424D01*
X230931019Y-163483136D01*
X230943481Y-163480182D01*
X230956124Y-163477559D01*
X230968947Y-163475261D01*
X230981952Y-163473284D01*
X230995137Y-163471624D01*
X231008503Y-163470276D01*
X231022050Y-163469235D01*
X231035778Y-163468497D01*
X231049687Y-163468058D01*
X231063776Y-163467913D01*
X231077866Y-163468058D01*
G37*
%TD.AperFunction*%
%TA.AperFunction,NonConductor*%
G36*
X229253585Y-164605399D02*
G01*
X229080724Y-164605399D01*
X229080724Y-163481803D01*
X229253585Y-163481803D01*
X229253585Y-164605399D01*
G37*
%TD.AperFunction*%
%TA.AperFunction,NonConductor*%
G36*
X223558569Y-163482074D02*
G01*
X223578811Y-163482886D01*
X223598659Y-163484235D01*
X223618116Y-163486120D01*
X223637185Y-163488539D01*
X223655866Y-163491489D01*
X223674164Y-163494968D01*
X223692079Y-163498974D01*
X223709615Y-163503504D01*
X223726772Y-163508557D01*
X223743555Y-163514130D01*
X223759965Y-163520220D01*
X223776003Y-163526826D01*
X223791674Y-163533945D01*
X223806978Y-163541575D01*
X223821918Y-163549713D01*
X223836460Y-163558340D01*
X223850570Y-163567435D01*
X223864251Y-163576996D01*
X223877504Y-163587020D01*
X223890333Y-163597506D01*
X223902738Y-163608450D01*
X223914724Y-163619851D01*
X223926290Y-163631706D01*
X223937441Y-163644014D01*
X223948178Y-163656772D01*
X223958504Y-163669977D01*
X223968420Y-163683627D01*
X223977930Y-163697721D01*
X223987035Y-163712256D01*
X223995737Y-163727229D01*
X224004039Y-163742638D01*
X224011617Y-163758464D01*
X224018723Y-163774685D01*
X224025353Y-163791300D01*
X224031507Y-163808305D01*
X224037181Y-163825700D01*
X224042374Y-163843481D01*
X224047083Y-163861646D01*
X224051306Y-163880194D01*
X224055041Y-163899121D01*
X224058285Y-163918426D01*
X224061036Y-163938106D01*
X224063292Y-163958160D01*
X224065050Y-163978584D01*
X224066309Y-163999376D01*
X224067066Y-164020535D01*
X224067319Y-164042058D01*
X224067066Y-164063853D01*
X224066309Y-164085252D01*
X224065050Y-164106258D01*
X224063292Y-164126872D01*
X224061036Y-164147098D01*
X224058285Y-164166938D01*
X224055041Y-164186392D01*
X224051306Y-164205465D01*
X224047083Y-164224158D01*
X224042374Y-164242474D01*
X224037181Y-164260414D01*
X224031507Y-164277981D01*
X224025353Y-164295177D01*
X224018723Y-164312005D01*
X224011617Y-164328466D01*
X224004039Y-164344564D01*
X223995719Y-164359974D01*
X223986965Y-164374947D01*
X223977777Y-164389481D01*
X223968155Y-164403575D01*
X223958099Y-164417226D01*
X223947609Y-164430431D01*
X223936684Y-164443188D01*
X223925326Y-164455496D01*
X223913533Y-164467351D01*
X223901307Y-164478753D01*
X223888646Y-164489697D01*
X223875551Y-164500182D01*
X223862022Y-164510207D01*
X223848059Y-164519767D01*
X223833662Y-164528862D01*
X223818831Y-164537489D01*
X223803584Y-164545628D01*
X223787939Y-164553258D01*
X223771896Y-164560377D01*
X223755455Y-164566983D01*
X223738616Y-164573073D01*
X223721380Y-164578646D01*
X223703745Y-164583698D01*
X223685713Y-164588229D01*
X223667282Y-164592235D01*
X223648454Y-164595714D01*
X223629228Y-164598664D01*
X223609604Y-164601083D01*
X223589582Y-164602968D01*
X223569162Y-164604317D01*
X223548344Y-164605128D01*
X223527128Y-164605399D01*
X223249316Y-164605399D01*
X223162885Y-164605399D01*
X223162885Y-164455689D01*
X223162885Y-163633057D01*
X223334203Y-163633057D01*
X223334203Y-164455689D01*
X223517868Y-164455689D01*
X223533621Y-164455491D01*
X223549046Y-164454899D01*
X223564141Y-164453919D01*
X223578904Y-164452554D01*
X223593333Y-164450810D01*
X223607424Y-164448690D01*
X223621176Y-164446199D01*
X223634587Y-164443342D01*
X223647655Y-164440123D01*
X223660376Y-164436547D01*
X223672749Y-164432619D01*
X223684772Y-164428342D01*
X223696442Y-164423722D01*
X223707757Y-164418762D01*
X223718715Y-164413468D01*
X223729314Y-164407844D01*
X223739841Y-164401603D01*
X223750008Y-164395035D01*
X223759818Y-164388137D01*
X223769273Y-164380907D01*
X223778376Y-164373342D01*
X223787128Y-164365440D01*
X223795532Y-164357198D01*
X223803590Y-164348616D01*
X223811304Y-164339690D01*
X223818677Y-164330418D01*
X223825711Y-164320797D01*
X223832408Y-164310827D01*
X223838771Y-164300503D01*
X223844801Y-164289825D01*
X223850501Y-164278789D01*
X223855873Y-164267394D01*
X223860936Y-164255673D01*
X223865706Y-164243658D01*
X223870177Y-164231345D01*
X223874345Y-164218729D01*
X223878206Y-164205805D01*
X223881755Y-164192569D01*
X223884987Y-164179017D01*
X223887898Y-164165144D01*
X223890484Y-164150945D01*
X223892740Y-164136416D01*
X223894660Y-164121553D01*
X223896242Y-164106350D01*
X223897481Y-164090804D01*
X223898371Y-164074909D01*
X223898908Y-164058662D01*
X223899088Y-164042058D01*
X223898908Y-164025726D01*
X223898371Y-164009719D01*
X223897481Y-163994038D01*
X223896242Y-163978682D01*
X223894660Y-163963652D01*
X223892740Y-163948947D01*
X223890484Y-163934569D01*
X223887898Y-163920515D01*
X223884987Y-163906787D01*
X223881755Y-163893385D01*
X223878206Y-163880308D01*
X223874345Y-163867557D01*
X223870177Y-163855132D01*
X223865706Y-163843031D01*
X223860936Y-163831257D01*
X223855873Y-163819808D01*
X223850501Y-163808414D01*
X223844807Y-163797381D01*
X223838791Y-163786710D01*
X223832456Y-163776400D01*
X223825805Y-163766452D01*
X223818840Y-163756866D01*
X223811563Y-163747642D01*
X223803976Y-163738780D01*
X223796081Y-163730279D01*
X223787882Y-163722140D01*
X223779379Y-163714363D01*
X223770576Y-163706947D01*
X223761474Y-163699893D01*
X223752076Y-163693201D01*
X223742384Y-163686871D01*
X223732401Y-163680902D01*
X223721837Y-163675024D01*
X223710983Y-163669541D01*
X223699834Y-163664451D01*
X223688389Y-163659753D01*
X223676646Y-163655443D01*
X223664602Y-163651520D01*
X223652256Y-163647982D01*
X223639603Y-163644825D01*
X223626644Y-163642049D01*
X223613375Y-163639650D01*
X223599793Y-163637626D01*
X223585898Y-163635975D01*
X223571686Y-163634695D01*
X223557155Y-163633783D01*
X223542303Y-163633238D01*
X223527128Y-163633057D01*
X223334203Y-163633057D01*
X223162885Y-163633057D01*
X223162885Y-163481803D01*
X223334203Y-163481803D01*
X223537932Y-163481803D01*
X223558569Y-163482074D01*
G37*
%TD.AperFunction*%
%TA.AperFunction,NonConductor*%
G36*
X230537863Y-162089390D02*
G01*
X230559278Y-162125323D01*
X230581850Y-162163860D01*
X230605580Y-162205290D01*
X230630467Y-162249905D01*
X230644364Y-162273351D01*
X230658297Y-162297412D01*
X230686416Y-162347525D01*
X230715113Y-162400531D01*
X230744679Y-162456721D01*
X230772943Y-162515756D01*
X230801785Y-162577107D01*
X230807664Y-162590085D01*
X230806801Y-162580193D01*
X230797155Y-162453634D01*
X230792525Y-162331705D01*
X230787894Y-162219036D01*
X230786110Y-162165741D01*
X230785194Y-162116786D01*
X230784857Y-162071882D01*
X230784808Y-162030741D01*
X230784808Y-160752801D01*
X231133618Y-160752801D01*
X231133618Y-163000000D01*
X230735419Y-163000000D01*
X229976063Y-161805404D01*
X229916255Y-161705468D01*
X229887076Y-161656513D01*
X229858764Y-161607848D01*
X229828522Y-161555661D01*
X229797412Y-161500581D01*
X229729117Y-161379424D01*
X229692606Y-161309344D01*
X229652333Y-161233186D01*
X229619314Y-161171712D01*
X229627252Y-161370163D01*
X229631352Y-161440147D01*
X229634583Y-161506369D01*
X229639600Y-161626369D01*
X229643844Y-161725918D01*
X229645242Y-161767012D01*
X229645773Y-161802317D01*
X229645773Y-163000000D01*
X229296963Y-163000000D01*
X229296963Y-160752801D01*
X229692075Y-160752801D01*
X230537863Y-162089390D01*
G37*
%TD.AperFunction*%
%TA.AperFunction,NonConductor*%
G36*
X224337215Y-160753163D02*
G01*
X224368644Y-160754248D01*
X224399414Y-160756057D01*
X224429519Y-160758589D01*
X224458954Y-160761844D01*
X224487716Y-160765824D01*
X224515799Y-160770526D01*
X224543200Y-160775952D01*
X224569914Y-160782102D01*
X224595935Y-160788975D01*
X224621261Y-160796571D01*
X224645885Y-160804891D01*
X224669804Y-160813934D01*
X224693013Y-160823701D01*
X224715508Y-160834192D01*
X224737284Y-160845405D01*
X224758916Y-160856691D01*
X224779824Y-160868550D01*
X224800009Y-160880980D01*
X224819470Y-160893974D01*
X224838208Y-160907530D01*
X224856222Y-160921641D01*
X224873513Y-160936304D01*
X224890081Y-160951515D01*
X224905925Y-160967267D01*
X224921046Y-160983558D01*
X224935443Y-161000383D01*
X224949116Y-161017736D01*
X224962066Y-161035615D01*
X224974293Y-161054013D01*
X224985796Y-161072926D01*
X224996576Y-161092351D01*
X225007212Y-161112754D01*
X225017129Y-161133456D01*
X225026331Y-161154465D01*
X225034824Y-161175791D01*
X225042611Y-161197442D01*
X225049697Y-161219428D01*
X225056087Y-161241758D01*
X225061785Y-161264440D01*
X225066796Y-161287484D01*
X225071124Y-161310899D01*
X225074774Y-161334694D01*
X225077750Y-161358877D01*
X225080057Y-161383459D01*
X225081699Y-161408447D01*
X225082681Y-161433851D01*
X225083007Y-161459681D01*
X225082681Y-161485510D01*
X225081699Y-161510909D01*
X225080057Y-161535883D01*
X225077750Y-161560436D01*
X225074774Y-161584574D01*
X225071124Y-161608300D01*
X225066796Y-161631619D01*
X225061785Y-161654536D01*
X225056087Y-161677055D01*
X225049697Y-161699180D01*
X225042611Y-161720917D01*
X225034824Y-161742269D01*
X225026331Y-161763241D01*
X225017129Y-161783838D01*
X225007212Y-161804065D01*
X224996576Y-161823925D01*
X224985254Y-161843314D01*
X224973280Y-161862124D01*
X224960656Y-161880355D01*
X224947380Y-161898008D01*
X224933453Y-161915082D01*
X224918875Y-161931577D01*
X224903646Y-161947493D01*
X224887766Y-161962831D01*
X224871235Y-161977590D01*
X224854052Y-161991770D01*
X224836218Y-162005371D01*
X224817734Y-162018394D01*
X224798598Y-162030837D01*
X224778811Y-162042702D01*
X224758373Y-162053988D01*
X224737284Y-162064696D01*
X224715507Y-162075332D01*
X224693007Y-162085248D01*
X224673249Y-162093078D01*
X225169438Y-163000000D01*
X224777412Y-163000000D01*
X224323190Y-162150915D01*
X224302043Y-162151127D01*
X223845194Y-162151127D01*
X223845194Y-163000000D01*
X223502558Y-163000000D01*
X223502558Y-161857880D01*
X223502558Y-161049135D01*
X223845194Y-161049135D01*
X223845194Y-161857880D01*
X224268088Y-161857880D01*
X224308747Y-161857156D01*
X224347380Y-161854986D01*
X224365937Y-161853358D01*
X224383988Y-161851368D01*
X224401532Y-161849017D01*
X224418570Y-161846304D01*
X224435101Y-161843229D01*
X224451126Y-161839793D01*
X224466645Y-161835995D01*
X224481657Y-161831835D01*
X224496162Y-161827313D01*
X224510162Y-161822430D01*
X224523654Y-161817184D01*
X224536641Y-161811578D01*
X224549158Y-161805100D01*
X224561245Y-161798392D01*
X224572907Y-161791440D01*
X224584149Y-161784230D01*
X224594974Y-161776749D01*
X224605389Y-161768983D01*
X224615396Y-161760919D01*
X224625001Y-161752542D01*
X224634208Y-161743840D01*
X224643021Y-161734799D01*
X224651446Y-161725405D01*
X224659486Y-161715645D01*
X224667147Y-161705505D01*
X224674432Y-161694972D01*
X224681346Y-161684031D01*
X224687894Y-161672671D01*
X224693501Y-161661529D01*
X224698747Y-161650099D01*
X224703630Y-161638378D01*
X224708152Y-161626369D01*
X224712312Y-161614070D01*
X224716110Y-161601481D01*
X224719546Y-161588604D01*
X224722621Y-161575436D01*
X224725334Y-161561980D01*
X224727686Y-161548234D01*
X224729675Y-161534198D01*
X224731303Y-161519874D01*
X224732569Y-161505260D01*
X224733473Y-161490356D01*
X224734016Y-161475163D01*
X224734197Y-161459681D01*
X224734016Y-161444163D01*
X224733473Y-161428867D01*
X224732569Y-161413797D01*
X224731303Y-161398957D01*
X224729675Y-161384353D01*
X224727686Y-161369988D01*
X224725334Y-161355868D01*
X224722621Y-161341996D01*
X224719546Y-161328378D01*
X224716110Y-161315017D01*
X224712312Y-161301918D01*
X224708152Y-161289086D01*
X224703630Y-161276526D01*
X224698747Y-161264241D01*
X224693501Y-161252237D01*
X224687894Y-161240517D01*
X224681346Y-161229122D01*
X224674432Y-161218084D01*
X224667147Y-161207398D01*
X224659486Y-161197061D01*
X224651446Y-161187067D01*
X224643021Y-161177413D01*
X224634208Y-161168093D01*
X224625001Y-161159103D01*
X224615396Y-161150438D01*
X224605389Y-161142095D01*
X224594974Y-161134068D01*
X224584149Y-161126354D01*
X224572907Y-161118946D01*
X224561245Y-161111842D01*
X224549158Y-161105036D01*
X224536641Y-161098524D01*
X224523654Y-161092374D01*
X224510162Y-161086653D01*
X224496162Y-161081357D01*
X224481657Y-161076482D01*
X224466645Y-161072023D01*
X224451126Y-161067975D01*
X224435101Y-161064335D01*
X224418570Y-161061096D01*
X224401532Y-161058256D01*
X224383988Y-161055809D01*
X224365937Y-161053751D01*
X224347380Y-161052077D01*
X224328317Y-161050783D01*
X224308747Y-161049864D01*
X224288671Y-161049316D01*
X224268088Y-161049135D01*
X223845194Y-161049135D01*
X223502558Y-161049135D01*
X223502558Y-160752801D01*
X224305129Y-160752801D01*
X224337215Y-160753163D01*
G37*
%TD.AperFunction*%
%TA.AperFunction,NonConductor*%
G36*
X230012335Y-163468277D02*
G01*
X230033894Y-163469384D01*
X230055164Y-163471250D01*
X230076145Y-163473893D01*
X230096836Y-163477333D01*
X230117238Y-163481586D01*
X230137350Y-163486672D01*
X230157173Y-163492607D01*
X230166940Y-163495881D01*
X230176562Y-163499336D01*
X230186040Y-163502971D01*
X230195372Y-163506787D01*
X230204560Y-163510785D01*
X230213604Y-163514963D01*
X230222503Y-163519322D01*
X230231256Y-163523861D01*
X230239866Y-163528582D01*
X230248330Y-163533484D01*
X230256650Y-163538566D01*
X230264825Y-163543829D01*
X230272856Y-163549273D01*
X230280742Y-163554898D01*
X230288483Y-163560704D01*
X230296079Y-163566691D01*
X230303802Y-163573113D01*
X230311345Y-163579650D01*
X230318706Y-163586309D01*
X230325887Y-163593097D01*
X230332886Y-163600021D01*
X230339705Y-163607087D01*
X230346343Y-163614303D01*
X230352800Y-163621674D01*
X230359076Y-163629209D01*
X230365171Y-163636912D01*
X230371085Y-163644793D01*
X230376819Y-163652856D01*
X230382371Y-163661109D01*
X230387743Y-163669559D01*
X230392934Y-163678212D01*
X230397944Y-163687076D01*
X230403044Y-163695830D01*
X230407928Y-163704731D01*
X230412594Y-163713782D01*
X230417044Y-163722984D01*
X230421276Y-163732340D01*
X230425291Y-163741851D01*
X230429089Y-163751521D01*
X230432671Y-163761352D01*
X230436035Y-163771345D01*
X230439182Y-163781503D01*
X230442112Y-163791829D01*
X230444825Y-163802324D01*
X230447321Y-163812991D01*
X230449600Y-163823832D01*
X230451662Y-163834850D01*
X230453506Y-163846046D01*
X230280646Y-163846046D01*
X230277535Y-163832882D01*
X230273990Y-163820025D01*
X230270011Y-163807494D01*
X230265598Y-163795307D01*
X230260751Y-163783481D01*
X230258164Y-163777709D01*
X230255469Y-163772035D01*
X230252666Y-163766460D01*
X230249754Y-163760987D01*
X230246733Y-163755618D01*
X230243604Y-163750355D01*
X230240095Y-163745472D01*
X230236511Y-163740661D01*
X230232850Y-163735922D01*
X230229111Y-163731256D01*
X230225289Y-163726661D01*
X230221385Y-163722140D01*
X230217394Y-163717690D01*
X230213315Y-163713313D01*
X230209146Y-163709009D01*
X230204883Y-163704777D01*
X230200526Y-163700617D01*
X230196072Y-163696529D01*
X230191518Y-163692514D01*
X230186863Y-163688571D01*
X230182103Y-163684700D01*
X230177238Y-163680902D01*
X230172554Y-163677483D01*
X230167766Y-163674171D01*
X230162879Y-163670962D01*
X230157897Y-163667856D01*
X230152825Y-163664848D01*
X230147666Y-163661938D01*
X230142426Y-163659123D01*
X230137109Y-163656401D01*
X230131720Y-163653769D01*
X230126263Y-163651225D01*
X230115164Y-163646393D01*
X230103848Y-163641886D01*
X230092351Y-163637687D01*
X230080190Y-163634431D01*
X230067994Y-163631610D01*
X230055725Y-163629222D01*
X230043347Y-163627269D01*
X230030825Y-163625750D01*
X230018123Y-163624665D01*
X230005203Y-163624013D01*
X229992030Y-163623796D01*
X229979965Y-163623995D01*
X229968080Y-163624589D01*
X229956370Y-163625577D01*
X229944835Y-163626956D01*
X229933472Y-163628723D01*
X229922278Y-163630877D01*
X229911252Y-163633416D01*
X229900390Y-163636337D01*
X229889691Y-163639637D01*
X229879153Y-163643315D01*
X229868773Y-163647368D01*
X229858549Y-163651795D01*
X229848479Y-163656592D01*
X229838560Y-163661757D01*
X229828791Y-163667289D01*
X229819168Y-163673185D01*
X229809745Y-163679443D01*
X229800575Y-163686060D01*
X229791658Y-163693034D01*
X229782995Y-163700364D01*
X229774585Y-163708045D01*
X229766428Y-163716078D01*
X229758524Y-163724458D01*
X229750873Y-163733185D01*
X229743475Y-163742255D01*
X229736331Y-163751666D01*
X229729440Y-163761417D01*
X229722802Y-163771505D01*
X229716418Y-163781927D01*
X229710286Y-163792681D01*
X229704408Y-163803766D01*
X229698783Y-163815178D01*
X229693465Y-163827188D01*
X229688507Y-163839492D01*
X229683905Y-163852095D01*
X229679659Y-163865001D01*
X229675766Y-163878214D01*
X229672223Y-163891739D01*
X229669028Y-163905581D01*
X229666179Y-163919743D01*
X229663673Y-163934232D01*
X229661509Y-163949050D01*
X229659684Y-163964203D01*
X229658196Y-163979695D01*
X229657043Y-163995531D01*
X229656222Y-164011714D01*
X229655731Y-164028251D01*
X229655568Y-164045145D01*
X229655731Y-164061784D01*
X229656222Y-164078129D01*
X229657043Y-164094175D01*
X229658196Y-164109919D01*
X229659684Y-164125356D01*
X229661509Y-164140480D01*
X229663673Y-164155288D01*
X229666179Y-164169774D01*
X229669028Y-164183935D01*
X229672223Y-164197767D01*
X229675766Y-164211263D01*
X229679659Y-164224420D01*
X229683905Y-164237234D01*
X229688507Y-164249700D01*
X229693465Y-164261812D01*
X229698783Y-164273568D01*
X229704408Y-164285252D01*
X229710286Y-164296571D01*
X229716418Y-164307525D01*
X229722802Y-164318110D01*
X229729440Y-164328324D01*
X229736331Y-164338165D01*
X229743475Y-164347630D01*
X229750873Y-164356719D01*
X229758524Y-164365427D01*
X229766428Y-164373753D01*
X229774585Y-164381695D01*
X229782995Y-164389251D01*
X229791658Y-164396417D01*
X229800575Y-164403192D01*
X229809745Y-164409574D01*
X229819168Y-164415561D01*
X229828791Y-164421439D01*
X229838560Y-164426922D01*
X229848479Y-164432012D01*
X229858549Y-164436710D01*
X229868773Y-164441020D01*
X229879153Y-164444943D01*
X229889691Y-164448481D01*
X229900390Y-164451638D01*
X229911252Y-164454415D01*
X229922278Y-164456814D01*
X229933472Y-164458838D01*
X229944835Y-164460488D01*
X229956370Y-164461768D01*
X229968080Y-164462680D01*
X229979965Y-164463225D01*
X229992030Y-164463406D01*
X230004757Y-164463189D01*
X230017447Y-164462538D01*
X230030066Y-164461453D01*
X230042576Y-164459934D01*
X230054941Y-164457980D01*
X230067125Y-164455593D01*
X230079093Y-164452771D01*
X230090807Y-164449516D01*
X230102813Y-164445316D01*
X230114513Y-164440810D01*
X230125886Y-164435978D01*
X230136916Y-164430802D01*
X230142297Y-164428079D01*
X230147585Y-164425264D01*
X230152777Y-164422354D01*
X230157873Y-164419347D01*
X230162869Y-164416240D01*
X230167763Y-164413032D01*
X230172554Y-164409719D01*
X230177238Y-164406300D01*
X230182103Y-164402773D01*
X230186863Y-164399138D01*
X230191518Y-164395394D01*
X230196072Y-164391541D01*
X230200526Y-164387580D01*
X230204883Y-164383511D01*
X230209146Y-164379333D01*
X230213315Y-164375046D01*
X230217394Y-164370651D01*
X230221385Y-164366148D01*
X230225289Y-164361536D01*
X230229111Y-164356815D01*
X230232850Y-164351986D01*
X230236511Y-164347048D01*
X230240095Y-164342002D01*
X230243604Y-164336848D01*
X230246733Y-164331602D01*
X230249754Y-164326279D01*
X230252666Y-164320875D01*
X230255469Y-164315385D01*
X230258164Y-164309804D01*
X230260751Y-164304129D01*
X230263228Y-164298354D01*
X230265598Y-164292475D01*
X230267859Y-164286487D01*
X230270011Y-164280387D01*
X230272055Y-164274169D01*
X230273990Y-164267829D01*
X230275817Y-164261362D01*
X230277535Y-164254764D01*
X230279145Y-164248030D01*
X230280646Y-164241157D01*
X230453506Y-164241157D01*
X230451934Y-164251520D01*
X230450112Y-164261775D01*
X230448047Y-164271922D01*
X230445742Y-164281960D01*
X230443201Y-164291890D01*
X230440430Y-164301711D01*
X230437433Y-164311423D01*
X230434214Y-164321027D01*
X230430779Y-164330523D01*
X230427130Y-164339910D01*
X230423274Y-164349188D01*
X230419214Y-164358358D01*
X230414955Y-164367420D01*
X230410502Y-164376373D01*
X230405859Y-164385217D01*
X230401031Y-164393953D01*
X230396038Y-164402562D01*
X230390896Y-164411027D01*
X230385601Y-164419347D01*
X230380147Y-164427522D01*
X230374530Y-164435552D01*
X230368746Y-164443438D01*
X230362790Y-164451179D01*
X230356658Y-164458776D01*
X230350345Y-164466228D01*
X230343847Y-164473535D01*
X230337158Y-164480697D01*
X230330276Y-164487715D01*
X230323194Y-164494588D01*
X230315909Y-164501316D01*
X230308416Y-164507900D01*
X230300710Y-164514339D01*
X230293114Y-164520615D01*
X230285373Y-164526710D01*
X230277487Y-164532624D01*
X230269456Y-164538358D01*
X230261281Y-164543910D01*
X230252961Y-164549282D01*
X230244497Y-164554473D01*
X230235888Y-164559483D01*
X230227134Y-164564312D01*
X230218235Y-164568960D01*
X230209192Y-164573428D01*
X230200003Y-164577714D01*
X230190671Y-164581820D01*
X230181193Y-164585745D01*
X230171571Y-164589489D01*
X230161804Y-164593052D01*
X230151911Y-164596416D01*
X230141909Y-164599563D01*
X230131798Y-164602493D01*
X230121579Y-164605206D01*
X230111251Y-164607702D01*
X230100815Y-164609981D01*
X230090271Y-164612043D01*
X230079618Y-164613888D01*
X230068856Y-164615516D01*
X230057986Y-164616927D01*
X230047007Y-164618121D01*
X230035920Y-164619097D01*
X230024724Y-164619857D01*
X230013420Y-164620399D01*
X229990486Y-164620834D01*
X229972381Y-164620562D01*
X229954527Y-164619748D01*
X229936921Y-164618392D01*
X229919562Y-164616493D01*
X229902447Y-164614051D01*
X229885574Y-164611067D01*
X229868941Y-164607540D01*
X229852545Y-164603470D01*
X229836384Y-164598858D01*
X229820456Y-164593703D01*
X229804758Y-164588006D01*
X229789289Y-164581766D01*
X229774046Y-164574983D01*
X229759027Y-164567658D01*
X229744229Y-164559790D01*
X229729651Y-164551380D01*
X229715652Y-164542464D01*
X229702017Y-164533079D01*
X229688749Y-164523229D01*
X229675849Y-164512916D01*
X229663319Y-164502141D01*
X229651163Y-164490907D01*
X229639382Y-164479217D01*
X229627979Y-164467072D01*
X229616956Y-164454475D01*
X229606314Y-164441428D01*
X229596057Y-164427933D01*
X229586187Y-164413993D01*
X229576705Y-164399610D01*
X229567615Y-164384786D01*
X229558918Y-164369523D01*
X229550616Y-164353825D01*
X229542495Y-164337420D01*
X229534914Y-164320620D01*
X229527871Y-164303427D01*
X229521364Y-164285843D01*
X229515391Y-164267869D01*
X229509948Y-164249510D01*
X229505035Y-164230765D01*
X229500649Y-164211639D01*
X229496787Y-164192133D01*
X229493447Y-164172249D01*
X229490627Y-164151990D01*
X229488325Y-164131358D01*
X229486539Y-164110355D01*
X229485266Y-164088984D01*
X229484503Y-164067246D01*
X229484250Y-164045145D01*
X229484503Y-164022771D01*
X229485266Y-164000796D01*
X229486539Y-163979219D01*
X229488325Y-163958039D01*
X229490627Y-163937257D01*
X229493447Y-163916874D01*
X229496787Y-163896888D01*
X229500649Y-163877300D01*
X229505035Y-163858110D01*
X229509948Y-163839318D01*
X229515391Y-163820924D01*
X229521364Y-163802927D01*
X229527871Y-163785329D01*
X229534914Y-163768128D01*
X229542495Y-163751326D01*
X229550616Y-163734921D01*
X229558918Y-163718968D01*
X229567618Y-163703517D01*
X229576716Y-163688563D01*
X229586211Y-163674102D01*
X229596104Y-163660129D01*
X229606396Y-163646640D01*
X229617085Y-163633630D01*
X229628172Y-163621096D01*
X229639657Y-163609031D01*
X229651540Y-163597432D01*
X229663821Y-163586294D01*
X229676500Y-163575613D01*
X229689577Y-163565385D01*
X229703051Y-163555604D01*
X229716924Y-163546265D01*
X229731194Y-163537366D01*
X229745501Y-163528956D01*
X229760061Y-163521088D01*
X229774874Y-163513763D01*
X229789940Y-163506980D01*
X229805260Y-163500740D01*
X229820832Y-163495043D01*
X229836658Y-163489888D01*
X229852738Y-163485276D01*
X229869070Y-163481206D01*
X229885655Y-163477680D01*
X229902494Y-163474695D01*
X229919586Y-163472253D01*
X229936931Y-163470354D01*
X229954530Y-163468998D01*
X229972381Y-163468184D01*
X229990486Y-163467913D01*
X230012335Y-163468277D01*
G37*
%TD.AperFunction*%
D11*
X231415954Y-163280321D02*
X223233650Y-163280321D01*
X223233650Y-160463188D01*
X231415954Y-160463188D01*
X231415954Y-163280321D01*
D12*
D13*
X232854949Y-161317000D02*
X232997806Y-161364619D01*
X232997806Y-161364619D02*
X233235901Y-161364619D01*
X233235901Y-161364619D02*
X233331139Y-161317000D01*
X233331139Y-161317000D02*
X233378758Y-161269380D01*
X233378758Y-161269380D02*
X233426377Y-161174142D01*
X233426377Y-161174142D02*
X233426377Y-161078904D01*
X233426377Y-161078904D02*
X233378758Y-160983666D01*
X233378758Y-160983666D02*
X233331139Y-160936047D01*
X233331139Y-160936047D02*
X233235901Y-160888428D01*
X233235901Y-160888428D02*
X233045425Y-160840809D01*
X233045425Y-160840809D02*
X232950187Y-160793190D01*
X232950187Y-160793190D02*
X232902568Y-160745571D01*
X232902568Y-160745571D02*
X232854949Y-160650333D01*
X232854949Y-160650333D02*
X232854949Y-160555095D01*
X232854949Y-160555095D02*
X232902568Y-160459857D01*
X232902568Y-160459857D02*
X232950187Y-160412238D01*
X232950187Y-160412238D02*
X233045425Y-160364619D01*
X233045425Y-160364619D02*
X233283520Y-160364619D01*
X233283520Y-160364619D02*
X233426377Y-160412238D01*
X233854949Y-161364619D02*
X233854949Y-160364619D01*
X233854949Y-160364619D02*
X234426377Y-161364619D01*
X234426377Y-161364619D02*
X234426377Y-160364619D01*
X234854949Y-160459857D02*
X234902568Y-160412238D01*
X234902568Y-160412238D02*
X234997806Y-160364619D01*
X234997806Y-160364619D02*
X235235901Y-160364619D01*
X235235901Y-160364619D02*
X235331139Y-160412238D01*
X235331139Y-160412238D02*
X235378758Y-160459857D01*
X235378758Y-160459857D02*
X235426377Y-160555095D01*
X235426377Y-160555095D02*
X235426377Y-160650333D01*
X235426377Y-160650333D02*
X235378758Y-160793190D01*
X235378758Y-160793190D02*
X234807330Y-161364619D01*
X234807330Y-161364619D02*
X235426377Y-161364619D01*
X236950187Y-160840809D02*
X237093044Y-160888428D01*
X237093044Y-160888428D02*
X237140663Y-160936047D01*
X237140663Y-160936047D02*
X237188282Y-161031285D01*
X237188282Y-161031285D02*
X237188282Y-161174142D01*
X237188282Y-161174142D02*
X237140663Y-161269380D01*
X237140663Y-161269380D02*
X237093044Y-161317000D01*
X237093044Y-161317000D02*
X236997806Y-161364619D01*
X236997806Y-161364619D02*
X236616854Y-161364619D01*
X236616854Y-161364619D02*
X236616854Y-160364619D01*
X236616854Y-160364619D02*
X236950187Y-160364619D01*
X236950187Y-160364619D02*
X237045425Y-160412238D01*
X237045425Y-160412238D02*
X237093044Y-160459857D01*
X237093044Y-160459857D02*
X237140663Y-160555095D01*
X237140663Y-160555095D02*
X237140663Y-160650333D01*
X237140663Y-160650333D02*
X237093044Y-160745571D01*
X237093044Y-160745571D02*
X237045425Y-160793190D01*
X237045425Y-160793190D02*
X236950187Y-160840809D01*
X236950187Y-160840809D02*
X236616854Y-160840809D01*
X238188282Y-161364619D02*
X237854949Y-160888428D01*
X237616854Y-161364619D02*
X237616854Y-160364619D01*
X237616854Y-160364619D02*
X237997806Y-160364619D01*
X237997806Y-160364619D02*
X238093044Y-160412238D01*
X238093044Y-160412238D02*
X238140663Y-160459857D01*
X238140663Y-160459857D02*
X238188282Y-160555095D01*
X238188282Y-160555095D02*
X238188282Y-160697952D01*
X238188282Y-160697952D02*
X238140663Y-160793190D01*
X238140663Y-160793190D02*
X238093044Y-160840809D01*
X238093044Y-160840809D02*
X237997806Y-160888428D01*
X237997806Y-160888428D02*
X237616854Y-160888428D01*
X238616854Y-160840809D02*
X238950187Y-160840809D01*
X239093044Y-161364619D02*
X238616854Y-161364619D01*
X238616854Y-161364619D02*
X238616854Y-160364619D01*
X238616854Y-160364619D02*
X239093044Y-160364619D01*
X239473997Y-161078904D02*
X239950187Y-161078904D01*
X239378759Y-161364619D02*
X239712092Y-160364619D01*
X239712092Y-160364619D02*
X240045425Y-161364619D01*
X240378759Y-161364619D02*
X240378759Y-160364619D01*
X240950187Y-161364619D02*
X240521616Y-160793190D01*
X240950187Y-160364619D02*
X240378759Y-160936047D01*
X241569235Y-160364619D02*
X241759711Y-160364619D01*
X241759711Y-160364619D02*
X241854949Y-160412238D01*
X241854949Y-160412238D02*
X241950187Y-160507476D01*
X241950187Y-160507476D02*
X241997806Y-160697952D01*
X241997806Y-160697952D02*
X241997806Y-161031285D01*
X241997806Y-161031285D02*
X241950187Y-161221761D01*
X241950187Y-161221761D02*
X241854949Y-161317000D01*
X241854949Y-161317000D02*
X241759711Y-161364619D01*
X241759711Y-161364619D02*
X241569235Y-161364619D01*
X241569235Y-161364619D02*
X241473997Y-161317000D01*
X241473997Y-161317000D02*
X241378759Y-161221761D01*
X241378759Y-161221761D02*
X241331140Y-161031285D01*
X241331140Y-161031285D02*
X241331140Y-160697952D01*
X241331140Y-160697952D02*
X241378759Y-160507476D01*
X241378759Y-160507476D02*
X241473997Y-160412238D01*
X241473997Y-160412238D02*
X241569235Y-160364619D01*
X242426378Y-160364619D02*
X242426378Y-161174142D01*
X242426378Y-161174142D02*
X242473997Y-161269380D01*
X242473997Y-161269380D02*
X242521616Y-161317000D01*
X242521616Y-161317000D02*
X242616854Y-161364619D01*
X242616854Y-161364619D02*
X242807330Y-161364619D01*
X242807330Y-161364619D02*
X242902568Y-161317000D01*
X242902568Y-161317000D02*
X242950187Y-161269380D01*
X242950187Y-161269380D02*
X242997806Y-161174142D01*
X242997806Y-161174142D02*
X242997806Y-160364619D01*
X243331140Y-160364619D02*
X243902568Y-160364619D01*
X243616854Y-161364619D02*
X243616854Y-160364619D01*
X245331140Y-160840809D02*
X245473997Y-160888428D01*
X245473997Y-160888428D02*
X245521616Y-160936047D01*
X245521616Y-160936047D02*
X245569235Y-161031285D01*
X245569235Y-161031285D02*
X245569235Y-161174142D01*
X245569235Y-161174142D02*
X245521616Y-161269380D01*
X245521616Y-161269380D02*
X245473997Y-161317000D01*
X245473997Y-161317000D02*
X245378759Y-161364619D01*
X245378759Y-161364619D02*
X244997807Y-161364619D01*
X244997807Y-161364619D02*
X244997807Y-160364619D01*
X244997807Y-160364619D02*
X245331140Y-160364619D01*
X245331140Y-160364619D02*
X245426378Y-160412238D01*
X245426378Y-160412238D02*
X245473997Y-160459857D01*
X245473997Y-160459857D02*
X245521616Y-160555095D01*
X245521616Y-160555095D02*
X245521616Y-160650333D01*
X245521616Y-160650333D02*
X245473997Y-160745571D01*
X245473997Y-160745571D02*
X245426378Y-160793190D01*
X245426378Y-160793190D02*
X245331140Y-160840809D01*
X245331140Y-160840809D02*
X244997807Y-160840809D01*
X246188283Y-160364619D02*
X246378759Y-160364619D01*
X246378759Y-160364619D02*
X246473997Y-160412238D01*
X246473997Y-160412238D02*
X246569235Y-160507476D01*
X246569235Y-160507476D02*
X246616854Y-160697952D01*
X246616854Y-160697952D02*
X246616854Y-161031285D01*
X246616854Y-161031285D02*
X246569235Y-161221761D01*
X246569235Y-161221761D02*
X246473997Y-161317000D01*
X246473997Y-161317000D02*
X246378759Y-161364619D01*
X246378759Y-161364619D02*
X246188283Y-161364619D01*
X246188283Y-161364619D02*
X246093045Y-161317000D01*
X246093045Y-161317000D02*
X245997807Y-161221761D01*
X245997807Y-161221761D02*
X245950188Y-161031285D01*
X245950188Y-161031285D02*
X245950188Y-160697952D01*
X245950188Y-160697952D02*
X245997807Y-160507476D01*
X245997807Y-160507476D02*
X246093045Y-160412238D01*
X246093045Y-160412238D02*
X246188283Y-160364619D01*
X246997807Y-161078904D02*
X247473997Y-161078904D01*
X246902569Y-161364619D02*
X247235902Y-160364619D01*
X247235902Y-160364619D02*
X247569235Y-161364619D01*
X248473997Y-161364619D02*
X248140664Y-160888428D01*
X247902569Y-161364619D02*
X247902569Y-160364619D01*
X247902569Y-160364619D02*
X248283521Y-160364619D01*
X248283521Y-160364619D02*
X248378759Y-160412238D01*
X248378759Y-160412238D02*
X248426378Y-160459857D01*
X248426378Y-160459857D02*
X248473997Y-160555095D01*
X248473997Y-160555095D02*
X248473997Y-160697952D01*
X248473997Y-160697952D02*
X248426378Y-160793190D01*
X248426378Y-160793190D02*
X248378759Y-160840809D01*
X248378759Y-160840809D02*
X248283521Y-160888428D01*
X248283521Y-160888428D02*
X247902569Y-160888428D01*
X248902569Y-161364619D02*
X248902569Y-160364619D01*
X248902569Y-160364619D02*
X249140664Y-160364619D01*
X249140664Y-160364619D02*
X249283521Y-160412238D01*
X249283521Y-160412238D02*
X249378759Y-160507476D01*
X249378759Y-160507476D02*
X249426378Y-160602714D01*
X249426378Y-160602714D02*
X249473997Y-160793190D01*
X249473997Y-160793190D02*
X249473997Y-160936047D01*
X249473997Y-160936047D02*
X249426378Y-161126523D01*
X249426378Y-161126523D02*
X249378759Y-161221761D01*
X249378759Y-161221761D02*
X249283521Y-161317000D01*
X249283521Y-161317000D02*
X249140664Y-161364619D01*
X249140664Y-161364619D02*
X248902569Y-161364619D01*
D12*
G36*
X236657711Y-162453904D02*
G01*
X236528377Y-162453904D01*
X236593043Y-162259903D01*
X236657711Y-162453904D01*
G37*
G36*
X237175395Y-163113637D02*
G01*
X236010693Y-163113637D01*
X236010693Y-162848985D01*
X236135693Y-162848985D01*
X236139150Y-162897634D01*
X236160962Y-162941259D01*
X236197808Y-162973214D01*
X236244077Y-162988637D01*
X236292726Y-162985180D01*
X236336351Y-162963368D01*
X236368306Y-162926522D01*
X236378296Y-162904147D01*
X236445044Y-162703904D01*
X236741044Y-162703904D01*
X236807791Y-162904147D01*
X236817782Y-162926522D01*
X236849737Y-162963368D01*
X236893361Y-162985180D01*
X236942011Y-162988637D01*
X236988280Y-162973214D01*
X237025126Y-162941258D01*
X237046938Y-162897634D01*
X237050395Y-162848984D01*
X237044962Y-162825090D01*
X236711629Y-161825091D01*
X236701639Y-161802716D01*
X236695787Y-161795968D01*
X236691793Y-161787980D01*
X236679955Y-161777713D01*
X236669684Y-161765870D01*
X236661692Y-161761874D01*
X236654947Y-161756024D01*
X236640079Y-161751068D01*
X236626059Y-161744058D01*
X236617149Y-161743424D01*
X236608678Y-161740601D01*
X236593043Y-161741711D01*
X236577410Y-161740601D01*
X236568938Y-161743424D01*
X236560028Y-161744058D01*
X236546006Y-161751069D01*
X236531141Y-161756024D01*
X236524395Y-161761874D01*
X236516404Y-161765870D01*
X236506135Y-161777710D01*
X236494295Y-161787979D01*
X236490299Y-161795969D01*
X236484449Y-161802716D01*
X236474458Y-161825091D01*
X236141126Y-162825091D01*
X236135693Y-162848985D01*
X236010693Y-162848985D01*
X236010693Y-161615601D01*
X237175395Y-161615601D01*
X237175395Y-163113637D01*
G37*
D13*
X233473996Y-162864619D02*
X233140663Y-162388428D01*
X232902568Y-162864619D02*
X232902568Y-161864619D01*
X232902568Y-161864619D02*
X233283520Y-161864619D01*
X233283520Y-161864619D02*
X233378758Y-161912238D01*
X233378758Y-161912238D02*
X233426377Y-161959857D01*
X233426377Y-161959857D02*
X233473996Y-162055095D01*
X233473996Y-162055095D02*
X233473996Y-162197952D01*
X233473996Y-162197952D02*
X233426377Y-162293190D01*
X233426377Y-162293190D02*
X233378758Y-162340809D01*
X233378758Y-162340809D02*
X233283520Y-162388428D01*
X233283520Y-162388428D02*
X232902568Y-162388428D01*
X233902568Y-162340809D02*
X234235901Y-162340809D01*
X234378758Y-162864619D02*
X233902568Y-162864619D01*
X233902568Y-162864619D02*
X233902568Y-161864619D01*
X233902568Y-161864619D02*
X234378758Y-161864619D01*
X234664473Y-161864619D02*
X234997806Y-162864619D01*
X234997806Y-162864619D02*
X235331139Y-161864619D01*
D12*
D13*
X232854949Y-163459857D02*
X232902568Y-163412238D01*
X232902568Y-163412238D02*
X232997806Y-163364619D01*
X232997806Y-163364619D02*
X233235901Y-163364619D01*
X233235901Y-163364619D02*
X233331139Y-163412238D01*
X233331139Y-163412238D02*
X233378758Y-163459857D01*
X233378758Y-163459857D02*
X233426377Y-163555095D01*
X233426377Y-163555095D02*
X233426377Y-163650333D01*
X233426377Y-163650333D02*
X233378758Y-163793190D01*
X233378758Y-163793190D02*
X232807330Y-164364619D01*
X232807330Y-164364619D02*
X233426377Y-164364619D01*
X234045425Y-163364619D02*
X234140663Y-163364619D01*
X234140663Y-163364619D02*
X234235901Y-163412238D01*
X234235901Y-163412238D02*
X234283520Y-163459857D01*
X234283520Y-163459857D02*
X234331139Y-163555095D01*
X234331139Y-163555095D02*
X234378758Y-163745571D01*
X234378758Y-163745571D02*
X234378758Y-163983666D01*
X234378758Y-163983666D02*
X234331139Y-164174142D01*
X234331139Y-164174142D02*
X234283520Y-164269380D01*
X234283520Y-164269380D02*
X234235901Y-164317000D01*
X234235901Y-164317000D02*
X234140663Y-164364619D01*
X234140663Y-164364619D02*
X234045425Y-164364619D01*
X234045425Y-164364619D02*
X233950187Y-164317000D01*
X233950187Y-164317000D02*
X233902568Y-164269380D01*
X233902568Y-164269380D02*
X233854949Y-164174142D01*
X233854949Y-164174142D02*
X233807330Y-163983666D01*
X233807330Y-163983666D02*
X233807330Y-163745571D01*
X233807330Y-163745571D02*
X233854949Y-163555095D01*
X233854949Y-163555095D02*
X233902568Y-163459857D01*
X233902568Y-163459857D02*
X233950187Y-163412238D01*
X233950187Y-163412238D02*
X234045425Y-163364619D01*
X234759711Y-163459857D02*
X234807330Y-163412238D01*
X234807330Y-163412238D02*
X234902568Y-163364619D01*
X234902568Y-163364619D02*
X235140663Y-163364619D01*
X235140663Y-163364619D02*
X235235901Y-163412238D01*
X235235901Y-163412238D02*
X235283520Y-163459857D01*
X235283520Y-163459857D02*
X235331139Y-163555095D01*
X235331139Y-163555095D02*
X235331139Y-163650333D01*
X235331139Y-163650333D02*
X235283520Y-163793190D01*
X235283520Y-163793190D02*
X234712092Y-164364619D01*
X234712092Y-164364619D02*
X235331139Y-164364619D01*
X236188282Y-163364619D02*
X235997806Y-163364619D01*
X235997806Y-163364619D02*
X235902568Y-163412238D01*
X235902568Y-163412238D02*
X235854949Y-163459857D01*
X235854949Y-163459857D02*
X235759711Y-163602714D01*
X235759711Y-163602714D02*
X235712092Y-163793190D01*
X235712092Y-163793190D02*
X235712092Y-164174142D01*
X235712092Y-164174142D02*
X235759711Y-164269380D01*
X235759711Y-164269380D02*
X235807330Y-164317000D01*
X235807330Y-164317000D02*
X235902568Y-164364619D01*
X235902568Y-164364619D02*
X236093044Y-164364619D01*
X236093044Y-164364619D02*
X236188282Y-164317000D01*
X236188282Y-164317000D02*
X236235901Y-164269380D01*
X236235901Y-164269380D02*
X236283520Y-164174142D01*
X236283520Y-164174142D02*
X236283520Y-163936047D01*
X236283520Y-163936047D02*
X236235901Y-163840809D01*
X236235901Y-163840809D02*
X236188282Y-163793190D01*
X236188282Y-163793190D02*
X236093044Y-163745571D01*
X236093044Y-163745571D02*
X235902568Y-163745571D01*
X235902568Y-163745571D02*
X235807330Y-163793190D01*
X235807330Y-163793190D02*
X235759711Y-163840809D01*
X235759711Y-163840809D02*
X235712092Y-163936047D01*
D12*
D13*
X245285714Y-180449619D02*
X244714286Y-180449619D01*
X245000000Y-180449619D02*
X245000000Y-179449619D01*
X245000000Y-179449619D02*
X244904762Y-179592476D01*
X244904762Y-179592476D02*
X244809524Y-179687714D01*
X244809524Y-179687714D02*
X244714286Y-179735333D01*
%TO.C,ID901*%
D14*
X244000000Y-179000000D02*
X246000000Y-179000000D01*
X246000000Y-181000000D01*
X244000000Y-181000000D01*
X244000000Y-179000000D01*
%TD*%
D15*
%TO.P,C301,1*%
%TO.N,/SCHEMATIC/NTC_DIV*%
X218700000Y-125000000D03*
%TO.P,C301,2*%
%TO.N,GND*%
X223700000Y-125000000D03*
%TD*%
D16*
%TO.P,FID902,*%
%TO.N,*%
X255000000Y-90000000D03*
%TD*%
D17*
%TO.P,D101,1,K*%
%TO.N,/SCHEMATIC/ENV*%
X252500000Y-120000000D03*
D15*
%TO.P,D101,2,A*%
%TO.N,/SCHEMATIC/AMP_OUT*%
X252500000Y-125080000D03*
%TD*%
D18*
%TO.P,TP401,1,1*%
%TO.N,/SCHEMATIC/PWM_FAN*%
X214000000Y-130000000D03*
%TD*%
D19*
%TO.P,MK101,1,-*%
%TO.N,GND*%
X260000000Y-114000000D03*
D20*
%TO.P,MK101,2,+*%
%TO.N,/SCHEMATIC/MIC*%
X260000000Y-115900000D03*
%TD*%
D18*
%TO.P,TP701,1,1*%
%TO.N,+VUSB*%
X237500000Y-180000000D03*
%TD*%
D21*
%TO.P,C702,1*%
%TO.N,+12V*%
X199000000Y-161000000D03*
D15*
%TO.P,C702,2*%
%TO.N,GND*%
X202500000Y-161000000D03*
%TD*%
D22*
%TO.P,D401,1,K*%
%TO.N,+12V*%
X180000000Y-131190000D03*
D23*
%TO.P,D401,2,A*%
%TO.N,/SCHEMATIC/FAN-*%
X180000000Y-138810000D03*
%TD*%
D15*
%TO.P,C502,1*%
%TO.N,GND*%
X205000000Y-125000000D03*
%TO.P,C502,2*%
%TO.N,/SCHEMATIC/POT_DIV*%
X210000000Y-125000000D03*
%TD*%
D24*
%TO.P,H904,1,1*%
%TO.N,GND*%
X260000000Y-180000000D03*
%TD*%
D15*
%TO.P,R302,1*%
%TO.N,/SCHEMATIC/NTC_DIV*%
X218650000Y-120000000D03*
%TO.P,R302,2*%
%TO.N,/SCHEMATIC/ADC_NTC*%
X231350000Y-120000000D03*
%TD*%
%TO.P,C703,1*%
%TO.N,GND*%
X212500000Y-180000000D03*
%TO.P,C703,2*%
%TO.N,+12V*%
X207500000Y-180000000D03*
%TD*%
%TO.P,R503,1*%
%TO.N,/SCHEMATIC/ADC_POT*%
X201150000Y-120000000D03*
%TO.P,R503,2*%
%TO.N,/SCHEMATIC/POT_DIV*%
X213850000Y-120000000D03*
%TD*%
D24*
%TO.P,H901,1,1*%
%TO.N,GND*%
X170000000Y-90000000D03*
%TD*%
D18*
%TO.P,TP902,1,1*%
%TO.N,GND*%
X211000000Y-148000000D03*
%TD*%
D15*
%TO.P,R201,1*%
%TO.N,/SCHEMATIC/ENV*%
X235000000Y-95080000D03*
%TO.P,R201,2*%
%TO.N,/SCHEMATIC/GPIO_SOUND*%
X235000000Y-90000000D03*
%TD*%
%TO.P,C704,1*%
%TO.N,GND*%
X187500000Y-175000000D03*
%TO.P,C704,2*%
%TO.N,/SCHEMATIC/+5V*%
X192500000Y-175000000D03*
%TD*%
%TO.P,R102,1*%
%TO.N,+3V3*%
X236150001Y-140000000D03*
%TO.P,R102,2*%
%TO.N,/SCHEMATIC/AMP_BASE*%
X248850001Y-140000000D03*
%TD*%
D25*
%TO.P,Q101,1,C*%
%TO.N,/SCHEMATIC/AMP_OUT*%
X252500000Y-133729999D03*
D26*
%TO.P,Q101,2,B*%
%TO.N,/SCHEMATIC/AMP_BASE*%
X252500000Y-135000000D03*
%TO.P,Q101,3,E*%
%TO.N,/SCHEMATIC/AMP_EMITTER*%
X252500000Y-136269999D03*
%TD*%
D22*
%TO.P,D701,1,A1*%
%TO.N,/SCHEMATIC/+12V_IN*%
X178950000Y-167500000D03*
D23*
%TO.P,D701,2,A2*%
%TO.N,GND*%
X178950000Y-175120000D03*
%TD*%
D16*
%TO.P,FID901,*%
%TO.N,*%
X177500000Y-90000000D03*
%TD*%
D27*
%TO.P,D702,1,K*%
%TO.N,+12V*%
X192500000Y-168740000D03*
D28*
%TO.P,D702,2,A*%
%TO.N,/SCHEMATIC/+12V_FUSED*%
X192500000Y-153500000D03*
%TD*%
D29*
%TO.P,U601,1,RST*%
%TO.N,unconnected-(U601-RST-Pad1)*%
X255120000Y-152500000D03*
%TO.P,U601,2,3V3*%
%TO.N,+3V3*%
X252580000Y-152500000D03*
%TO.P,U601,3,MODE*%
%TO.N,unconnected-(U601-MODE-Pad3)*%
X250040000Y-152500001D03*
%TO.P,U601,4,GND*%
%TO.N,GND*%
X247500000Y-152500000D03*
%TO.P,U601,5,A0*%
%TO.N,unconnected-(U601-A0-Pad5)*%
X244960000Y-152500000D03*
%TO.P,U601,6,ADC_5*%
%TO.N,/SCHEMATIC/ADC_POT*%
X242420000Y-152500000D03*
%TO.P,U601,7,A2~*%
%TO.N,/SCHEMATIC/PWM_FAN*%
X239880000Y-152500001D03*
%TO.P,U601,8,ADC_0*%
%TO.N,/SCHEMATIC/ADC_NTC*%
X237339999Y-152500000D03*
%TO.P,U601,9,D19*%
%TO.N,/SCHEMATIC/GPIO_BTN*%
X234800000Y-152500000D03*
%TO.P,U601,10,S3*%
%TO.N,unconnected-(U601-S3-Pad10)*%
X232260000Y-152500000D03*
%TO.P,U601,11,SCK*%
%TO.N,unconnected-(U601-SCK-Pad11)*%
X229720000Y-152500000D03*
%TO.P,U601,12,MO*%
%TO.N,unconnected-(U601-MO-Pad12)*%
X227180000Y-152500001D03*
%TO.P,U601,13,MI*%
%TO.N,unconnected-(U601-MI-Pad13)*%
X224640000Y-152500000D03*
%TO.P,U601,14,D9*%
%TO.N,/SCHEMATIC/LED_RED*%
X222100000Y-152500000D03*
%TO.P,U601,15,D8*%
%TO.N,/SCHEMATIC/LED_GRN*%
X219560000Y-152500000D03*
%TO.P,U601,16,NC*%
%TO.N,unconnected-(U601-NC-Pad16)*%
X217020000Y-152500001D03*
%TO.P,U601,17,SDA*%
%TO.N,unconnected-(U601-SDA-Pad17)*%
X217020000Y-172819999D03*
%TO.P,U601,18,SCL~*%
%TO.N,unconnected-(U601-SCL~-Pad18)*%
X219560000Y-172820000D03*
%TO.P,U601,19,D2*%
%TO.N,/SCHEMATIC/GPIO_SOUND*%
X222100000Y-172820000D03*
%TO.P,U601,20,D3*%
%TO.N,unconnected-(U601-D3-Pad20)*%
X224640000Y-172820000D03*
%TO.P,U601,21,D4*%
%TO.N,unconnected-(U601-D4-Pad21)*%
X227180000Y-172819999D03*
%TO.P,U601,22,D5*%
%TO.N,unconnected-(U601-D5-Pad22)*%
X229720000Y-172820000D03*
%TO.P,U601,23,D6*%
%TO.N,unconnected-(U601-D6-Pad23)*%
X232260000Y-172820000D03*
%TO.P,U601,24,D7*%
%TO.N,unconnected-(U601-D7-Pad24)*%
X234800000Y-172820000D03*
%TO.P,U601,25,D10*%
%TO.N,unconnected-(U601-D10-Pad25)*%
X237339999Y-172820000D03*
%TO.P,U601,26,VUSB*%
%TO.N,+VUSB*%
X239880000Y-172819999D03*
%TO.P,U601,27,EN*%
%TO.N,unconnected-(U601-EN-Pad27)*%
X242420000Y-172820000D03*
%TO.P,U601,28,LI+*%
%TO.N,unconnected-(U601-LI+-Pad28)*%
X244960000Y-172820000D03*
%TD*%
D30*
%TO.P,RV201,1,1*%
%TO.N,+3V3*%
X260000000Y-105040000D03*
%TO.P,RV201,2,2*%
%TO.N,/SCHEMATIC/THRES_REF*%
X260000000Y-102500000D03*
%TO.P,RV201,3,3*%
%TO.N,GND*%
X260000000Y-99960001D03*
%TD*%
D31*
%TO.P,C705,1*%
%TO.N,/SCHEMATIC/+5V*%
X192500000Y-180000000D03*
D15*
%TO.P,C705,2*%
%TO.N,GND*%
X190499999Y-180000000D03*
%TD*%
D18*
%TO.P,TP101,1,1*%
%TO.N,/SCHEMATIC/AMP_OUT*%
X252500000Y-130000000D03*
%TD*%
D15*
%TO.P,R101,1*%
%TO.N,+3V3*%
X236150001Y-125000000D03*
%TO.P,R101,2*%
%TO.N,/SCHEMATIC/MIC*%
X248850001Y-125000000D03*
%TD*%
D18*
%TO.P,TP702,1,1*%
%TO.N,+12V*%
X200500000Y-152500000D03*
%TD*%
D15*
%TO.P,R402,1*%
%TO.N,/SCHEMATIC/GATE*%
X201150000Y-140000000D03*
%TO.P,R402,2*%
%TO.N,GND*%
X213850000Y-140000000D03*
%TD*%
D32*
%TO.P,RV501,1,1*%
%TO.N,+3V3*%
X211000000Y-115000000D03*
%TO.P,RV501,2,2*%
%TO.N,/SCHEMATIC/POT_DIV*%
X206000000Y-115000000D03*
%TO.P,RV501,3,3*%
%TO.N,GND*%
X201000000Y-115000000D03*
%TD*%
D15*
%TO.P,R301,1*%
%TO.N,+3V3*%
X231350000Y-115000000D03*
%TO.P,R301,2*%
%TO.N,/SCHEMATIC/NTC_DIV*%
X218650000Y-115000000D03*
%TD*%
D16*
%TO.P,FID903,*%
%TO.N,*%
X252500000Y-180000000D03*
%TD*%
D15*
%TO.P,R202,1*%
%TO.N,+3V3*%
X218650001Y-90000000D03*
%TO.P,R202,2*%
%TO.N,/SCHEMATIC/GPIO_SOUND*%
X231350001Y-90000000D03*
%TD*%
D33*
%TO.P,SW501,1,1*%
%TO.N,/SCHEMATIC/GPIO_BTN*%
X193750000Y-105000000D03*
X181250000Y-105000000D03*
%TO.P,SW501,2,2*%
%TO.N,GND*%
X193750000Y-100000000D03*
X181250000Y-100000000D03*
%TD*%
D34*
%TO.P,J401,1,Pin_1*%
%TO.N,+12V*%
X171000000Y-132500000D03*
D35*
%TO.P,J401,2,Pin_2*%
%TO.N,/SCHEMATIC/FAN-*%
X171000000Y-137500000D03*
%TD*%
D15*
%TO.P,R502,1*%
%TO.N,Net-(D501-A2)*%
X170000000Y-106150000D03*
%TO.P,R502,2*%
%TO.N,/SCHEMATIC/LED_GRN*%
X170000000Y-118850000D03*
%TD*%
%TO.P,C701,1*%
%TO.N,GND*%
X203000000Y-168740000D03*
%TO.P,C701,2*%
%TO.N,+12V*%
X198000000Y-168740000D03*
%TD*%
D36*
%TO.P,Q401,1,S1*%
%TO.N,GND*%
X190075000Y-139404999D03*
%TO.P,Q401,2,G1*%
%TO.N,/SCHEMATIC/GATE*%
X190075000Y-138135000D03*
%TO.P,Q401,3,S2*%
%TO.N,/SCHEMATIC/UNUSED*%
X190075000Y-136865000D03*
%TO.P,Q401,4,G2*%
X190075000Y-135595001D03*
%TO.P,Q401,5,D2*%
%TO.N,unconnected-(Q401-D2-Pad5)*%
X184925000Y-135595001D03*
%TO.P,Q401,6,D2*%
%TO.N,unconnected-(Q401-D2-Pad6)*%
X184925000Y-136865000D03*
%TO.P,Q401,7,D1*%
%TO.N,/SCHEMATIC/FAN-*%
X184925000Y-138135000D03*
%TO.P,Q401,8,D1*%
X184925000Y-139404999D03*
%TD*%
D15*
%TO.P,R501,1*%
%TO.N,/SCHEMATIC/LED_RED*%
X175000000Y-118850000D03*
%TO.P,R501,2*%
%TO.N,Net-(D501-A1)*%
X175000000Y-106150000D03*
%TD*%
D31*
%TO.P,C102,1*%
%TO.N,/SCHEMATIC/EMITTER_BYPASS*%
X232500000Y-140000000D03*
D15*
%TO.P,C102,2*%
%TO.N,GND*%
X230499999Y-140000000D03*
%TD*%
%TO.P,R107,1*%
%TO.N,/SCHEMATIC/ENV*%
X248850000Y-120000000D03*
%TO.P,R107,2*%
%TO.N,GND*%
X236150000Y-120000000D03*
%TD*%
D37*
%TO.P,D501,1,A1*%
%TO.N,Net-(D501-A1)*%
X175040000Y-100000000D03*
D38*
%TO.P,D501,2,K*%
%TO.N,GND*%
X172500000Y-100000000D03*
%TO.P,D501,3,A2*%
%TO.N,Net-(D501-A2)*%
X169960001Y-100000000D03*
%TD*%
D15*
%TO.P,R103,1*%
%TO.N,/SCHEMATIC/AMP_BASE*%
X248850000Y-145000000D03*
%TO.P,R103,2*%
%TO.N,GND*%
X236150000Y-145000000D03*
%TD*%
D39*
%TO.P,C401,1*%
%TO.N,+12V*%
X180000000Y-127500000D03*
D15*
%TO.P,C401,2*%
%TO.N,GND*%
X180000000Y-125499999D03*
%TD*%
D40*
%TO.P,D704,1,K*%
%TO.N,+VUSB*%
X228850000Y-180000000D03*
D23*
%TO.P,D704,2,A*%
%TO.N,/SCHEMATIC/+5V*%
X216150000Y-180000000D03*
%TD*%
D41*
%TO.P,F701,1*%
%TO.N,/SCHEMATIC/+12V_IN*%
X185000000Y-171000000D03*
X185000000Y-164240000D03*
D42*
%TO.P,F701,2*%
%TO.N,/SCHEMATIC/+12V_FUSED*%
X185000000Y-156960000D03*
X185000000Y-150200000D03*
%TD*%
D15*
%TO.P,C402,1*%
%TO.N,+12V*%
X185000000Y-131190000D03*
%TO.P,C402,2*%
%TO.N,GND*%
X190000000Y-131190000D03*
%TD*%
D40*
%TO.P,D703,1,K*%
%TO.N,+12V*%
X203810000Y-175000000D03*
D23*
%TO.P,D703,2,A*%
%TO.N,/SCHEMATIC/+5V*%
X196190000Y-175000000D03*
%TD*%
D15*
%TO.P,R105,1*%
%TO.N,/SCHEMATIC/AMP_EMITTER*%
X248850000Y-135000000D03*
%TO.P,R105,2*%
%TO.N,/SCHEMATIC/EMITTER_BYPASS*%
X236150000Y-135000000D03*
%TD*%
D18*
%TO.P,TP201,1,1*%
%TO.N,/SCHEMATIC/ENV*%
X240000000Y-104000000D03*
%TD*%
D23*
%TO.P,C101,1*%
%TO.N,/SCHEMATIC/MIC*%
X260000000Y-125000000D03*
%TO.P,C101,2*%
%TO.N,/SCHEMATIC/AMP_BASE*%
X260000000Y-140000000D03*
%TD*%
D15*
%TO.P,C201,1*%
%TO.N,+3V3*%
X250000000Y-90000000D03*
%TO.P,C201,2*%
%TO.N,GND*%
X250000000Y-95000000D03*
%TD*%
D21*
%TO.P,U201,1*%
%TO.N,/SCHEMATIC/GPIO_SOUND*%
X238690000Y-90000000D03*
D15*
%TO.P,U201,2,-*%
%TO.N,/SCHEMATIC/THRES_REF*%
X238690000Y-92540000D03*
%TO.P,U201,3,+*%
%TO.N,/SCHEMATIC/ENV*%
X238690000Y-95079999D03*
%TO.P,U201,4,V-*%
%TO.N,GND*%
X238690000Y-97620000D03*
%TO.P,U201,5,+*%
X246310000Y-97620000D03*
%TO.P,U201,6,-*%
X246310000Y-95080000D03*
%TO.P,U201,7*%
%TO.N,unconnected-(U201-Pad7)*%
X246310000Y-92540000D03*
%TO.P,U201,8,V+*%
%TO.N,+3V3*%
X246310000Y-90000000D03*
%TD*%
D24*
%TO.P,H902,1,1*%
%TO.N,GND*%
X260000000Y-90000000D03*
%TD*%
D43*
%TO.P,U701,1,IN*%
%TO.N,+12V*%
X203290000Y-180000000D03*
D44*
%TO.P,U701,2,GND*%
%TO.N,GND*%
X200750000Y-180000000D03*
%TO.P,U701,3,OUT*%
%TO.N,/SCHEMATIC/+5V*%
X198210001Y-180000000D03*
%TD*%
D15*
%TO.P,R401,1*%
%TO.N,/SCHEMATIC/GATE*%
X201150001Y-135000000D03*
%TO.P,R401,2*%
%TO.N,/SCHEMATIC/PWM_FAN*%
X213850001Y-135000000D03*
%TD*%
D45*
%TO.P,TH301,1*%
%TO.N,/SCHEMATIC/NTC_DIV*%
X222540000Y-105000000D03*
D46*
%TO.P,TH301,2*%
%TO.N,GND*%
X220000000Y-105000000D03*
%TD*%
D15*
%TO.P,C202,1*%
%TO.N,/SCHEMATIC/GPIO_SOUND*%
X231350000Y-93810000D03*
%TO.P,C202,2*%
%TO.N,GND*%
X231350000Y-98810000D03*
%TD*%
D47*
%TO.P,J701,1*%
%TO.N,/SCHEMATIC/+12V_IN*%
X179700000Y-152500000D03*
D48*
%TO.P,J701,2*%
%TO.N,GND*%
X173500000Y-152500000D03*
D49*
%TO.P,J701,3*%
%TO.N,unconnected-(J701-Pad3)*%
X176500000Y-157200000D03*
%TD*%
D39*
%TO.P,C103,1*%
%TO.N,/SCHEMATIC/ENV*%
X248850000Y-115000000D03*
D15*
%TO.P,C103,2*%
%TO.N,GND*%
X248850000Y-112999999D03*
%TD*%
D34*
%TO.P,J702,1,Pin_1*%
%TO.N,/SCHEMATIC/+12V_IN*%
X171000000Y-167500000D03*
D35*
%TO.P,J702,2,Pin_2*%
%TO.N,GND*%
X171000000Y-172500000D03*
%TD*%
D15*
%TO.P,R104,1*%
%TO.N,+3V3*%
X236150001Y-130000000D03*
%TO.P,R104,2*%
%TO.N,/SCHEMATIC/AMP_OUT*%
X248850001Y-130000000D03*
%TD*%
%TO.P,R106,1*%
%TO.N,/SCHEMATIC/EMITTER_BYPASS*%
X231350000Y-135000000D03*
%TO.P,R106,2*%
%TO.N,GND*%
X218650000Y-135000000D03*
%TD*%
%TO.P,C501,1*%
%TO.N,/SCHEMATIC/GPIO_BTN*%
X181250000Y-111250000D03*
%TO.P,C501,2*%
%TO.N,GND*%
X186250000Y-111250000D03*
%TD*%
D24*
%TO.P,H903,1,1*%
%TO.N,GND*%
X170000000Y-180000000D03*
%TD*%
D18*
%TO.P,TP901,1,1*%
%TO.N,GND*%
X237500000Y-115000000D03*
%TD*%
D50*
%TO.N,GND*%
X191500000Y-139404999D03*
X190075000Y-140250000D03*
%TO.N,+3V3*%
X242500000Y-112500000D03*
X242500000Y-117500000D03*
X225000000Y-100000000D03*
X227000000Y-102000000D03*
%TO.N,/SCHEMATIC/GPIO_SOUND*%
X225990000Y-148010000D03*
X225990000Y-150990000D03*
%TO.N,/SCHEMATIC/ADC_NTC*%
X237000000Y-148000000D03*
X237000000Y-151000000D03*
%TD*%
D51*
%TO.N,/SCHEMATIC/AMP_BASE*%
X260000000Y-140000000D02*
X257500000Y-142500000D01*
X248850001Y-142500000D02*
X248850000Y-145000000D01*
X255000000Y-137000000D02*
X255000000Y-142500000D01*
X255000000Y-142500000D02*
X248850001Y-142500000D01*
X257500000Y-142500000D02*
X255000000Y-142500000D01*
X248850001Y-140000000D02*
X248850001Y-142500000D01*
X253000000Y-135000000D02*
X255000000Y-137000000D01*
X252500000Y-135000000D02*
X253000000Y-135000000D01*
%TO.N,/SCHEMATIC/MIC*%
X260000000Y-115900000D02*
X260000000Y-120000000D01*
X260000000Y-120000000D02*
X260000000Y-125000000D01*
X250567100Y-125000000D02*
X255567100Y-120000000D01*
X255567100Y-120000000D02*
X260000000Y-120000000D01*
X248850001Y-125000000D02*
X250567100Y-125000000D01*
%TO.N,/SCHEMATIC/EMITTER_BYPASS*%
X232500000Y-140000000D02*
X233750000Y-138750000D01*
X231350000Y-135000000D02*
X233750000Y-135000000D01*
X233750000Y-135000000D02*
X236150000Y-135000000D01*
X233750000Y-138750000D02*
X233750000Y-135000000D01*
D52*
%TO.N,GND*%
X190075000Y-140250000D02*
X190075000Y-139404999D01*
X190920001Y-139404999D02*
X191500000Y-139404999D01*
D51*
%TO.N,/SCHEMATIC/ENV*%
X240000000Y-107500000D02*
X240000000Y-96389999D01*
X252500000Y-120000000D02*
X248850000Y-120000000D01*
X250500000Y-116650000D02*
X248850000Y-115000000D01*
X240000000Y-96389999D02*
X238690000Y-95079999D01*
X238690000Y-95079999D02*
X235000000Y-95080000D01*
X242500000Y-115000000D02*
X240000000Y-112500000D01*
X250500000Y-120000000D02*
X250500000Y-116650000D01*
X248850000Y-120000000D02*
X250500000Y-120000000D01*
X248850000Y-115000000D02*
X242500000Y-115000000D01*
X240000000Y-112500000D02*
X240000000Y-107500000D01*
D53*
%TO.N,+3V3*%
X232500000Y-115000000D02*
X236250000Y-111250000D01*
X250000000Y-90000000D02*
X246310000Y-90000000D01*
X236150001Y-140000000D02*
X242500000Y-140000000D01*
X218650001Y-93650001D02*
X218650001Y-90000000D01*
X242500000Y-125000000D02*
X242500000Y-117500000D01*
X225000000Y-100000000D02*
X222500000Y-97500000D01*
X222500000Y-97500000D02*
X221250000Y-96250000D01*
X242500000Y-90500000D02*
X243000000Y-90000000D01*
X242500000Y-130000000D02*
X242500000Y-125000000D01*
X242540000Y-105040000D02*
X242500000Y-105000000D01*
X211000000Y-115000000D02*
X211000000Y-106500000D01*
X242500000Y-117500000D02*
X236250000Y-111250000D01*
X242500000Y-105000000D02*
X242500000Y-90500000D01*
X233750000Y-108750000D02*
X227500000Y-102500000D01*
X242500000Y-112500000D02*
X242500000Y-105000000D01*
X242500000Y-140000000D02*
X242500000Y-142420000D01*
X221250000Y-96250000D02*
X218650001Y-93650001D01*
X242500000Y-140000000D02*
X242500000Y-130000000D01*
X236250000Y-111250000D02*
X233750000Y-108750000D01*
X243000000Y-90000000D02*
X246310000Y-90000000D01*
X231350000Y-115000000D02*
X232500000Y-115000000D01*
X242500000Y-142420000D02*
X252580000Y-152500000D01*
X242500000Y-125000000D02*
X236150001Y-125000000D01*
X260000000Y-105040000D02*
X242540000Y-105040000D01*
X236150001Y-130000000D02*
X242500000Y-130000000D01*
X227500000Y-102500000D02*
X227000000Y-102000000D01*
X211000000Y-106500000D02*
X221250000Y-96250000D01*
D51*
%TO.N,/SCHEMATIC/GPIO_SOUND*%
X231350001Y-90000000D02*
X231350000Y-93810000D01*
X222100000Y-156900000D02*
X222100000Y-172820000D01*
X225990000Y-150990000D02*
X225990000Y-152990000D01*
X225990000Y-148010000D02*
X225990000Y-99170000D01*
X225990000Y-152990000D02*
X226000000Y-153000000D01*
X238690000Y-90000000D02*
X235000000Y-90000000D01*
X226000000Y-153000000D02*
X222100000Y-156900000D01*
X225990000Y-148010000D02*
X226000000Y-148000000D01*
X235000000Y-90000000D02*
X231350001Y-90000000D01*
X225990000Y-99170000D02*
X231350000Y-93810000D01*
%TO.N,/SCHEMATIC/NTC_DIV*%
X218650000Y-115000000D02*
X222540000Y-115000000D01*
X222540000Y-115000000D02*
X222540000Y-105000000D01*
X220000000Y-125000000D02*
X218650000Y-125000000D01*
X222540000Y-115000000D02*
X222540000Y-120000000D01*
X222540000Y-120000000D02*
X222540000Y-122460000D01*
X222540000Y-122460000D02*
X220000000Y-125000000D01*
X218650000Y-120000000D02*
X222540000Y-120000000D01*
D54*
%TO.N,+12V*%
X185000000Y-131190000D02*
X180000000Y-131190000D01*
X187500000Y-133690000D02*
X187500000Y-142500000D01*
X182250000Y-147750000D02*
X182250000Y-159250000D01*
X199000000Y-161000000D02*
X192500000Y-161000000D01*
X178690000Y-132500000D02*
X180000000Y-131190000D01*
X199000000Y-154000000D02*
X200500000Y-152500000D01*
X171000000Y-132500000D02*
X178690000Y-132500000D01*
X185000000Y-131190000D02*
X187500000Y-133690000D01*
X207500000Y-180000000D02*
X203290000Y-180000000D01*
X198000000Y-168740000D02*
X199740000Y-168740000D01*
X203810000Y-172810000D02*
X203810000Y-175000000D01*
X180000000Y-127500000D02*
X180000000Y-131190000D01*
X184000000Y-161000000D02*
X192500000Y-161000000D01*
X203290000Y-175520000D02*
X203810000Y-175000000D01*
X198000000Y-168740000D02*
X192500000Y-168740000D01*
X192500000Y-168740000D02*
X192500000Y-161000000D01*
X187500000Y-142500000D02*
X182250000Y-147750000D01*
X203290000Y-180000000D02*
X203290000Y-175520000D01*
X199000000Y-161000000D02*
X199000000Y-154000000D01*
X199740000Y-168740000D02*
X203810000Y-172810000D01*
X182250000Y-159250000D02*
X184000000Y-161000000D01*
D51*
%TO.N,/SCHEMATIC/GPIO_BTN*%
X181250000Y-111250000D02*
X220000000Y-150000000D01*
X232300000Y-150000000D02*
X234800000Y-152500000D01*
X181250000Y-105000000D02*
X181250000Y-111250000D01*
X181250000Y-105000000D02*
X193750000Y-105000000D01*
X220000000Y-150000000D02*
X232300000Y-150000000D01*
%TO.N,/SCHEMATIC/POT_DIV*%
X210000000Y-125000000D02*
X206000000Y-121000000D01*
X206000000Y-115000000D02*
X206000000Y-120000000D01*
X206000000Y-121000000D02*
X206000000Y-120000000D01*
X213850000Y-120000000D02*
X206000000Y-120000000D01*
%TO.N,/SCHEMATIC/AMP_OUT*%
X248850001Y-130000000D02*
X252500000Y-130000000D01*
X252500000Y-125080000D02*
X252500000Y-130000000D01*
X252500000Y-130000000D02*
X252500000Y-133729999D01*
X252500000Y-133729999D02*
X252479999Y-133729999D01*
D54*
%TO.N,/SCHEMATIC/FAN-*%
X184330001Y-138810000D02*
X184925000Y-139404999D01*
X184250000Y-138810000D02*
X184925000Y-138135000D01*
X178690000Y-137500000D02*
X180000000Y-138810000D01*
X171000000Y-137500000D02*
X178690000Y-137500000D01*
X180000000Y-138810000D02*
X184330001Y-138810000D01*
X180000000Y-138810000D02*
X184250000Y-138810000D01*
D51*
%TO.N,Net-(D501-A1)*%
X175040000Y-100000000D02*
X175040000Y-106110000D01*
X175040000Y-106110000D02*
X175000000Y-106150000D01*
%TO.N,Net-(D501-A2)*%
X169960001Y-100000000D02*
X169960001Y-106110001D01*
X169960001Y-106110001D02*
X170000000Y-106150000D01*
%TO.N,/SCHEMATIC/AMP_EMITTER*%
X250119999Y-136269999D02*
X248850000Y-135000000D01*
X252500000Y-136269999D02*
X250119999Y-136269999D01*
%TO.N,/SCHEMATIC/GATE*%
X201150001Y-135000000D02*
X201150001Y-137500000D01*
X190075000Y-138135000D02*
X201150001Y-138135000D01*
X201150001Y-137500000D02*
X201150000Y-140000000D01*
%TO.N,/SCHEMATIC/ADC_NTC*%
X227500000Y-123850000D02*
X231350000Y-120000000D01*
X237000000Y-152160001D02*
X237339999Y-152500000D01*
X230043949Y-141101000D02*
X229398999Y-140456050D01*
X237000000Y-151000000D02*
X237000000Y-152160001D01*
X230101000Y-141101000D02*
X230043949Y-141101000D01*
X237000000Y-148000000D02*
X230101000Y-141101000D01*
X227500000Y-138500000D02*
X227500000Y-123850000D01*
X229398999Y-140456050D02*
X229398999Y-140398999D01*
X229398999Y-140398999D02*
X227500000Y-138500000D01*
%TO.N,/SCHEMATIC/PWM_FAN*%
X213850001Y-130149999D02*
X214000000Y-130000000D01*
X213850001Y-135000000D02*
X215067100Y-136217099D01*
X215067100Y-143932900D02*
X220332200Y-149198000D01*
X220332200Y-149198000D02*
X240800915Y-149198000D01*
X215067100Y-136217099D02*
X215067100Y-143932900D01*
X243610000Y-152992915D02*
X242602915Y-154000000D01*
X213850001Y-135000000D02*
X213850001Y-130149999D01*
X241379999Y-154000000D02*
X239880000Y-152500001D01*
X240800915Y-149198000D02*
X243610000Y-152007085D01*
X242602915Y-154000000D02*
X241379999Y-154000000D01*
X243610000Y-152007085D02*
X243610000Y-152992915D01*
%TO.N,/SCHEMATIC/LED_RED*%
X175000000Y-118850000D02*
X188282900Y-118850000D01*
X188282900Y-118850000D02*
X221932900Y-152500000D01*
X221932900Y-152500000D02*
X222100000Y-152500000D01*
%TO.N,/SCHEMATIC/LED_GRN*%
X170000000Y-118850000D02*
X171150000Y-120000000D01*
X188865800Y-120000000D02*
X219560000Y-150694200D01*
X171150000Y-120000000D02*
X188865800Y-120000000D01*
X219560000Y-150694200D02*
X219560000Y-152500000D01*
%TO.N,/SCHEMATIC/ADC_POT*%
X239519000Y-149599000D02*
X242420000Y-152500000D01*
X201150000Y-120000000D02*
X201150000Y-130582900D01*
X220166100Y-149599000D02*
X239519000Y-149599000D01*
X201150000Y-130582900D02*
X220166100Y-149599000D01*
%TO.N,/SCHEMATIC/THRES_REF*%
X240000000Y-90000000D02*
X240000000Y-91230000D01*
X242500000Y-87500000D02*
X240000000Y-90000000D01*
X250000000Y-87500000D02*
X242500000Y-87500000D01*
X260000000Y-102500000D02*
X252500000Y-95000000D01*
X240000000Y-91230000D02*
X238690000Y-92540000D01*
X252500000Y-90000000D02*
X250000000Y-87500000D01*
X252500000Y-95000000D02*
X252500000Y-90000000D01*
D53*
%TO.N,+VUSB*%
X238000000Y-180000000D02*
X239880000Y-178120000D01*
X239880000Y-178120000D02*
X239880000Y-172819999D01*
X228850000Y-180000000D02*
X238000000Y-180000000D01*
D51*
%TO.N,/SCHEMATIC/+5V*%
X193210001Y-175000000D02*
X192500000Y-175000000D01*
X198250000Y-177060000D02*
X198250000Y-179960001D01*
X200710001Y-182500000D02*
X213650000Y-182500000D01*
X198250000Y-179960001D02*
X198210001Y-180000000D01*
X196190000Y-175000000D02*
X198250000Y-177060000D01*
X198210001Y-180000000D02*
X200710001Y-182500000D01*
X213650000Y-182500000D02*
X216150000Y-180000000D01*
X198210001Y-180000000D02*
X193210001Y-175000000D01*
X198210001Y-180000000D02*
X192500000Y-180000000D01*
%TO.N,/SCHEMATIC/UNUSED*%
X190075000Y-136865000D02*
X190075000Y-135595001D01*
%TD*%
%TA.AperFunction,Conductor*%
%TO.N,/SCHEMATIC/+12V_IN*%
G36*
X180693534Y-150319685D02*
G01*
X180739289Y-150372489D01*
X180750494Y-150423504D01*
X180795599Y-161700009D01*
X181899998Y-162799999D01*
X181899999Y-162799999D01*
X181900000Y-162800000D01*
X185148638Y-162800000D01*
X185215677Y-162819685D01*
X185236319Y-162836319D01*
X186363681Y-163963681D01*
X186397166Y-164025004D01*
X186400000Y-164051362D01*
X186400000Y-171648638D01*
X186380315Y-171715677D01*
X186363681Y-171736319D01*
X185736319Y-172363681D01*
X185674996Y-172397166D01*
X185648638Y-172400000D01*
X184176362Y-172400000D01*
X184109323Y-172380315D01*
X184088681Y-172363681D01*
X183636319Y-171911319D01*
X183602834Y-171849996D01*
X183600000Y-171823638D01*
X183600000Y-169568750D01*
X182831250Y-168800000D01*
X169874000Y-168800000D01*
X169806961Y-168780315D01*
X169761206Y-168727511D01*
X169750000Y-168676000D01*
X169750000Y-166324000D01*
X169769685Y-166256961D01*
X169822489Y-166211206D01*
X169874000Y-166200000D01*
X176237500Y-166200000D01*
X178750000Y-163687500D01*
X178750000Y-150424000D01*
X178769685Y-150356961D01*
X178822489Y-150311206D01*
X178874000Y-150300000D01*
X180626495Y-150300000D01*
X180693534Y-150319685D01*
G37*
%TD.AperFunction*%
%TD*%
%TA.AperFunction,Conductor*%
%TO.N,/SCHEMATIC/+12V_FUSED*%
G36*
X186524335Y-148760990D02*
G01*
X193789483Y-152042025D01*
X193842479Y-152087558D01*
X193842620Y-152087776D01*
X194230174Y-152688042D01*
X194250000Y-152755040D01*
X194250000Y-154089339D01*
X194231055Y-154155213D01*
X193706345Y-154992012D01*
X193655300Y-155037758D01*
X186525585Y-158487620D01*
X186471575Y-158500000D01*
X184301362Y-158500000D01*
X184234323Y-158480315D01*
X184213681Y-158463681D01*
X183536319Y-157786319D01*
X183502834Y-157724996D01*
X183500000Y-157698638D01*
X183500000Y-149551362D01*
X183519685Y-149484323D01*
X183536319Y-149463681D01*
X184213681Y-148786319D01*
X184275004Y-148752834D01*
X184301362Y-148750000D01*
X186473298Y-148750000D01*
X186524335Y-148760990D01*
G37*
%TD.AperFunction*%
%TD*%
M02*
