%TF.GenerationSoftware,KiCad,Pcbnew,9.0.7+1*%
%TF.CreationDate,Date%
%TF.ProjectId,Sensor-Node-2-Board,53656e73-6f72-42d4-9e6f-64652d322d42,+ (Unreleased)*%
%TF.SameCoordinates,Original*%
%TF.FileFunction,Legend,Bot*%
%TF.FilePolarity,Positive*%
%FSLAX46Y46*%
G04 Gerber Fmt 4.6, Leading zero omitted, Abs format (unit mm)*
G04 Created by KiCad*
%MOMM*%
%LPD*%
G01*
G04 APERTURE LIST*
G04 Aperture macros list*
%AMRoundRect*
0 Rectangle with rounded corners*
0 $1 Rounding radius*
0 $2 $3 $4 $5 $6 $7 $8 $9 X,Y pos of 4 corners*
0 Add a 4 corners polygon primitive as box body*
4,1,4,$2,$3,$4,$5,$6,$7,$8,$9,$2,$3,0*
0 Add four circle primitives for the rounded corners*
1,1,$1+$1,$2,$3*
1,1,$1+$1,$4,$5*
1,1,$1+$1,$6,$7*
1,1,$1+$1,$8,$9*
0 Add four rect primitives between the rounded corners*
20,1,$1+$1,$2,$3,$4,$5,0*
20,1,$1+$1,$4,$5,$6,$7,0*
20,1,$1+$1,$6,$7,$8,$9,0*
20,1,$1+$1,$8,$9,$2,$3,0*%
G04 Aperture macros list end*
%ADD10C,1.700000*%
%ADD11RoundRect,0.265625X-0.584375X0.584375X-0.584375X-0.584375X0.584375X-0.584375X0.584375X0.584375X0*%
%ADD12C,2.100000*%
%ADD13RoundRect,0.275000X-0.275000X0.275000X-0.275000X-0.275000X0.275000X-0.275000X0.275000X0.275000X0*%
%ADD14C,1.100000*%
%ADD15RoundRect,0.265625X-0.584375X-0.584375X0.584375X-0.584375X0.584375X0.584375X-0.584375X0.584375X0*%
%ADD16RoundRect,0.261363X-0.888637X0.888637X-0.888637X-0.888637X0.888637X-0.888637X0.888637X0.888637X0*%
%ADD17C,2.300000*%
%ADD18C,5.800000*%
%ADD19RoundRect,0.050000X-0.750000X0.525000X-0.750000X-0.525000X0.750000X-0.525000X0.750000X0.525000X0*%
%ADD20O,1.600000X1.150000*%
%ADD21RoundRect,0.257813X1.392187X-1.392187X1.392187X1.392187X-1.392187X1.392187X-1.392187X-1.392187X0*%
%ADD22C,3.300000*%
%ADD23C,1.982000*%
%ADD24C,1.540000*%
%ADD25RoundRect,0.265625X0.584375X0.584375X-0.584375X0.584375X-0.584375X-0.584375X0.584375X-0.584375X0*%
%ADD26C,2.440000*%
%ADD27C,1.900000*%
%ADD28O,3.000000X1.800000*%
%ADD29RoundRect,0.259616X-1.090384X1.090384X-1.090384X-1.090384X1.090384X-1.090384X1.090384X1.090384X0*%
%ADD30C,2.700000*%
%ADD31RoundRect,0.050000X0.900000X0.900000X-0.900000X0.900000X-0.900000X-0.900000X0.900000X-0.900000X0*%
%ADD32RoundRect,0.265625X0.584375X-0.584375X0.584375X0.584375X-0.584375X0.584375X-0.584375X-0.584375X0*%
%ADD33RoundRect,0.261363X0.888637X0.888637X-0.888637X0.888637X-0.888637X-0.888637X0.888637X-0.888637X0*%
%ADD34RoundRect,0.700000X0.700000X-0.700000X0.700000X0.700000X-0.700000X0.700000X-0.700000X-0.700000X0*%
%ADD35C,2.800000*%
%ADD36RoundRect,0.050000X0.952500X1.000000X-0.952500X1.000000X-0.952500X-1.000000X0.952500X-1.000000X0*%
%ADD37O,2.005000X2.100000*%
%ADD38RoundRect,0.050000X-0.850000X0.850000X-0.850000X-0.850000X0.850000X-0.850000X0.850000X0.850000X0*%
%ADD39C,1.800000*%
%ADD40RoundRect,0.050000X-1.000000X-2.250000X1.000000X-2.250000X1.000000X2.250000X-1.000000X2.250000X0*%
%ADD41O,2.100000X4.100000*%
%ADD42O,4.100000X2.100000*%
G04 APERTURE END LIST*
%LPC*%
D10*
%TO.C,C301*%
X218700000Y-112425000D03*
X223700000Y-112425000D03*
%TD*%
D11*
%TO.C,D101*%
X252500000Y-107425000D03*
D10*
X252500000Y-112505000D03*
%TD*%
D12*
%TO.C,TP401*%
X214000000Y-117425000D03*
%TD*%
D13*
%TO.C,MK101*%
X260000000Y-101425000D03*
D14*
X260000000Y-103325000D03*
%TD*%
D12*
%TO.C,TP701*%
X237500000Y-167425000D03*
%TD*%
D15*
%TO.C,C702*%
X199000000Y-148425000D03*
D10*
X202500000Y-148425000D03*
%TD*%
D16*
%TO.C,D401*%
X180000000Y-118615000D03*
D17*
X180000000Y-126235000D03*
%TD*%
D10*
%TO.C,C502*%
X205000000Y-112425000D03*
X210000000Y-112425000D03*
%TD*%
D18*
%TO.C,H904*%
X260000000Y-167425000D03*
%TD*%
D10*
%TO.C,R302*%
X218650000Y-107425000D03*
X231350000Y-107425000D03*
%TD*%
%TO.C,C703*%
X212500000Y-167425000D03*
X207500000Y-167425000D03*
%TD*%
%TO.C,R503*%
X201150000Y-107425000D03*
X213850000Y-107425000D03*
%TD*%
D18*
%TO.C,H901*%
X170000000Y-77425000D03*
%TD*%
D12*
%TO.C,TP902*%
X211000000Y-135425000D03*
%TD*%
D10*
%TO.C,R201*%
X235000000Y-82505000D03*
X235000000Y-77425000D03*
%TD*%
%TO.C,C704*%
X187500000Y-162425000D03*
X192500000Y-162425000D03*
%TD*%
%TO.C,R102*%
X236150001Y-127425000D03*
X248850001Y-127425000D03*
%TD*%
D19*
%TO.C,Q101*%
X252500000Y-121154999D03*
D20*
X252500000Y-122425000D03*
X252500000Y-123694999D03*
%TD*%
D16*
%TO.C,D701*%
X178950000Y-154925000D03*
D17*
X178950000Y-162545000D03*
%TD*%
D21*
%TO.C,D702*%
X192500000Y-156165000D03*
D22*
X192500000Y-140925000D03*
%TD*%
D23*
%TO.C,U601*%
X255120000Y-139925000D03*
X252580000Y-139925000D03*
X250040000Y-139925001D03*
X247500000Y-139925000D03*
X244960000Y-139925000D03*
X242420000Y-139925000D03*
X239880000Y-139925001D03*
X237339999Y-139925000D03*
X234800000Y-139925000D03*
X232260000Y-139925000D03*
X229720000Y-139925000D03*
X227180000Y-139925001D03*
X224640000Y-139925000D03*
X222100000Y-139925000D03*
X219560000Y-139925000D03*
X217020000Y-139925001D03*
X217020000Y-160244999D03*
X219560000Y-160245000D03*
X222100000Y-160245000D03*
X224640000Y-160245000D03*
X227180000Y-160244999D03*
X229720000Y-160245000D03*
X232260000Y-160245000D03*
X234800000Y-160245000D03*
X237339999Y-160245000D03*
X239880000Y-160244999D03*
X242420000Y-160245000D03*
X244960000Y-160245000D03*
%TD*%
D24*
%TO.C,RV201*%
X260000000Y-92465000D03*
X260000000Y-89925000D03*
X260000000Y-87385001D03*
%TD*%
D25*
%TO.C,C705*%
X192500000Y-167425000D03*
D10*
X190499999Y-167425000D03*
%TD*%
D12*
%TO.C,TP101*%
X252500000Y-117425000D03*
%TD*%
D10*
%TO.C,R101*%
X236150001Y-112425000D03*
X248850001Y-112425000D03*
%TD*%
D12*
%TO.C,TP702*%
X200500000Y-139925000D03*
%TD*%
D10*
%TO.C,R402*%
X201150000Y-127425000D03*
X213850000Y-127425000D03*
%TD*%
D26*
%TO.C,RV501*%
X211000000Y-102425000D03*
X206000000Y-102425000D03*
X201000000Y-102425000D03*
%TD*%
D10*
%TO.C,R301*%
X231350000Y-102425000D03*
X218650000Y-102425000D03*
%TD*%
%TO.C,R202*%
X218650001Y-77425000D03*
X231350001Y-77425000D03*
%TD*%
D27*
%TO.C,SW501*%
X187500000Y-94425000D03*
X187500000Y-85425000D03*
D28*
X193750000Y-92425000D03*
X181250000Y-92425000D03*
X193750000Y-87425000D03*
X181250000Y-87425000D03*
%TD*%
D29*
%TO.C,J401*%
X171000000Y-119925000D03*
D30*
X171000000Y-124925000D03*
%TD*%
D10*
%TO.C,R502*%
X170000000Y-93575000D03*
X170000000Y-106275000D03*
%TD*%
%TO.C,C701*%
X203000000Y-156165000D03*
X198000000Y-156165000D03*
%TD*%
%TO.C,R501*%
X175000000Y-106275000D03*
X175000000Y-93575000D03*
%TD*%
D25*
%TO.C,C102*%
X232500000Y-127425000D03*
D10*
X230499999Y-127425000D03*
%TD*%
%TO.C,R107*%
X248850000Y-107425000D03*
X236150000Y-107425000D03*
%TD*%
D31*
%TO.C,D501*%
X175040000Y-87425000D03*
D27*
X172500000Y-87425000D03*
X169960001Y-87425000D03*
%TD*%
D10*
%TO.C,R103*%
X248850000Y-132425000D03*
X236150000Y-132425000D03*
%TD*%
D32*
%TO.C,C401*%
X180000000Y-114925000D03*
D10*
X180000000Y-112924999D03*
%TD*%
D33*
%TO.C,D704*%
X228850000Y-167425000D03*
D17*
X216150000Y-167425000D03*
%TD*%
D34*
%TO.C,F701*%
X185000000Y-158425000D03*
X185000000Y-151665000D03*
D35*
X185000000Y-144385000D03*
X185000000Y-137625000D03*
%TD*%
D10*
%TO.C,C402*%
X185000000Y-118615000D03*
X190000000Y-118615000D03*
%TD*%
D33*
%TO.C,D703*%
X203810000Y-162425000D03*
D17*
X196190000Y-162425000D03*
%TD*%
D10*
%TO.C,R105*%
X248850000Y-122425000D03*
X236150000Y-122425000D03*
%TD*%
D12*
%TO.C,TP201*%
X240000000Y-91425000D03*
%TD*%
D17*
%TO.C,C101*%
X260000000Y-112425000D03*
X260000000Y-127425000D03*
%TD*%
D10*
%TO.C,C201*%
X250000000Y-77425000D03*
X250000000Y-82425000D03*
%TD*%
D15*
%TO.C,U201*%
X238690000Y-77425000D03*
D10*
X238690000Y-79965000D03*
X238690000Y-82504999D03*
X238690000Y-85045000D03*
X246310000Y-85045000D03*
X246310000Y-82505000D03*
X246310000Y-79965000D03*
X246310000Y-77425000D03*
%TD*%
D18*
%TO.C,H902*%
X260000000Y-77425000D03*
%TD*%
D36*
%TO.C,U701*%
X203290000Y-167425000D03*
D37*
X200750000Y-167425000D03*
X198210001Y-167425000D03*
%TD*%
D10*
%TO.C,R401*%
X201150001Y-122425000D03*
X213850001Y-122425000D03*
%TD*%
D38*
%TO.C,TH301*%
X222540000Y-92425000D03*
D39*
X220000000Y-92425000D03*
%TD*%
D10*
%TO.C,C202*%
X231350000Y-81235000D03*
X231350000Y-86235000D03*
%TD*%
D40*
%TO.C,J701*%
X179700000Y-139925000D03*
D41*
X173500000Y-139925000D03*
D42*
X176500000Y-144625000D03*
%TD*%
D32*
%TO.C,C103*%
X248850000Y-102425000D03*
D10*
X248850000Y-100424999D03*
%TD*%
D29*
%TO.C,J702*%
X171000000Y-154925000D03*
D30*
X171000000Y-159925000D03*
%TD*%
D10*
%TO.C,R104*%
X236150001Y-117425000D03*
X248850001Y-117425000D03*
%TD*%
%TO.C,R106*%
X231350000Y-122425000D03*
X218650000Y-122425000D03*
%TD*%
%TO.C,C501*%
X181250000Y-98675000D03*
X186250000Y-98675000D03*
%TD*%
D18*
%TO.C,H903*%
X170000000Y-167425000D03*
%TD*%
D12*
%TO.C,TP901*%
X237500000Y-102425000D03*
%TD*%
%LPD*%
M02*
