M48
; DRILL file {KiCad 9.0.7+1} date 2026-02-19T14:13:10+0000
; FORMAT={-:-/ absolute / metric / decimal}
; #@! TF.CreationDate,2026-02-19T14:13:10+00:00
; #@! TF.GenerationSoftware,Kicad,Pcbnew,9.0.7+1
; #@! TF.FileFunction,Plated,1,2,PTH
FMAT,2
METRIC
; #@! TA.AperFunction,Plated,PTH,ViaDrill
T1C0.300
; #@! TA.AperFunction,Plated,PTH,ComponentDrill
T2C0.650
; #@! TA.AperFunction,Plated,PTH,ComponentDrill
T3C0.750
; #@! TA.AperFunction,Plated,PTH,ComponentDrill
T4C0.800
; #@! TA.AperFunction,Plated,PTH,ComponentDrill
T5C0.900
; #@! TA.AperFunction,Plated,PTH,ComponentDrill
T6C1.000
; #@! TA.AperFunction,Plated,PTH,ComponentDrill
T7C1.100
; #@! TA.AperFunction,Plated,PTH,ComponentDrill
T8C1.200
; #@! TA.AperFunction,Plated,PTH,ComponentDrill
T9C1.300
; #@! TA.AperFunction,Plated,PTH,ComponentDrill
T10C1.600
; #@! TA.AperFunction,Plated,PTH,ComponentDrill
T11C1.700
; #@! TA.AperFunction,Plated,PTH,ComponentDrill
T12C3.200
%
G90
G05
T1
X127.075Y-85.25
X128.5Y-84.405
X162.0Y-45.0
X162.99Y-93.01
X162.99Y-95.99
X164.0Y-47.0
X174.0Y-93.0
X174.0Y-96.0
X179.5Y-57.5
X179.5Y-62.5
T2
X197.0Y-59.0
X197.0Y-60.9
T3
X189.5Y-78.73
X189.5Y-80.0
X189.5Y-81.27
T4
X107.0Y-51.15
X107.0Y-63.85
X112.0Y-51.15
X112.0Y-63.85
X117.0Y-70.5
X117.0Y-72.5
X118.25Y-56.25
X122.0Y-76.19
X123.25Y-56.25
X124.5Y-120.0
X127.0Y-76.19
X127.5Y-125.0
X129.5Y-120.0
X129.5Y-125.0
X135.0Y-113.74
X136.0Y-106.0
X138.15Y-65.0
X138.15Y-85.0
X138.15Y-80.0
X139.5Y-106.0
X140.0Y-113.74
X142.0Y-70.0
X144.5Y-125.0
X147.0Y-70.0
X149.5Y-125.0
X150.85Y-65.0
X150.85Y-85.0
X150.85Y-80.0
X155.65Y-60.0
X155.65Y-65.0
X155.65Y-80.0
X155.65Y-35.0
X155.7Y-70.0
X160.7Y-70.0
X167.5Y-85.0
X168.35Y-38.81
X168.35Y-43.81
X168.35Y-60.0
X168.35Y-65.0
X168.35Y-80.0
X168.35Y-35.0
X169.5Y-85.0
X172.0Y-35.0
X172.0Y-40.08
X173.15Y-65.0
X173.15Y-80.0
X173.15Y-90.0
X173.15Y-70.0
X173.15Y-75.0
X173.15Y-85.0
X175.69Y-35.0
X175.69Y-37.54
X175.69Y-40.08
X175.69Y-42.62
X183.31Y-35.0
X183.31Y-37.54
X183.31Y-40.08
X183.31Y-42.62
X185.85Y-58.0
X185.85Y-60.0
X185.85Y-65.0
X185.85Y-80.0
X185.85Y-90.0
X185.85Y-70.0
X185.85Y-75.0
X185.85Y-85.0
X187.0Y-35.0
X187.0Y-40.0
X189.5Y-65.0
X189.5Y-70.08
X197.0Y-44.96
X197.0Y-47.5
X197.0Y-50.04
T5
X106.96Y-45.0
X109.5Y-45.0
X112.04Y-45.0
T6
X137.5Y-97.5
X148.0Y-93.0
X151.0Y-75.0
X154.02Y-97.5
X154.02Y-117.82
X156.56Y-97.5
X156.56Y-117.82
X157.0Y-50.0
X159.1Y-97.5
X159.1Y-117.82
X159.54Y-50.0
X161.64Y-97.5
X161.64Y-117.82
X164.18Y-97.5
X164.18Y-117.82
X166.72Y-97.5
X166.72Y-117.82
X169.26Y-97.5
X169.26Y-117.82
X171.8Y-97.5
X171.8Y-117.82
X174.34Y-97.5
X174.34Y-117.82
X174.5Y-60.0
X174.5Y-125.0
X176.88Y-97.5
X176.88Y-117.82
X177.0Y-49.0
X179.42Y-97.5
X179.42Y-117.82
X181.96Y-97.5
X181.96Y-117.82
X184.5Y-97.5
X187.04Y-97.5
X189.5Y-75.0
X189.58Y-97.5
X192.12Y-97.5
T7
X115.95Y-112.5
X115.95Y-120.12
X117.0Y-76.19
X117.0Y-83.81
X133.19Y-120.0
X135.21Y-125.0
X137.75Y-125.0
X140.29Y-125.0
X140.81Y-120.0
X153.15Y-125.0
X165.85Y-125.0
X197.0Y-70.0
X197.0Y-85.0
T8
X118.25Y-45.0
X118.25Y-50.0
X130.75Y-45.0
X130.75Y-50.0
T9
X108.0Y-77.5
X108.0Y-82.5
X108.0Y-112.5
X108.0Y-117.5
X138.0Y-60.0
X143.0Y-60.0
X148.0Y-60.0
T10
X129.5Y-98.5
X129.5Y-113.74
T11
X122.0Y-95.2
X122.0Y-101.96
X122.0Y-109.24
X122.0Y-116.0
T12
X107.0Y-35.0
X107.0Y-125.0
X197.0Y-35.0
X197.0Y-125.0
T6
G00X110.5Y-96.5
M15
G01X110.5Y-98.5
M16
G05
G00X112.5Y-102.2
M15
G01X114.5Y-102.2
M16
G05
G00X116.7Y-96.25
M15
G01X116.7Y-98.75
M16
G05
M30
