M48
; DRILL file {KiCad 9.0.7+1} date 2026-02-19T23:03:59+0000
; FORMAT={-:-/ absolute / metric / decimal}
; #@! TF.CreationDate,2026-02-19T23:03:59+00:00
; #@! TF.GenerationSoftware,Kicad,Pcbnew,9.0.7+1
; #@! TF.FileFunction,Plated,1,2,PTH
FMAT,2
METRIC
; #@! TA.AperFunction,Plated,PTH,ViaDrill
T1C0.300
; #@! TA.AperFunction,Plated,PTH,ComponentDrill
T2C0.650
; #@! TA.AperFunction,Plated,PTH,ComponentDrill
T3C0.750
; #@! TA.AperFunction,Plated,PTH,ComponentDrill
T4C0.800
; #@! TA.AperFunction,Plated,PTH,ComponentDrill
T5C0.900
; #@! TA.AperFunction,Plated,PTH,ComponentDrill
T6C1.000
; #@! TA.AperFunction,Plated,PTH,ComponentDrill
T7C1.100
; #@! TA.AperFunction,Plated,PTH,ComponentDrill
T8C1.200
; #@! TA.AperFunction,Plated,PTH,ComponentDrill
T9C1.300
; #@! TA.AperFunction,Plated,PTH,ComponentDrill
T10C1.600
; #@! TA.AperFunction,Plated,PTH,ComponentDrill
T11C1.700
; #@! TA.AperFunction,Plated,PTH,ComponentDrill
T12C3.200
%
G90
G05
T1
X190.075Y-127.675
X191.5Y-126.83
X225.0Y-87.425
X225.99Y-135.435
X225.99Y-138.415
X227.0Y-89.425
X237.0Y-135.425
X237.0Y-138.425
X242.5Y-99.925
X242.5Y-104.925
T2
X260.0Y-101.425
X260.0Y-103.325
T3
X252.5Y-121.155
X252.5Y-122.425
X252.5Y-123.695
T4
X170.0Y-93.575
X170.0Y-106.275
X175.0Y-93.575
X175.0Y-106.275
X180.0Y-112.925
X180.0Y-114.925
X181.25Y-98.675
X185.0Y-118.615
X186.25Y-98.675
X187.5Y-162.425
X190.0Y-118.615
X190.5Y-167.425
X192.5Y-162.425
X192.5Y-167.425
X198.0Y-156.165
X199.0Y-148.425
X201.15Y-107.425
X201.15Y-127.425
X201.15Y-122.425
X202.5Y-148.425
X203.0Y-156.165
X205.0Y-112.425
X207.5Y-167.425
X210.0Y-112.425
X212.5Y-167.425
X213.85Y-107.425
X213.85Y-127.425
X213.85Y-122.425
X218.65Y-102.425
X218.65Y-107.425
X218.65Y-122.425
X218.65Y-77.425
X218.7Y-112.425
X223.7Y-112.425
X230.5Y-127.425
X231.35Y-81.235
X231.35Y-86.235
X231.35Y-102.425
X231.35Y-107.425
X231.35Y-122.425
X231.35Y-77.425
X232.5Y-127.425
X235.0Y-77.425
X235.0Y-82.505
X236.15Y-107.425
X236.15Y-122.425
X236.15Y-132.425
X236.15Y-112.425
X236.15Y-117.425
X236.15Y-127.425
X238.69Y-77.425
X238.69Y-79.965
X238.69Y-82.505
X238.69Y-85.045
X246.31Y-77.425
X246.31Y-79.965
X246.31Y-82.505
X246.31Y-85.045
X248.85Y-100.425
X248.85Y-102.425
X248.85Y-107.425
X248.85Y-122.425
X248.85Y-132.425
X248.85Y-112.425
X248.85Y-117.425
X248.85Y-127.425
X250.0Y-77.425
X250.0Y-82.425
X252.5Y-107.425
X252.5Y-112.505
X260.0Y-87.385
X260.0Y-89.925
X260.0Y-92.465
T5
X169.96Y-87.425
X172.5Y-87.425
X175.04Y-87.425
T6
X200.5Y-139.925
X211.0Y-135.425
X214.0Y-117.425
X217.02Y-139.925
X217.02Y-160.245
X219.56Y-139.925
X219.56Y-160.245
X220.0Y-92.425
X222.1Y-139.925
X222.1Y-160.245
X222.54Y-92.425
X224.64Y-139.925
X224.64Y-160.245
X227.18Y-139.925
X227.18Y-160.245
X229.72Y-139.925
X229.72Y-160.245
X232.26Y-139.925
X232.26Y-160.245
X234.8Y-139.925
X234.8Y-160.245
X237.34Y-139.925
X237.34Y-160.245
X237.5Y-102.425
X237.5Y-167.425
X239.88Y-139.925
X239.88Y-160.245
X240.0Y-91.425
X242.42Y-139.925
X242.42Y-160.245
X244.96Y-139.925
X244.96Y-160.245
X247.5Y-139.925
X250.04Y-139.925
X252.5Y-117.425
X252.58Y-139.925
X255.12Y-139.925
T7
X178.95Y-154.925
X178.95Y-162.545
X180.0Y-118.615
X180.0Y-126.235
X196.19Y-162.425
X198.21Y-167.425
X200.75Y-167.425
X203.29Y-167.425
X203.81Y-162.425
X216.15Y-167.425
X228.85Y-167.425
X260.0Y-112.425
X260.0Y-127.425
T8
X181.25Y-87.425
X181.25Y-92.425
X193.75Y-87.425
X193.75Y-92.425
T9
X171.0Y-119.925
X171.0Y-124.925
X171.0Y-154.925
X171.0Y-159.925
X201.0Y-102.425
X206.0Y-102.425
X211.0Y-102.425
T10
X192.5Y-140.925
X192.5Y-156.165
T11
X185.0Y-137.625
X185.0Y-144.385
X185.0Y-151.665
X185.0Y-158.425
T12
X170.0Y-77.425
X170.0Y-167.425
X260.0Y-77.425
X260.0Y-167.425
T6
G00X173.5Y-138.925
M15
G01X173.5Y-140.925
M16
G05
G00X175.5Y-144.625
M15
G01X177.5Y-144.625
M16
G05
G00X179.7Y-138.675
M15
G01X179.7Y-141.175
M16
G05
M30
