M48
; DRILL file {KiCad 9.0.7+1} date 2026-02-19T23:37:11+0000
; FORMAT={-:-/ absolute / metric / decimal}
; #@! TF.CreationDate,2026-02-19T23:37:11+00:00
; #@! TF.GenerationSoftware,Kicad,Pcbnew,9.0.7+1
; #@! TF.FileFunction,Plated,1,2,PTH
FMAT,2
METRIC
; #@! TA.AperFunction,Plated,PTH,ViaDrill
T1C0.300
; #@! TA.AperFunction,Plated,PTH,ComponentDrill
T2C0.650
; #@! TA.AperFunction,Plated,PTH,ComponentDrill
T3C0.750
; #@! TA.AperFunction,Plated,PTH,ComponentDrill
T4C0.800
; #@! TA.AperFunction,Plated,PTH,ComponentDrill
T5C0.900
; #@! TA.AperFunction,Plated,PTH,ComponentDrill
T6C1.000
; #@! TA.AperFunction,Plated,PTH,ComponentDrill
T7C1.100
; #@! TA.AperFunction,Plated,PTH,ComponentDrill
T8C1.200
; #@! TA.AperFunction,Plated,PTH,ComponentDrill
T9C1.300
; #@! TA.AperFunction,Plated,PTH,ComponentDrill
T10C1.600
; #@! TA.AperFunction,Plated,PTH,ComponentDrill
T11C1.700
; #@! TA.AperFunction,Plated,PTH,ComponentDrill
T12C3.200
%
G90
G05
T1
X190.075Y-140.25
X191.5Y-139.405
X225.0Y-100.0
X225.99Y-148.01
X225.99Y-150.99
X227.0Y-102.0
X237.0Y-148.0
X237.0Y-151.0
X242.5Y-112.5
X242.5Y-117.5
T2
X260.0Y-114.0
X260.0Y-115.9
T3
X252.5Y-133.73
X252.5Y-135.0
X252.5Y-136.27
T4
X170.0Y-106.15
X170.0Y-118.85
X175.0Y-106.15
X175.0Y-118.85
X180.0Y-125.5
X180.0Y-127.5
X181.25Y-111.25
X185.0Y-131.19
X186.25Y-111.25
X187.5Y-175.0
X190.0Y-131.19
X190.5Y-180.0
X192.5Y-175.0
X192.5Y-180.0
X198.0Y-168.74
X199.0Y-161.0
X201.15Y-120.0
X201.15Y-140.0
X201.15Y-135.0
X202.5Y-161.0
X203.0Y-168.74
X205.0Y-125.0
X207.5Y-180.0
X210.0Y-125.0
X212.5Y-180.0
X213.85Y-120.0
X213.85Y-140.0
X213.85Y-135.0
X218.65Y-115.0
X218.65Y-120.0
X218.65Y-135.0
X218.65Y-90.0
X218.7Y-125.0
X223.7Y-125.0
X230.5Y-140.0
X231.35Y-93.81
X231.35Y-98.81
X231.35Y-115.0
X231.35Y-120.0
X231.35Y-135.0
X231.35Y-90.0
X232.5Y-140.0
X235.0Y-90.0
X235.0Y-95.08
X236.15Y-120.0
X236.15Y-135.0
X236.15Y-145.0
X236.15Y-125.0
X236.15Y-130.0
X236.15Y-140.0
X238.69Y-90.0
X238.69Y-92.54
X238.69Y-95.08
X238.69Y-97.62
X246.31Y-90.0
X246.31Y-92.54
X246.31Y-95.08
X246.31Y-97.62
X248.85Y-113.0
X248.85Y-115.0
X248.85Y-120.0
X248.85Y-135.0
X248.85Y-145.0
X248.85Y-125.0
X248.85Y-130.0
X248.85Y-140.0
X250.0Y-90.0
X250.0Y-95.0
X252.5Y-120.0
X252.5Y-125.08
X260.0Y-99.96
X260.0Y-102.5
X260.0Y-105.04
T5
X169.96Y-100.0
X172.5Y-100.0
X175.04Y-100.0
T6
X200.5Y-152.5
X211.0Y-148.0
X214.0Y-130.0
X217.02Y-152.5
X217.02Y-172.82
X219.56Y-152.5
X219.56Y-172.82
X220.0Y-105.0
X222.1Y-152.5
X222.1Y-172.82
X222.54Y-105.0
X224.64Y-152.5
X224.64Y-172.82
X227.18Y-152.5
X227.18Y-172.82
X229.72Y-152.5
X229.72Y-172.82
X232.26Y-152.5
X232.26Y-172.82
X234.8Y-152.5
X234.8Y-172.82
X237.34Y-152.5
X237.34Y-172.82
X237.5Y-115.0
X237.5Y-180.0
X239.88Y-152.5
X239.88Y-172.82
X240.0Y-104.0
X242.42Y-152.5
X242.42Y-172.82
X244.96Y-152.5
X244.96Y-172.82
X247.5Y-152.5
X250.04Y-152.5
X252.5Y-130.0
X252.58Y-152.5
X255.12Y-152.5
T7
X178.95Y-167.5
X178.95Y-175.12
X180.0Y-131.19
X180.0Y-138.81
X196.19Y-175.0
X198.21Y-180.0
X200.75Y-180.0
X203.29Y-180.0
X203.81Y-175.0
X216.15Y-180.0
X228.85Y-180.0
X260.0Y-125.0
X260.0Y-140.0
T8
X181.25Y-100.0
X181.25Y-105.0
X193.75Y-100.0
X193.75Y-105.0
T9
X171.0Y-132.5
X171.0Y-137.5
X171.0Y-167.5
X171.0Y-172.5
X201.0Y-115.0
X206.0Y-115.0
X211.0Y-115.0
T10
X192.5Y-153.5
X192.5Y-168.74
T11
X185.0Y-150.2
X185.0Y-156.96
X185.0Y-164.24
X185.0Y-171.0
T12
X170.0Y-90.0
X170.0Y-180.0
X260.0Y-90.0
X260.0Y-180.0
T6
G00X173.5Y-151.5
M15
G01X173.5Y-153.5
M16
G05
G00X175.5Y-157.2
M15
G01X177.5Y-157.2
M16
G05
G00X179.7Y-151.25
M15
G01X179.7Y-153.75
M16
G05
M30
